<svg xmlns="http://www.w3.org/2000/svg" viewBox="0 0 500 500">
    <path d="M156.34,372.1,76,424l51.93-80.37A164.15,164.15,0,0,0,156.34,372.1Z" style="fill:#f7931e"/>
    <path d="M156.47,127.91A147.8,147.8,0,0,0,128,156.34L76,75.84Z" style="fill:#f7931e"/>
    <path d="M424,424,343.66,372a159,159,0,0,0,28.43-28.3Z" style="fill:#f7931e"/>
    <path d="M424,75.84l-51.93,80.5a163.45,163.45,0,0,0-28.43-28.43Z" style="fill:#f7931e"/>
    <path d="M96.16,250a152.43,152.43,0,0,0,1.36,20.06L3.86,250l93.66-20.18A154.27,154.27,0,0,0,96.16,250Z" style="fill:#f7931e"/>
    <path d="M270.19,402.5,250,496.16,229.94,402.5A154.17,154.17,0,0,0,250,403.85,156.3,156.3,0,0,0,270.19,402.5Z" style="fill:#f7931e"/>
    <path d="M270.19,97.51A154.54,154.54,0,0,0,250,96.15a152.43,152.43,0,0,0-20.06,1.36L250,3.84Z" style="fill:#f7931e"/>
    <path d="M402.49,270.06A154.17,154.17,0,0,0,403.84,250a156,156,0,0,0-1.35-20.18L496.14,250Z" style="fill:#f7931e"/>
    <path d="M200.4,395.61,173.57,434.5l8.5-46.4A160.49,160.49,0,0,0,200.4,395.61Z" style="fill:#fbb03b"/>
    <path d="M112,181.94a139.3,139.3,0,0,0-7.63,18.34l-39-26.83Z" style="fill:#fbb03b"/>
    <path d="M434.61,326.31l-46.52-8.49a140.67,140.67,0,0,0,7.63-18.34Z" style="fill:#fbb03b"/>
    <path d="M326.43,65.26l-8.49,46.65a151.13,151.13,0,0,0-18.34-7.64Z" style="fill:#fbb03b"/>
    <path d="M111.92,317.82l-46.53,8.61,38.89-26.95A140.72,140.72,0,0,0,111.92,317.82Z" style="fill:#fbb03b"/>
    <path d="M326.55,434.5l-26.83-38.89A140.72,140.72,0,0,0,318.06,388Z" style="fill:#fbb03b"/>
    <path d="M200.53,104.27a152.22,152.22,0,0,0-18.46,7.64l-8.5-46.65Z" style="fill:#fbb03b"/>
    <path d="M434.61,173.45l-39,27A134.36,134.36,0,0,0,388,181.94Z" style="fill:#fbb03b"/>
    <path d="M388.46,250a138.43,138.43,0,0,1-255.33,74.18A136.87,136.87,0,0,1,111.53,250,138.5,138.5,0,0,1,327,134.84a.07.07,0,0,0,.07.08A138.39,138.39,0,0,1,388.46,250Z" style="fill:#fbb03b"/>
    <path d="M298.51,297.49c-51.22,51-123.81,62.2-165.38,26.65A136.87,136.87,0,0,1,111.53,250,138.5,138.5,0,0,1,327,134.84a.07.07,0,0,0,.07.08C360.61,176.62,348.88,247.35,298.51,297.49Z" style="fill:#e6e6e6;opacity:0.2"/>
    <ellipse cx="188.06" cy="191.62" rx="57.73" ry="38.48" transform="translate(-80.39 187.54) rotate(-44.67)" style="fill:#f2f2f2;opacity:0.2"/>
    <path d="M250,392.29c-78.47,0-142.31-63.84-142.31-142.3S171.53,107.68,250,107.68,392.31,171.52,392.31,250,328.47,392.29,250,392.29Zm0-276.93c-74.22,0-134.6,60.39-134.6,134.63S175.78,384.61,250,384.61,384.6,324.22,384.6,250,324.22,115.36,250,115.36Z"/>
    <path d="M76,427.88A3.84,3.84,0,0,1,72.74,422l51.93-80.37a3.87,3.87,0,0,1,6.29-.28,159.64,159.64,0,0,0,27.76,27.77,3.82,3.82,0,0,1-.27,6.24L78.08,427.26A3.81,3.81,0,0,1,76,427.88Zm52.28-77.65L88.93,411.09l60.86-39.33A167.79,167.79,0,0,1,128.26,350.23Z"/>
    <path d="M128,160.18h-.14a3.82,3.82,0,0,1-3.1-1.76L72.74,77.92a3.82,3.82,0,0,1,.52-4.8,3.87,3.87,0,0,1,4.82-.5l80.49,52.07a3.83,3.83,0,0,1,.24,6.27,143.82,143.82,0,0,0-27.69,27.69A3.89,3.89,0,0,1,128,160.18ZM89,88.82l39.39,60.9a151.85,151.85,0,0,1,21.51-21.51Z"/>
    <path d="M424,427.88a3.87,3.87,0,0,1-2.11-.62l-80.37-52.07a3.84,3.84,0,0,1-.25-6.26A154.28,154.28,0,0,0,369,341.31a4,4,0,0,1,3.22-1.48,3.84,3.84,0,0,1,3.07,1.76L427.27,422a3.85,3.85,0,0,1-3.24,5.92Zm-73.79-56.22,60.81,39.39-39.3-60.82A162.49,162.49,0,0,1,350.24,371.66Z"/>
    <path d="M372.09,160.18a3.87,3.87,0,0,1-3-1.49,159.24,159.24,0,0,0-27.76-27.76,3.84,3.84,0,0,1,.27-6.24l80.37-52.07a3.85,3.85,0,0,1,5.35,5.3l-51.93,80.49a3.86,3.86,0,0,1-3.08,1.76Zm-21.88-31.94a167.79,167.79,0,0,1,21.53,21.53l39.33-61Z"/>
    <path d="M97.52,273.9a4.28,4.28,0,0,1-.81-.08L3.05,253.75a3.83,3.83,0,0,1,0-7.5L96.7,226.06a3.88,3.88,0,0,1,3.43.93,3.83,3.83,0,0,1,1.21,3.32A151.42,151.42,0,0,0,100,250a149,149,0,0,0,1.32,19.56,3.84,3.84,0,0,1-3.82,4.34ZM22.14,250l70.93,15.2c-.51-5.14-.76-10.23-.76-15.19s.25-10.08.76-15.3Z"/>
    <path d="M250,500h0a3.85,3.85,0,0,1-3.77-3L226.17,403.3a3.85,3.85,0,0,1,4.28-4.61,145.65,145.65,0,0,0,39.24,0,3.89,3.89,0,0,1,3.33,1.2,3.84,3.84,0,0,1,.94,3.41L253.77,497A3.85,3.85,0,0,1,250,500Zm-15.17-93.08L250,477.8l15.28-70.88A150.52,150.52,0,0,1,234.83,406.92Z"/>
    <path d="M270.18,101.34a4,4,0,0,1-.49,0,145.72,145.72,0,0,0-39.25,0,3.85,3.85,0,0,1-4.27-4.61L246.23,3A3.85,3.85,0,0,1,250,0h0a3.85,3.85,0,0,1,3.77,3L274,96.7a3.84,3.84,0,0,1-3.78,4.64Zm-20.18-9c5,0,10.05.25,15.29.77L250,22.2,234.83,93.08C240,92.57,245.06,92.31,250,92.31Z"/>
    <path d="M402.49,273.9a3.87,3.87,0,0,1-2.62-1,3.82,3.82,0,0,1-1.2-3.32,147.17,147.17,0,0,0,0-39.26,3.84,3.84,0,0,1,1.22-3.32,3.94,3.94,0,0,1,3.43-.93L497,246.25a3.83,3.83,0,0,1,0,7.5L403.3,273.82A4.45,4.45,0,0,1,402.49,273.9Zm4.44-39.2c.51,5.24.77,10.29.77,15.3s-.26,10-.77,15.19L477.86,250Z"/>
    <path d="M173.57,438.34a4,4,0,0,1-1.47-.29,3.83,3.83,0,0,1-2.32-4.24l8.49-46.4a3.85,3.85,0,0,1,5.47-2.77A154.41,154.41,0,0,0,201.63,392a3.84,3.84,0,0,1,2,5.82l-26.83,38.89A3.87,3.87,0,0,1,173.57,438.34ZM185,393.67l-4.37,23.86,13.78-20C191.31,396.4,188.16,395.1,185,393.67Z"/>
    <path d="M104.41,204.11a3.92,3.92,0,0,1-2.19-.67l-39-26.83a3.84,3.84,0,0,1,2.89-6.94l46.64,8.49a3.83,3.83,0,0,1,2.76,5.49,137.46,137.46,0,0,0-7.42,17.84,3.86,3.86,0,0,1-2.44,2.43A3.93,3.93,0,0,1,104.41,204.11ZM82.34,180.44l20.11,13.82q1.78-4.74,3.94-9.44Z"/>
    <path d="M434.61,330.15a4.23,4.23,0,0,1-.7-.06l-46.52-8.49a3.85,3.85,0,0,1-2.76-5.49,137.3,137.3,0,0,0,7.43-17.84,3.87,3.87,0,0,1,5.86-1.95l38.89,26.83a3.84,3.84,0,0,1-2.2,7ZM393.74,315l24,4.37-20-13.82C396.49,308.66,395.17,311.81,393.74,315Z"/>
    <path d="M317.94,115.75a3.94,3.94,0,0,1-1.74-.41,147,147,0,0,0-17.87-7.44,3.82,3.82,0,0,1-1.91-5.79l26.83-39a3.86,3.86,0,0,1,7,2.85l-8.5,46.65a3.87,3.87,0,0,1-3.79,3.16Zm-12.35-13.39c3.3,1.24,6.44,2.54,9.45,3.91l4.38-24Z"/>
    <path d="M65.39,330.27a3.84,3.84,0,0,1-2.2-7l38.89-26.95a3.87,3.87,0,0,1,5.87,1.94,135.84,135.84,0,0,0,7.42,17.84,3.81,3.81,0,0,1,0,3.42,3.87,3.87,0,0,1-2.75,2.07L66.1,330.21A4.25,4.25,0,0,1,65.39,330.27Zm36.94-24.76-20,13.89,24-4.44C104.84,311.83,103.52,308.67,102.33,305.51Z"/>
    <path d="M326.55,438.34a3.87,3.87,0,0,1-3.18-1.67l-26.83-38.89a3.84,3.84,0,0,1,2-5.82,135.72,135.72,0,0,0,17.83-7.42,3.87,3.87,0,0,1,5.53,2.75l8.49,46.52a3.85,3.85,0,0,1-2.33,4.24A4,4,0,0,1,326.55,438.34Zm-20.81-40.79,13.8,20-4.37-23.93Q310.48,395.77,305.74,397.55Z"/>
    <path d="M182.07,115.75a3.89,3.89,0,0,1-3.8-3.16l-8.49-46.65a3.82,3.82,0,0,1,2.32-4.23,3.87,3.87,0,0,1,4.65,1.37l27,39a3.84,3.84,0,0,1-1.92,5.8,147.14,147.14,0,0,0-18,7.44A3.93,3.93,0,0,1,182.07,115.75Zm-1.5-33.59L185,106.28c3-1.35,6.16-2.65,9.56-3.92Z"/>
    <path d="M395.6,204.24a4.07,4.07,0,0,1-1.24-.2,3.87,3.87,0,0,1-2.43-2.45,132.37,132.37,0,0,0-7.42-17.94,3.83,3.83,0,0,1,0-3.43,3.89,3.89,0,0,1,2.76-2.06l46.65-8.49a3.84,3.84,0,0,1,2.89,6.93l-39,27A3.84,3.84,0,0,1,395.6,204.24Zm-2-19.42c1.45,3.17,2.78,6.36,4,9.54l20.18-13.94Z"/>
</svg>