<svg xmlns="http://www.w3.org/2000/svg" viewBox="0 0 500 500">
    <path d="M470.59,253.88a220.59,220.59,0,0,1-158,207.67A217.72,217.72,0,0,1,250,470.64c-115.56,0-210.47-88.92-219.87-202.19-.58-6.06-.81-12.24-.81-18.53,0-96.15,61.61-178,147.46-208a214.8,214.8,0,0,1,66.25-12.36c1.16-.11,2.32-.11,3.37-.11-69.38,23.77-119.27,89.5-119.27,166.88,0,97.43,79,176.56,176.58,176.56A176.5,176.5,0,0,0,470.59,253.88Z" transform="translate(-25 -25)" style="fill:#29abe2" />
    <path d="M312.57,461.43v.12A217.72,217.72,0,0,1,250,470.64c-115.56,0-210.47-88.92-219.87-202.19-.58-6.06-.81-12.24-.81-18.53,0-96.15,61.61-178,147.46-208a214.8,214.8,0,0,1,66.25-12.36c-17.17.7-51.67,7.38-66.48,14.57-27.1,13.17-62.68,43-81.1,67.94-21.82,29.57-32.9,70.73-34.3,104.87-2.25,54.79,5,97.57,30.71,137.79,20.22,31.62,57.59,73.78,123.91,99.27C260.83,468.08,297.14,462.72,312.57,461.43Z" transform="translate(-25 -25)" style="fill:#e6e6e6;opacity:0.2" />
    <path d="M176.82,41.9c-45.59,27.85-62.3,43.35-81.44,66.42s-36.07,58.37-39.56,99.86c-3.07,36.5-16.48,60.27-25.65,60.27-.58-6.06-.81-12.24-.81-18.53C29.36,153.77,91,72,176.82,41.9Z" transform="translate(-25 -25)" style="fill:#f2f2f2;opacity:0.2" />
    <polygon points="305.17 54.63 311.41 16.75 317.65 54.63 355.52 60.87 317.65 67.11 311.41 104.98 305.17 67.11 267.29 60.87 305.17 54.63" style="fill:#29abe2" />
    <polygon points="365.98 96.89 369.72 74.16 373.46 96.89 396.19 100.63 373.46 104.37 369.72 127.1 365.98 104.37 343.25 100.63 365.98 96.89" style="fill:#29abe2" />
    <polygon points="332.41 130.74 334.9 115.59 337.4 130.74 352.55 133.24 337.4 135.73 334.9 150.88 332.41 135.73 317.26 133.24 332.41 130.74" style="fill:#29abe2" />
    <path d="M471.35,249.52a3.91,3.91,0,0,0-.76-.07,4.41,4.41,0,0,0-4.17,3,172.11,172.11,0,0,1-162.7,116c-94.89,0-172.09-77.2-172.09-172.09A172,172,0,0,1,247.86,33.59,4.41,4.41,0,0,0,246.43,25h-.07C124.3,26.94,25,127.86,25,250c0,124.09,101,225,225,225,122,0,222.87-99.17,225-221.06A4.4,4.4,0,0,0,471.35,249.52ZM250,470.59C128.25,470.59,29.41,371.82,29.41,250c0-120.68,96.86-218.64,217-220.55A176.5,176.5,0,1,0,470.59,253.86C468.53,374,370.57,470.59,250,470.59Z" transform="translate(-25 -25)" />
    <path d="M291.57,90.22l34.76,5.72,5.72,34.76a4.41,4.41,0,0,0,8.71,0l5.73-34.76,34.75-5.72a4.41,4.41,0,0,0,0-8.71l-34.75-5.72L340.76,41a4.41,4.41,0,0,0-8.71,0l-5.72,34.76-34.76,5.72a4.41,4.41,0,0,0,0,8.71Zm38.6-10.59,6.24-37.88,6.24,37.88,37.88,6.24L342.65,92.1,336.41,130,330.17,92.1l-37.88-6.23Z" transform="translate(-25 -25)" />
    <path d="M363.84,125.63a4.4,4.4,0,0,0,3.69,4.35l19.61,3.23,3.23,19.61a4.41,4.41,0,0,0,8.7,0l3.23-19.61L421.91,130a4.41,4.41,0,0,0,0-8.7l-19.61-3.23-3.23-19.61a4.41,4.41,0,0,0-8.7,0l-3.23,19.61-19.61,3.23A4.4,4.4,0,0,0,363.84,125.63ZM391,121.89l3.74-22.73,3.74,22.73,22.73,3.74-22.73,3.74-3.74,22.73L391,129.37l-22.73-3.74Z" transform="translate(-25 -25)" />
    <path d="M366.24,151.9l-2-12a4.41,4.41,0,0,0-8.71,0l-2,12-12,2a4.41,4.41,0,0,0,0,8.71l12,2,2,12a4.41,4.41,0,0,0,8.71,0l2-12,12-2a4.41,4.41,0,0,0,0-8.71Zm-3.84,8.83-2.5,15.15-2.49-15.15-15.15-2.49,15.15-2.5,2.49-15.15,2.5,15.15,15.15,2.5Z" transform="translate(-25 -25)" />
</svg>