<svg xmlns="http://www.w3.org/2000/svg" viewBox="0 0 500 448.01">
    <rect x="124.99" y="350.49" width="34.86" height="121.99" rx="17.43" transform="matrix(0.82, 0.57, -0.57, 0.82, 261.78, -33.26)" style="fill:#29abe2"/>
    <rect x="178.78" y="350.49" width="34.86" height="121.99" rx="17.43" transform="translate(271.51 -64.12) rotate(35)" style="fill:#29abe2"/>
    <rect x="232.57" y="350.49" width="34.86" height="121.99" rx="17.43" transform="translate(281.23 -94.97) rotate(35)" style="fill:#29abe2"/>
    <rect x="286.36" y="350.49" width="34.86" height="121.99" rx="17.43" transform="translate(290.96 -125.82) rotate(35)" style="fill:#29abe2"/>
    <rect x="340.15" y="350.49" width="34.86" height="121.99" rx="17.43" transform="translate(300.69 -156.68) rotate(35)" style="fill:#29abe2"/>
    <path d="M167.43,361.86h0a14.1,14.1,0,0,1,11.19,5.59,10.61,10.61,0,0,1,1.14,1.81,14,14,0,0,1-.93,14.54l-49.78,71.1a14.35,14.35,0,0,1-9.06,6,14,14,0,0,1-11.83-3.29c-5.14-4.53-5.87-13.11-1.94-18.72L156,367.8a14,14,0,0,1,11.44-5.94m0-3.49a17.42,17.42,0,0,0-14.3,7.43l-49.75,71.06A17.69,17.69,0,0,0,106,460.32a17.44,17.44,0,0,0,25.74-3.14l50-71.38a17.44,17.44,0,0,0-4.28-24.28h0a17.37,17.37,0,0,0-10-3.15Z" transform="translate(0 -25.99)"/>
    <path d="M221.22,361.86h0a14.1,14.1,0,0,1,11.19,5.59,10.93,10.93,0,0,1,1.14,1.8,14,14,0,0,1-.93,14.55l-49.78,71.09a14.34,14.34,0,0,1-8.7,5.93,14,14,0,0,1-14.14-5.3,11.48,11.48,0,0,1-1.13-1.79,14,14,0,0,1,.93-14.55l50-71.38a14,14,0,0,1,11.44-5.94m0-3.49a17.42,17.42,0,0,0-14.3,7.43l-50,71.38a17.44,17.44,0,0,0,4.28,24.28h0a17.44,17.44,0,0,0,24.28-4.28l48.06-68.65c5.58-8,4.52-20.12-2.36-27h0a17.37,17.37,0,0,0-10-3.15Z" transform="translate(0 -25.99)"/>
    <path d="M275,361.86h0a14.1,14.1,0,0,1,11.19,5.59,10.61,10.61,0,0,1,1.14,1.81,14,14,0,0,1-.93,14.54l-49.78,71.1a14.35,14.35,0,0,1-9.06,6,13.92,13.92,0,0,1-11.82-3.29c-5.15-4.53-5.88-13.11-1.95-18.72l49.77-71.08A14,14,0,0,1,275,361.86m0-3.49a17.42,17.42,0,0,0-14.3,7.43l-50,71.38A17.44,17.44,0,0,0,215,461.46h0a17.44,17.44,0,0,0,24.28-4.28l50-71.38A17.44,17.44,0,0,0,285,361.52h0a17.37,17.37,0,0,0-10-3.15Z" transform="translate(0 -25.99)"/>
    <path d="M328.8,361.86h0A14.1,14.1,0,0,1,340,367.45a10.61,10.61,0,0,1,1.14,1.81,14,14,0,0,1-.93,14.54l-49.78,71.1a14.35,14.35,0,0,1-9.06,6,13.92,13.92,0,0,1-11.82-3.29c-5.15-4.53-5.88-13.11-2-18.72l49.77-71.08a14,14,0,0,1,11.44-5.94m0-3.49a17.42,17.42,0,0,0-14.3,7.43l-49.75,71.06a17.68,17.68,0,0,0,2.6,23.46,17.43,17.43,0,0,0,25.73-3.14l50-71.38a17.44,17.44,0,0,0-4.28-24.28h0a17.37,17.37,0,0,0-10-3.15Z" transform="translate(0 -25.99)"/>
    <path d="M382.59,361.86h0a14.1,14.1,0,0,1,11.19,5.59,10.93,10.93,0,0,1,1.14,1.8A14,14,0,0,1,394,383.8l-49.78,71.09a14.34,14.34,0,0,1-8.7,5.93,14,14,0,0,1-14.14-5.3,11.48,11.48,0,0,1-1.13-1.79,14,14,0,0,1,.93-14.55l50-71.38a14,14,0,0,1,11.44-5.94m0-3.49a17.42,17.42,0,0,0-14.3,7.43l-50,71.38a17.44,17.44,0,0,0,4.28,24.28h0a17.44,17.44,0,0,0,24.28-4.28l48.06-68.65c5.58-8,4.52-20.12-2.36-27h0a17.37,17.37,0,0,0-10-3.15Z" transform="translate(0 -25.99)"/>
    <path d="M498.07,214.42c0,44.79-36,81.09-80.43,81.09H398c.37-.7.78-1.43,1.11-2.17a82.93,82.93,0,0,0,7.21-20.82,82,82,0,0,0,1.72-16.84,84.48,84.48,0,0,0-51.79-77.76h0a79.3,79.3,0,0,0-8.77-3.12,84.06,84.06,0,0,0-20.86-3.48c-.65,0-1.27,0-1.92,0h-1.44c-2.29,0-4.58.08-6.84.29-1.35.08-2.7.24-4,.45-2.26.29-4.43.61-6.56,1.1-.37.09-.78.13-1.15.25-.08,0-.12,0-.2,0a108.82,108.82,0,0,0-4.75-14,113,113,0,0,0-44.87-52.73,2.06,2.06,0,0,1-.29-.17c-1.27-.77-2.54-1.51-3.85-2.25-.73-.41-1.47-.82-2.25-1.23-.33-.16-.62-.33-.94-.49a114,114,0,0,0-95.92-4.1,90.09,90.09,0,0,1,176.8,6.6,39.46,39.46,0,0,1,52.73,36.67v.49a79.32,79.32,0,0,1,36.5-8.85C462.06,133.38,498.07,169.68,498.07,214.42Z" transform="translate(0 -25.99)" style="fill:#e6e6e6"/>
    <path d="M409.12,255.31c0,46.61-38,84.39-84.81,84.39H74.17c-39,0-70.67-31.51-70.67-70.32a70.5,70.5,0,0,1,70.67-70.32,67.43,67.43,0,0,1,9,.59c1.24-61.07,51.37-110.21,113.05-110.21A113,113,0,0,1,305.54,173a84.24,84.24,0,0,1,18.77-2.11C371.13,170.93,409.12,208.7,409.12,255.31Z" transform="translate(0 -25.99)" style="fill:#e6e6e6"/>
    <path d="M498.07,214.07c0,44.79-36,81.09-80.43,81.09H399.45s0,0-.05,0a84.76,84.76,0,0,1-74.73,44.5H74.53c84.53,0,172.46-169.63,173-237.48v-.7a.14.14,0,0,0,.08,0,101.64,101.64,0,0,1,9.22,5.29h0c3-.29,20.73-38,20.73-70a90.43,90.43,0,0,1,50.81,67.85,39.46,39.46,0,0,1,52.73,36.67v.49A79.36,79.36,0,0,1,417.64,133C462.05,133,498.07,169.33,498.07,214.07Z" transform="translate(0 -25.99)" style="fill:#666;opacity:0.25"/>
    <path d="M498.07,214.42c0,44.79-36,81.09-80.43,81.09H398.88a1,1,0,0,1-.16.25,84.8,84.8,0,0,1-74.41,43.92H158c26.59-.9,263.17-18.85,241.29-103.25-15.2-58.55-72.81-61.67-93.75-56.75A38.79,38.79,0,0,0,288,189.43c0-3.32,12.45-14.09,16.67-16.06s13.29-2.8,19.73-2.8a84.81,84.81,0,0,1,84.71,84.75,80.41,80.41,0,0,1-.74,11c12.75-3.94,97.11-31.1,77.16-76.17-28.19-63.63-86.25-50-104.36-43.39-7.46,2.7-14,8.77-14,8.77.2-3.24,13-13.32,13.93-13.32a79.32,79.32,0,0,1,36.5-8.85C462.06,133.38,498.07,169.68,498.07,214.42Z" transform="translate(0 -25.99)" style="fill:#333;opacity:0.5"/>
    <path d="M417.28,130.72A82.14,82.14,0,0,0,383,138.25a41.8,41.8,0,0,0-53.09-36.54,92.35,92.35,0,0,0-180.67-4.79c-39.35,17.13-67.62,55.59-69.43,100.44a68.51,68.51,0,0,0-7-.35C32.62,197,0,229.47,0,269.38s32.62,72.36,72.73,72.36H322.86a87,87,0,0,0,75.78-44.3h18.64c45.61,0,82.72-37.41,82.72-83.38S462.89,130.72,417.28,130.72ZM322.86,337.65H72.73C34.88,337.65,4.1,307,4.1,269.38S34.88,201.1,72.73,201.1a66.59,66.59,0,0,1,8.74.58,2.08,2.08,0,0,0,1.61-.48,2,2,0,0,0,.71-1.51c.91-44.52,28.87-82.83,67.92-99.42.14,0,.28,0,.41,0A111.2,111.2,0,0,1,297.24,160a105.32,105.32,0,0,1,4.65,13.67,2.28,2.28,0,0,0,2.75,1.64c2.41-.57,15.82-2.06,18.24-2.06a82.18,82.18,0,0,1,23.58,3.43,79.16,79.16,0,0,1,8.51,3,1.57,1.57,0,0,0,.23.09,82,82,0,0,1,50.19,75.56A80.41,80.41,0,0,1,396.66,292c-.25.55-1.17,2.52-1.21,2.77A82.9,82.9,0,0,1,322.86,337.65Zm94.42-44.8h-15.9a84.77,84.77,0,0,0,8.6-37.54,86.63,86.63,0,0,0-53.19-79.88l-.24-.08a80.84,80.84,0,0,0-8.8-3.11,86.35,86.35,0,0,0-24.87-3.62c-2.56,0-15.22,1.32-17.14,1.71a112.73,112.73,0,0,0-4.26-12.14,115.79,115.79,0,0,0-146.9-63.86A87.34,87.34,0,0,1,239,30.58c42.9,0,80.22,32,86.81,74.47a2.29,2.29,0,0,0,3,1.81,37.32,37.32,0,0,1,12.54-2.16c20.47,0,37.13,16.45,37.13,36.67v.49a2.29,2.29,0,0,0,3.34,2,76.55,76.55,0,0,1,35.46-8.59c43.08,0,78.13,35.32,78.13,78.75S460.36,292.85,417.28,292.85Z" transform="translate(0 -25.99)"/>
    <polygon points="40.3 438.09 58.93 330.52 13.69 330.52 99.7 192.9 81.07 300.47 126.31 300.47 40.3 438.09" style="fill:#fcee21"/>
    <path d="M36.51,474l20-115.45H10L103.49,209l-20,115.45H130ZM17.37,354.47h44L44.09,454.16l78.54-125.65h-44l17.27-99.69Z" transform="translate(0 -25.99)"/>
</svg>