<svg xmlns="http://www.w3.org/2000/svg" viewBox="0 0 500 438.62">
    <rect x="124.99" y="355.19" width="34.86" height="121.99" rx="17.43" transform="translate(264.47 -37.11) rotate(35)" style="fill:#29abe2"/>
    <rect x="178.78" y="355.19" width="34.86" height="121.99" rx="17.43" transform="translate(274.2 -67.97) rotate(35)" style="fill:#29abe2"/>
    <rect x="232.57" y="355.19" width="34.86" height="121.99" rx="17.43" transform="translate(283.93 -98.82) rotate(35)" style="fill:#29abe2"/>
    <rect x="286.36" y="355.19" width="34.86" height="121.99" rx="17.43" transform="translate(293.66 -129.67) rotate(35)" style="fill:#29abe2"/>
    <rect x="340.15" y="355.19" width="34.86" height="121.99" rx="17.43" transform="translate(303.38 -160.52) rotate(35)" style="fill:#29abe2"/>
    <path d="M167.43,366.56h0a13.94,13.94,0,0,1,11.4,21.94l-50,71.38a13.94,13.94,0,1,1-22.84-16l50-71.38a14,14,0,0,1,11.44-5.94m0-3.49a17.42,17.42,0,0,0-14.3,7.43l-50,71.38a17.43,17.43,0,0,0,28.56,20l50-71.38a17.44,17.44,0,0,0-4.28-24.28h0a17.37,17.37,0,0,0-10-3.15Z" transform="translate(0 -30.69)"/>
    <path d="M221.22,366.56h0a13.94,13.94,0,0,1,11.4,21.94l-50,71.38a13.94,13.94,0,0,1-25.15-5.58,13.82,13.82,0,0,1,2.31-10.42l50-71.38a14,14,0,0,1,11.44-5.94m0-3.49a17.42,17.42,0,0,0-14.3,7.43l-50,71.38a17.43,17.43,0,0,0,4.28,24.27h0a17.42,17.42,0,0,0,24.28-4.27l50-71.38a17.44,17.44,0,0,0-4.28-24.28h0a17.37,17.37,0,0,0-10-3.15Z" transform="translate(0 -30.69)"/>
    <path d="M275,366.56h0a13.94,13.94,0,0,1,11.4,21.94l-50,71.38a13.94,13.94,0,1,1-22.84-16l50-71.38A14,14,0,0,1,275,366.56m0-3.49a17.42,17.42,0,0,0-14.3,7.43l-50,71.38A17.43,17.43,0,0,0,215,466.15h0a17.42,17.42,0,0,0,24.28-4.27l50-71.38A17.44,17.44,0,0,0,285,366.22h0a17.37,17.37,0,0,0-10-3.15Z" transform="translate(0 -30.69)"/>
    <path d="M328.8,366.56h0a13.94,13.94,0,0,1,11.4,21.94l-50,71.38a13.94,13.94,0,1,1-22.84-16l50-71.38a14,14,0,0,1,11.44-5.94m0-3.49a17.42,17.42,0,0,0-14.3,7.43l-50,71.38a17.43,17.43,0,0,0,28.56,20l50-71.38a17.44,17.44,0,0,0-4.28-24.28h0a17.37,17.37,0,0,0-10-3.15Z" transform="translate(0 -30.69)"/>
    <path d="M382.59,366.56h0A13.94,13.94,0,0,1,394,388.5l-50,71.38a13.94,13.94,0,0,1-25.15-5.58,13.82,13.82,0,0,1,2.31-10.42l50-71.38a14,14,0,0,1,11.44-5.94m0-3.49a17.42,17.42,0,0,0-14.3,7.43l-50,71.38a17.43,17.43,0,0,0,4.28,24.27h0a17.42,17.42,0,0,0,24.28-4.27l50-71.38a17.44,17.44,0,0,0-4.28-24.28h0a17.37,17.37,0,0,0-10-3.15Z" transform="translate(0 -30.69)"/>
    <path d="M498.07,219.12c0,44.79-36,81.09-80.43,81.09H398c.37-.7.78-1.44,1.11-2.17a82.93,82.93,0,0,0,7.21-20.82,82,82,0,0,0,1.72-16.84,84.48,84.48,0,0,0-51.79-77.76h0a79.3,79.3,0,0,0-8.77-3.12A84.06,84.06,0,0,0,326.6,176c-.65,0-1.27,0-1.92,0h-1.44c-2.29,0-4.58.08-6.84.29-1.35.08-2.7.24-4,.45a64.55,64.55,0,0,0-6.56,1.1c-.37.09-.78.13-1.15.25-.08,0-.12,0-.2,0a108.82,108.82,0,0,0-4.75-14,113,113,0,0,0-44.87-52.73,2.06,2.06,0,0,1-.29-.17c-1.27-.78-2.54-1.51-3.85-2.25-.73-.41-1.47-.82-2.25-1.23-.33-.16-.62-.33-.94-.49a114,114,0,0,0-95.92-4.1,90.09,90.09,0,0,1,176.8,6.6,39.46,39.46,0,0,1,52.73,36.67v.49a79.32,79.32,0,0,1,36.5-8.85C462.06,138.08,498.07,174.38,498.07,219.12Z" transform="translate(0 -30.69)" style="fill:#e6e6e6"/>
    <path d="M409.12,260c0,46.61-38,84.38-84.81,84.38H74.17c-39,0-70.67-31.5-70.67-70.32a70.51,70.51,0,0,1,70.67-70.32,67.43,67.43,0,0,1,9,.6c1.24-61.07,51.37-110.21,113.05-110.21a113,113,0,0,1,109.3,83.6,84.24,84.24,0,0,1,18.77-2.11C371.13,175.63,409.12,213.4,409.12,260Z" transform="translate(0 -30.69)" style="fill:#e6e6e6"/>
    <path d="M498.07,218.77c0,44.79-36,81.09-80.43,81.09H399.45s0,0-.05,0a84.76,84.76,0,0,1-74.73,44.49H74.53c84.53,0,172.46-169.62,173-237.47v-.7a.14.14,0,0,0,.08,0,101.64,101.64,0,0,1,9.22,5.29h0c3-.29,20.73-38,20.73-70a90.42,90.42,0,0,1,50.81,67.85,39.46,39.46,0,0,1,52.73,36.67v.49a79.24,79.24,0,0,1,36.51-8.85C462.05,137.73,498.07,174,498.07,218.77Z" transform="translate(0 -30.69)" style="fill:#666;opacity:0.25"/>
    <path d="M498.07,219.12c0,44.79-36,81.09-80.43,81.09H398.88a.84.84,0,0,1-.16.24,84.79,84.79,0,0,1-74.41,43.93H158c26.59-.91,263.17-18.85,241.29-103.25-15.2-58.55-72.81-61.67-93.75-56.75A38.79,38.79,0,0,0,288,194.13c0-3.32,12.45-14.09,16.67-16.06s13.29-2.8,19.73-2.8A84.81,84.81,0,0,1,409.12,260a80.45,80.45,0,0,1-.74,11c12.75-3.94,97.11-31.1,77.16-76.17-28.19-63.63-86.25-50-104.36-43.39-7.46,2.7-14,8.77-14,8.77.2-3.24,13-13.32,13.93-13.32a79.32,79.32,0,0,1,36.5-8.85C462.06,138.08,498.07,174.38,498.07,219.12Z" transform="translate(0 -30.69)" style="fill:#333;opacity:0.5"/>
    <path d="M417.28,135.42A82.28,82.28,0,0,0,383,142.94a41.8,41.8,0,0,0-53.09-36.53,92.35,92.35,0,0,0-180.67-4.79c-39.35,17.13-67.62,55.59-69.43,100.43-2.32-.23-4.68-.34-7-.34C32.62,201.71,0,234.17,0,274.07s32.62,72.37,72.73,72.37H322.86a86.94,86.94,0,0,0,75.78-44.31h18.64c45.61,0,82.72-37.4,82.72-83.37S462.89,135.42,417.28,135.42ZM322.86,342.34H72.73c-37.85,0-68.63-30.62-68.63-68.27S34.88,205.8,72.73,205.8a66.59,66.59,0,0,1,8.74.58,2.08,2.08,0,0,0,1.61-.48,2,2,0,0,0,.71-1.51c.91-44.52,28.87-82.83,67.92-99.42.14,0,.28,0,.41,0a111.2,111.2,0,0,1,145.12,59.74,105.32,105.32,0,0,1,4.65,13.67,2.28,2.28,0,0,0,2.75,1.64c2.41-.57,15.82-2.07,18.24-2.07a82.19,82.19,0,0,1,23.58,3.44,79.16,79.16,0,0,1,8.51,3l.23.08A82,82,0,0,1,405.39,260a80.41,80.41,0,0,1-8.73,36.73c-.25.55-1.17,2.52-1.21,2.77A82.89,82.89,0,0,1,322.86,342.34Zm94.42-44.79h-15.9A84.77,84.77,0,0,0,410,260a86.63,86.63,0,0,0-53.19-79.88l-.24-.08a80.84,80.84,0,0,0-8.8-3.11,86.35,86.35,0,0,0-24.87-3.62c-2.56,0-15.22,1.32-17.14,1.71a112,112,0,0,0-4.26-12.14A115.82,115.82,0,0,0,154.58,99,87.35,87.35,0,0,1,239,35.28c42.9,0,80.22,32,86.81,74.47a2.29,2.29,0,0,0,3,1.81,37.32,37.32,0,0,1,12.54-2.16c20.47,0,37.13,16.45,37.13,36.67v.49a2.29,2.29,0,0,0,3.34,2A76.55,76.55,0,0,1,417.28,140c43.08,0,78.13,35.32,78.13,78.75S460.36,297.55,417.28,297.55Z" transform="translate(0 -30.69)"/>
</svg>