<svg xmlns="http://www.w3.org/2000/svg" viewBox="0 0 500 315.75">
    <path d="M498.07,280.56c0,44.78-36,81.08-80.43,81.08H398c.37-.7.78-1.43,1.11-2.17a84.24,84.24,0,0,0,8.93-37.65,84.49,84.49,0,0,0-51.79-77.77h0a79.25,79.25,0,0,0-8.77-3.11,83.61,83.61,0,0,0-20.86-3.49c-.65,0-1.27,0-1.92,0h-1.44c-2.29,0-4.58.08-6.84.29-1.35.08-2.7.25-4,.45a64.54,64.54,0,0,0-6.56,1.11c-.37.08-.78.12-1.15.24-.08,0-.12,0-.2,0a108.82,108.82,0,0,0-4.75-14,113,113,0,0,0-44.87-52.73l-.29-.16c-1.27-.78-2.54-1.52-3.85-2.26-.73-.41-1.47-.82-2.25-1.23-.33-.16-.62-.32-.94-.49a114,114,0,0,0-95.92-4.1,90.09,90.09,0,0,1,176.8,6.6,39.75,39.75,0,0,1,13.31-2.29c21.76,0,39.42,17.45,39.42,39v.49a79.32,79.32,0,0,1,36.5-8.85C462.06,199.51,498.07,235.81,498.07,280.56Z" transform="translate(0 -92.13)" style="fill:#e6e6e6"/>
    <path d="M409.12,321.44c0,46.61-38,84.39-84.81,84.39H74.17c-39,0-70.67-31.51-70.67-70.32a70.5,70.5,0,0,1,70.67-70.32,67.43,67.43,0,0,1,9,.59c1.24-61.07,51.37-110.21,113.05-110.21a113,113,0,0,1,109.3,83.6,84.24,84.24,0,0,1,18.77-2.11C371.13,237.06,409.12,274.84,409.12,321.44Z" transform="translate(0 -92.13)" style="fill:#e6e6e6"/>
    <path d="M498.07,280.21c0,44.78-36,81.08-80.43,81.08H399.45s0,0-.05,0a84.76,84.76,0,0,1-74.73,44.5H74.53c84.53,0,172.46-169.63,173-237.48v-.7a.14.14,0,0,0,.08,0,101.64,101.64,0,0,1,9.22,5.29h0c3-.29,20.73-38,20.73-70a90.45,90.45,0,0,1,50.81,67.85,39.48,39.48,0,0,1,52.73,36.67V208a79.36,79.36,0,0,1,36.51-8.85C462.05,199.16,498.07,235.46,498.07,280.21Z" transform="translate(0 -92.13)" style="fill:#666;opacity:0.25"/>
    <path d="M498.07,280.56c0,44.78-36,81.08-80.43,81.08H398.88a1,1,0,0,1-.16.25,84.8,84.8,0,0,1-74.41,43.92H158c26.59-.9,263.17-18.85,241.29-103.25-15.2-58.55-72.81-61.66-93.75-56.75A38.79,38.79,0,0,0,288,255.56c0-3.32,12.45-14.09,16.67-16.06s13.29-2.8,19.73-2.8a84.81,84.81,0,0,1,84.71,84.75,80.31,80.31,0,0,1-.74,11c12.75-3.93,97.11-31.1,77.16-76.17-28.19-63.63-86.25-50-104.36-43.39-7.46,2.71-14,8.77-14,8.77.2-3.24,13-13.32,13.93-13.32a79.32,79.32,0,0,1,36.5-8.85C462.06,199.51,498.07,235.81,498.07,280.56Z" transform="translate(0 -92.13)" style="fill:#333;opacity:0.5"/>
    <path d="M417.28,196.85A82.14,82.14,0,0,0,383,204.38a41.8,41.8,0,0,0-53.09-36.54,92.35,92.35,0,0,0-180.67-4.79c-39.35,17.14-67.62,55.59-69.43,100.44-2.32-.23-4.68-.35-7-.35C32.62,263.14,0,295.6,0,335.51s32.62,72.36,72.73,72.36H322.86a87,87,0,0,0,75.78-44.3h18.64c45.61,0,82.72-37.41,82.72-83.38S462.89,196.85,417.28,196.85ZM322.86,403.78H72.73c-37.85,0-68.63-30.63-68.63-68.27s30.78-68.27,68.63-68.27a66.59,66.59,0,0,1,8.74.57,2,2,0,0,0,2.32-2c.91-44.52,28.87-82.83,67.92-99.41a2.7,2.7,0,0,0,.41,0,111.17,111.17,0,0,1,145.12,59.73,105.32,105.32,0,0,1,4.65,13.67,2.3,2.3,0,0,0,2.75,1.65c2.41-.58,15.82-2.07,18.24-2.07a82.18,82.18,0,0,1,23.58,3.43,77.16,77.16,0,0,1,8.51,3l.23.08a82,82,0,0,1,50.19,75.57,80.34,80.34,0,0,1-8.73,36.72c-.25.55-1.17,2.52-1.21,2.77A82.9,82.9,0,0,1,322.86,403.78ZM417.28,359h-15.9a84.75,84.75,0,0,0,8.6-37.53,86.62,86.62,0,0,0-53.19-79.88l-.24-.09a80.84,80.84,0,0,0-8.8-3.11,86.7,86.7,0,0,0-24.87-3.62c-2.56,0-15.22,1.32-17.14,1.71a111.81,111.81,0,0,0-4.26-12.13,115.82,115.82,0,0,0-146.9-63.87A87.36,87.36,0,0,1,239,96.71c42.9,0,80.22,32,86.81,74.48a2.34,2.34,0,0,0,1.09,1.62,2.38,2.38,0,0,0,1.95.19,37.08,37.08,0,0,1,12.54-2.17c20.47,0,37.13,16.45,37.13,36.67V208a2.29,2.29,0,0,0,3.34,2,76.55,76.55,0,0,1,35.46-8.59c43.08,0,78.13,35.32,78.13,78.75S460.36,359,417.28,359Z" transform="translate(0 -92.13)"/>
</svg>