<svg xmlns="http://www.w3.org/2000/svg" viewBox="0 0 500 310.39">
    <path d="M497.5,299.73c0,56.85-46.35,103-103.5,103H88.75c-47.6,0-86.25-38.4-86.25-85.8s38.65-85.8,86.25-85.8a89,89,0,0,1,11,.7c1.5-74.5,62.7-134.45,138-134.45a138,138,0,0,1,133.4,102,102.08,102.08,0,0,1,22.9-2.6C451.15,196.73,497.5,242.83,497.5,299.73Z" transform="translate(0 -94.8)" style="fill:#e6e6e6"/>
    <path d="M497.5,299.73c0,56.85-46.35,103-103.5,103H88.75c103.45,0,211.1-208.25,211.1-290.55V112a137.72,137.72,0,0,1,71.25,87.3,102.08,102.08,0,0,1,22.9-2.6C451.15,196.73,497.5,242.83,497.5,299.73Z" transform="translate(0 -94.8)" style="fill:#666;opacity:0.25"/>
    <path d="M497.5,299.73c0,56.85-46.35,103-103.5,103H191c32.45-1.1,321.16-23.05,294.45-126-18.54-71.47-88.83-75.3-114.4-69.25a46.9,46.9,0,0,0-21.35,11.9c0-4.4,17.8-19.4,21.4-20a102.08,102.08,0,0,1,22.9-2.6C451.15,196.73,497.5,242.83,497.5,299.73Z" transform="translate(0 -94.8)" style="fill:#333;opacity:0.5"/>
    <path d="M394,405.2H88.75C39.81,405.2,0,365.58,0,316.88s39.81-88.31,88.75-88.31c2.88,0,5.75.14,8.59.42,3-74.24,65.39-134.19,140.38-134.19,62.88,0,118.11,41.65,135.16,101.58A105.47,105.47,0,0,1,394,194.24c58.45,0,106,47.32,106,105.48S452.45,405.2,394,405.2ZM88.75,233.57C42.57,233.57,5,270.94,5,316.88S42.57,400.2,88.75,400.2H394c55.69,0,101-45.08,101-100.48S449.69,199.24,394,199.24a100.64,100.64,0,0,0-22.35,2.52,2.51,2.51,0,0,1-3-1.8C353,141,299.13,99.8,237.72,99.8c-73.22,0-134,59.23-135.47,132a2.5,2.5,0,0,1-.87,1.85,2.54,2.54,0,0,1-2,.58A80.12,80.12,0,0,0,88.75,233.57Z" transform="translate(0 -94.8)"/>
</svg>