<svg xmlns="http://www.w3.org/2000/svg" viewBox="0 0 500 472.33">
    <rect x="128.7" y="339.28" width="34.51" height="120.79" rx="17.26" transform="translate(255.64 -25.28) rotate(35)" style="fill:#29abe2"/>
    <rect x="181.96" y="339.28" width="34.51" height="120.79" rx="17.26" transform="translate(265.27 -55.82) rotate(35)" style="fill:#29abe2"/>
    <rect x="235.22" y="339.28" width="34.51" height="120.79" rx="17.26" transform="translate(274.9 -86.37) rotate(35)" style="fill:#29abe2"/>
    <rect x="288.48" y="339.28" width="34.51" height="120.79" rx="17.26" transform="translate(284.53 -116.92) rotate(35)" style="fill:#29abe2"/>
    <rect x="341.74" y="339.28" width="34.51" height="120.79" rx="17.26" transform="translate(294.16 -147.47) rotate(35)" style="fill:#29abe2"/>
    <path d="M170.72,350.53h0A13.8,13.8,0,0,1,182,372.25l-49.49,70.67a13.82,13.82,0,0,1-11.32,5.89,13.81,13.81,0,0,1-11.29-21.72l49.49-70.68a13.83,13.83,0,0,1,11.32-5.88m0-3.45a17.23,17.23,0,0,0-14.15,7.35l-49.49,70.68a17.25,17.25,0,1,0,28.27,19.79l49.49-70.67a17.25,17.25,0,0,0-4.24-24h0a17.15,17.15,0,0,0-9.88-3.12Z" transform="translate(0 -13.84)"/>
    <path d="M224,350.53h0a13.81,13.81,0,0,1,11.29,21.72l-49.49,70.67a13.82,13.82,0,0,1-11.32,5.89,13.8,13.8,0,0,1-11.29-21.72l49.48-70.68A13.85,13.85,0,0,1,224,350.53m0-3.45a17.23,17.23,0,0,0-14.15,7.35l-49.49,70.68a17.25,17.25,0,0,0,4.24,24h0a17.25,17.25,0,0,0,24-4.24l49.49-70.67a17.26,17.26,0,0,0-4.24-24h0a17.17,17.17,0,0,0-9.88-3.12Z" transform="translate(0 -13.84)"/>
    <path d="M277.23,350.53h0a13.81,13.81,0,0,1,11.3,21.72L239,442.92a13.8,13.8,0,0,1-22.62-15.83l49.49-70.68a13.85,13.85,0,0,1,11.32-5.88m0-3.45a17.24,17.24,0,0,0-14.15,7.35L213.6,425.11a17.25,17.25,0,0,0,4.24,24h0a17.25,17.25,0,0,0,24-4.24l49.48-70.67a17.25,17.25,0,0,0-4.23-24h0a17.2,17.2,0,0,0-9.89-3.12Z" transform="translate(0 -13.84)"/>
    <path d="M330.49,350.53h0a13.8,13.8,0,0,1,11.29,21.72L292.3,442.92A13.83,13.83,0,0,1,281,448.81a13.81,13.81,0,0,1-11.29-21.72l49.49-70.68a13.83,13.83,0,0,1,11.32-5.88m0-3.45a17.24,17.24,0,0,0-14.15,7.35l-49.48,70.68a17.25,17.25,0,1,0,28.26,19.79l49.49-70.67a17.25,17.25,0,0,0-4.24-24h0a17.15,17.15,0,0,0-9.88-3.12Z" transform="translate(0 -13.84)"/>
    <path d="M383.75,350.53h0A13.8,13.8,0,0,1,395,372.25l-49.48,70.67a13.85,13.85,0,0,1-11.33,5.89,13.8,13.8,0,0,1-11.29-21.72l49.49-70.68a13.83,13.83,0,0,1,11.32-5.88m0-3.45a17.24,17.24,0,0,0-14.15,7.35l-49.49,70.68a17.26,17.26,0,0,0,4.24,24h0a17.25,17.25,0,0,0,24-4.24l49.49-70.67a17.25,17.25,0,0,0-4.24-24h0a17.15,17.15,0,0,0-9.88-3.12Z" transform="translate(0 -13.84)"/>
    <path d="M497.52,216.73c0,56.29-45.89,101.93-102.47,101.93H92.82c-47.13,0-85.39-38-85.39-85s38.26-85,85.39-85a89.06,89.06,0,0,1,10.89.69C105.2,75.69,165.79,16.33,240.3,16.33a136.67,136.67,0,0,1,132.08,101,101.19,101.19,0,0,1,22.67-2.57C451.63,114.75,497.52,160.39,497.52,216.73Z" transform="translate(0 -13.84)" style="fill:#e6e6e6"/>
    <path d="M497.52,216.73c0,56.29-45.89,101.93-102.47,101.93H92.82c102.43,0,209-206.19,209-287.67v-.1a136.36,136.36,0,0,1,70.55,86.43,101.19,101.19,0,0,1,22.67-2.57C451.63,114.75,497.52,160.39,497.52,216.73Z" transform="translate(0 -13.84)" style="fill:#666;opacity:0.25"/>
    <path d="M497.52,216.73c0,56.29-45.89,101.93-102.47,101.93h-201c32.13-1.09,318-22.82,291.53-124.75-18.35-70.76-87.95-74.55-113.26-68.57a46.46,46.46,0,0,0-21.14,11.79c0-4.36,17.62-19.21,21.19-19.81a101.19,101.19,0,0,1,22.67-2.57C451.63,114.75,497.52,160.39,497.52,216.73Z" transform="translate(0 -13.84)" style="fill:#333;opacity:0.5"/>
    <path d="M395.05,321.16H92.82C44.37,321.16,5,281.93,5,233.72s39.42-87.44,87.87-87.44c2.85,0,5.7.14,8.5.42,3-73.51,64.75-132.86,139-132.86,62.26,0,117,41.23,133.82,100.57a104.28,104.28,0,0,1,20.92-2.12c57.87,0,105,46.85,105,104.43S452.92,321.16,395.05,321.16ZM92.82,151.23c-45.72,0-82.92,37-82.92,82.49s37.2,82.49,82.92,82.49H395.05c55.14,0,100-44.63,100-99.49s-44.86-99.48-100-99.48a99.84,99.84,0,0,0-22.13,2.49A2.49,2.49,0,0,1,370,118c-15.54-58.38-68.86-99.16-129.67-99.16-72.48,0-132.65,58.64-134.12,130.73a2.49,2.49,0,0,1-.86,1.83,2.54,2.54,0,0,1-1.94.57A80.31,80.31,0,0,0,92.82,151.23Z" transform="translate(0 -13.84)"/>
    <polygon points="37.5 460.05 60.56 326.92 4.57 326.92 111.02 156.6 87.96 289.72 143.95 289.72 37.5 460.05" style="fill:#fcee21"/>
    <path d="M32.81,486.16,57.55,343.28H0L115.71,158.15,91,301h57.55ZM9.13,338.22H63.56L42.19,461.6l97.2-155.51H85l21.37-123.38Z" transform="translate(0 -13.84)"/>
</svg>