<svg xmlns="http://www.w3.org/2000/svg" viewBox="0 0 500 423.49">
    <rect x="113.93" y="368.99" width="48.57" height="97.15" rx="24.29" transform="translate(264.5 -42.02) rotate(35)" style="fill:#29abe2"/>
    <rect x="225.71" y="368.99" width="48.57" height="97.15" rx="24.29" transform="translate(284.72 -106.13) rotate(35)" style="fill:#29abe2"/>
    <rect x="337.49" y="368.99" width="48.57" height="97.15" rx="24.29" transform="translate(304.93 -170.25) rotate(35)" style="fill:#29abe2"/>
    <path d="M152.17,378.23h0a19.43,19.43,0,0,1,15.9,30.58L140.21,448.6a19.43,19.43,0,1,1-31.84-22.29l27.87-39.79a19.46,19.46,0,0,1,15.93-8.29m0-4.85a24.25,24.25,0,0,0-19.91,10.36l-27.87,39.79a24.29,24.29,0,1,0,39.79,27.86l27.87-39.79a24.3,24.3,0,0,0-6-33.83h0a24.17,24.17,0,0,0-13.91-4.39Z" transform="translate(0 -38.25)"/>
    <path d="M264,378.23h0a19.43,19.43,0,0,1,15.9,30.58L252,448.6a19.43,19.43,0,1,1-31.84-22.29L248,386.52A19.49,19.49,0,0,1,264,378.23m0-4.85A24.25,24.25,0,0,0,244,383.74l-27.87,39.79a24.28,24.28,0,0,0,6,33.82h0a24.26,24.26,0,0,0,33.82-6l27.87-39.79a24.3,24.3,0,0,0-6-33.83h0A24.17,24.17,0,0,0,264,373.38Z" transform="translate(0 -38.25)"/>
    <path d="M375.73,378.23h0a19.43,19.43,0,0,1,15.9,30.58L363.76,448.6a19.43,19.43,0,1,1-31.83-22.29l27.86-39.79a19.49,19.49,0,0,1,15.94-8.29m0-4.85a24.25,24.25,0,0,0-19.91,10.36L328,423.53a24.29,24.29,0,1,0,39.79,27.86l27.87-39.79a24.3,24.3,0,0,0-6-33.83h0a24.17,24.17,0,0,0-13.91-4.39Z" transform="translate(0 -38.25)"/>
    <path d="M498.07,226.69c0,44.78-36,81.08-80.43,81.08H398c.37-.7.78-1.43,1.11-2.17a82.93,82.93,0,0,0,7.21-20.82,82,82,0,0,0,1.72-16.84,84.49,84.49,0,0,0-51.79-77.76h0a81.4,81.4,0,0,0-8.77-3.12,84.06,84.06,0,0,0-20.86-3.48c-.65,0-1.27,0-1.92,0h-1.44c-2.29,0-4.58.08-6.84.29-1.35.08-2.7.24-4,.45a64.54,64.54,0,0,0-6.56,1.11c-.37.08-.78.12-1.15.24-.08,0-.12,0-.2,0a108.82,108.82,0,0,0-4.75-14A113,113,0,0,0,254.86,119a2.06,2.06,0,0,1-.29-.17c-1.27-.77-2.54-1.51-3.85-2.25-.73-.41-1.47-.82-2.25-1.23-.33-.16-.62-.33-.94-.49a114,114,0,0,0-95.92-4.1,90.09,90.09,0,0,1,176.8,6.6A39.5,39.5,0,0,1,341.72,115c21.76,0,39.42,17.45,39.42,39v.49a79.32,79.32,0,0,1,36.5-8.85C462.06,145.64,498.07,181.94,498.07,226.69Z" transform="translate(0 -38.25)" style="fill:#e6e6e6"/>
    <path d="M409.12,267.57c0,46.61-38,84.39-84.81,84.39H74.17c-39,0-70.67-31.51-70.67-70.32a70.5,70.5,0,0,1,70.67-70.32,67.43,67.43,0,0,1,9,.59c1.24-61.07,51.37-110.21,113.05-110.21a113,113,0,0,1,109.3,83.6,84.24,84.24,0,0,1,18.77-2.11C371.13,183.19,409.12,221,409.12,267.57Z" transform="translate(0 -38.25)" style="fill:#e6e6e6"/>
    <path d="M498.07,226.33c0,44.79-36,81.09-80.43,81.09H399.45s0,0-.05,0A84.76,84.76,0,0,1,324.67,352H74.53c84.53,0,172.46-169.63,173-237.48v-.7a.14.14,0,0,0,.08,0,101.64,101.64,0,0,1,9.22,5.29h0c3-.29,20.73-38,20.73-70A90.43,90.43,0,0,1,328.4,117a39.46,39.46,0,0,1,52.73,36.67v.49a79.36,79.36,0,0,1,36.51-8.85C462.05,145.29,498.07,181.59,498.07,226.33Z" transform="translate(0 -38.25)" style="fill:#666;opacity:0.25"/>
    <path d="M498.07,226.69c0,44.78-36,81.08-80.43,81.08H398.88a1,1,0,0,1-.16.25,84.8,84.8,0,0,1-74.41,43.92H158c26.59-.9,263.17-18.85,241.29-103.25-15.2-58.55-72.81-61.67-93.75-56.75A38.79,38.79,0,0,0,288,201.69c0-3.32,12.45-14.09,16.67-16.06s13.29-2.8,19.73-2.8a84.81,84.81,0,0,1,84.71,84.75,80.41,80.41,0,0,1-.74,11c12.75-3.94,97.11-31.1,77.16-76.17-28.19-63.63-86.25-50-104.36-43.39-7.46,2.7-14,8.77-14,8.77.2-3.24,13-13.32,13.93-13.32a79.32,79.32,0,0,1,36.5-8.85C462.06,145.64,498.07,181.94,498.07,226.69Z" transform="translate(0 -38.25)" style="fill:#333;opacity:0.5"/>
    <path d="M417.28,143A82.14,82.14,0,0,0,383,150.51,41.8,41.8,0,0,0,329.86,114a92.35,92.35,0,0,0-180.67-4.79c-39.35,17.13-67.62,55.59-69.43,100.44a68.51,68.51,0,0,0-7-.35C32.62,209.27,0,241.73,0,281.64S32.62,354,72.73,354H322.86a87,87,0,0,0,75.78-44.3h18.64c45.61,0,82.72-37.41,82.72-83.38S462.89,143,417.28,143ZM322.86,349.91H72.73c-37.85,0-68.63-30.63-68.63-68.27s30.78-68.28,68.63-68.28a66.59,66.59,0,0,1,8.74.58,2.08,2.08,0,0,0,1.61-.48,2,2,0,0,0,.71-1.51c.91-44.52,28.87-82.83,67.92-99.42.14,0,.28,0,.41,0a111.2,111.2,0,0,1,145.12,59.74,105.32,105.32,0,0,1,4.65,13.67,2.28,2.28,0,0,0,2.75,1.64c2.41-.57,15.82-2.06,18.24-2.06a82.18,82.18,0,0,1,23.58,3.43,79.16,79.16,0,0,1,8.51,3,1.57,1.57,0,0,0,.23.09,82,82,0,0,1,50.19,75.57,80.37,80.37,0,0,1-8.73,36.72c-.25.55-1.17,2.52-1.21,2.77A82.9,82.9,0,0,1,322.86,349.91Zm94.42-44.8h-15.9a84.75,84.75,0,0,0,8.6-37.53,86.64,86.64,0,0,0-53.19-79.89l-.24-.08a80.84,80.84,0,0,0-8.8-3.11,86.7,86.7,0,0,0-24.87-3.62c-2.56,0-15.22,1.32-17.14,1.71a112.73,112.73,0,0,0-4.26-12.14,115.79,115.79,0,0,0-146.9-63.86A87.34,87.34,0,0,1,239,42.84c42.9,0,80.22,32,86.81,74.47a2.29,2.29,0,0,0,3,1.81A37.32,37.32,0,0,1,341.35,117c20.47,0,37.13,16.45,37.13,36.67v.49a2.29,2.29,0,0,0,3.34,2,76.55,76.55,0,0,1,35.46-8.59c43.08,0,78.13,35.32,78.13,78.75S460.36,305.11,417.28,305.11Z" transform="translate(0 -38.25)"/>
</svg>