<svg xmlns="http://www.w3.org/2000/svg" viewBox="0 0 500 375.18">
    <path d="M275.06,203.69a136.18,136.18,0,0,1-97.55,128.19,134.25,134.25,0,0,1-38.6,5.62A136.23,136.23,0,0,1,3.19,212.69c-.36-3.75-.5-7.56-.5-11.44a136.09,136.09,0,0,1,91-128.41,132.94,132.94,0,0,1,40.89-7.63c.72-.07,1.44-.07,2.08-.07A108.95,108.95,0,1,0,275.06,203.69Z" transform="translate(0 -62.41)" style="fill:#29abe2"/>
    <path d="M177.51,331.81v.07a134.25,134.25,0,0,1-38.6,5.62A136.23,136.23,0,0,1,3.19,212.69c-.36-3.75-.5-7.56-.5-11.44a136.09,136.09,0,0,1,91-128.41,132.94,132.94,0,0,1,40.89-7.63c-10.6.44-31.89,4.56-41,9-16.74,8.12-38.7,26.53-50.07,41.94C30,134.4,23.21,159.8,22.34,180.88c-1.39,33.82,3.08,60.23,19,85.05,12.48,19.52,35.54,45.54,76.48,61.28C145.57,335.91,168,332.6,177.51,331.81Z" transform="translate(0 -62.41)" style="fill:#e6e6e6;opacity:0.2"/>
    <path d="M93.72,72.84C65.57,90,55.26,99.6,43.44,113.84s-22.26,36-24.42,61.64C17.13,198,8.85,212.69,3.19,212.69c-.36-3.75-.5-7.56-.5-11.44A136.09,136.09,0,0,1,93.72,72.84Z" transform="translate(0 -62.41)" style="fill:#f2f2f2;opacity:0.2"/>
    <polygon points="188.38 33.72 192.23 10.34 196.08 33.72 219.46 37.57 196.08 41.42 192.23 64.8 188.38 41.42 164.99 37.57 188.38 33.72" style="fill:#29abe2"/>
    <polygon points="225.91 59.81 228.22 45.78 230.53 59.81 244.56 62.12 230.53 64.43 228.22 78.46 225.91 64.43 211.88 62.12 225.91 59.81" style="fill:#29abe2"/>
    <polygon points="205.19 80.7 206.73 71.35 208.27 80.7 217.63 82.25 208.27 83.79 206.73 93.14 205.19 83.79 195.84 82.25 205.19 80.7" style="fill:#29abe2"/>
    <path d="M275.53,201a2.59,2.59,0,0,0-.48,0,2.72,2.72,0,0,0-2.57,1.83A106.23,106.23,0,1,1,137.57,67.71a2.72,2.72,0,0,0-.88-5.3h-.05C61.3,63.61,0,125.9,0,201.28c0,76.59,62.32,138.91,138.91,138.91,75.28,0,137.58-61.22,138.87-136.46A2.72,2.72,0,0,0,275.53,201ZM138.91,337.46a136.17,136.17,0,0,1-2.22-272.33A108.95,108.95,0,1,0,275.05,203.68,136.14,136.14,0,0,1,138.91,337.46Z" transform="translate(0 -62.41)"/>
    <path d="M164.55,102.67,186,106.2l3.53,21.46a2.72,2.72,0,0,0,5.37,0l3.54-21.46,21.45-3.53a2.73,2.73,0,0,0,0-5.38l-21.45-3.53L194.91,72.3a2.72,2.72,0,0,0-5.37,0L186,93.76l-21.46,3.53a2.73,2.73,0,0,0,0,5.38Zm23.83-6.54,3.85-23.38,3.85,23.38L219.46,100l-23.38,3.85-3.85,23.38-3.85-23.38L165,100Z" transform="translate(0 -62.41)"/>
    <path d="M209.16,124.53a2.71,2.71,0,0,0,2.28,2.68l12.1,2,2,12.1a2.73,2.73,0,0,0,5.38,0l2-12.1,12.1-2a2.72,2.72,0,0,0,0-5.37l-12.1-2-2-12.11a2.73,2.73,0,0,0-5.38,0l-2,12.11-12.1,2A2.72,2.72,0,0,0,209.16,124.53Zm16.75-2.31,2.31-14,2.31,14,14,2.31-14,2.31-2.31,14-2.31-14-14-2.31Z" transform="translate(0 -62.41)"/>
    <path d="M210.64,140.74l-1.22-7.42a2.73,2.73,0,0,0-5.38,0l-1.22,7.42L195.4,142a2.72,2.72,0,0,0,0,5.37l7.42,1.22L204,156a2.73,2.73,0,0,0,5.38,0l1.22-7.43,7.43-1.22a2.72,2.72,0,0,0,0-5.37Zm-2.37,5.46-1.54,9.35-1.54-9.35-9.35-1.55,9.35-1.54,1.54-9.35,1.54,9.35,9.35,1.54Z" transform="translate(0 -62.41)"/>
    <path d="M497.69,339.93c0,52.64-42.92,95.33-95.84,95.33H119.21c-44.07,0-79.86-35.56-79.86-79.45s35.79-79.44,79.86-79.44a81.87,81.87,0,0,1,10.19.65c1.39-69,58-124.49,127.73-124.49A127.78,127.78,0,0,1,380.65,247a94.7,94.7,0,0,1,21.2-2.41C454.77,244.56,497.69,287.25,497.69,339.93Z" transform="translate(0 -62.41)" style="fill:#e6e6e6"/>
    <path d="M497.69,339.93c0,52.64-42.92,95.33-95.84,95.33H119.21c95.79,0,195.47-192.83,195.47-269v-.09a127.53,127.53,0,0,1,66,80.83,94.7,94.7,0,0,1,21.2-2.41C454.77,244.56,497.69,287.25,497.69,339.93Z" transform="translate(0 -62.41)" style="fill:#666;opacity:0.25"/>
    <path d="M497.69,339.93c0,52.64-42.92,95.33-95.84,95.33h-188c30.05-1,297.37-21.34,272.64-116.67-17.17-66.18-82.25-69.72-105.93-64.12a43.47,43.47,0,0,0-19.77,11c0-4.08,16.48-18,19.82-18.52a94.7,94.7,0,0,1,21.2-2.41C454.77,244.56,497.69,287.25,497.69,339.93Z" transform="translate(0 -62.41)" style="fill:#333;opacity:0.5"/>
    <path d="M401.85,437.59H119.21C73.9,437.59,37,400.91,37,355.82s36.86-81.77,82.17-81.77c2.67,0,5.33.13,8,.39,2.77-68.74,60.55-124.25,130-124.25,58.22,0,109.36,38.56,125.14,94.05a98.12,98.12,0,0,1,19.56-2c54.12,0,98.15,43.82,98.15,97.67S456,437.59,401.85,437.59ZM119.21,278.68c-42.76,0-77.54,34.6-77.54,77.14S76.45,433,119.21,433H401.85c51.57,0,93.52-41.73,93.52-93s-41.95-93-93.52-93a93.49,93.49,0,0,0-20.69,2.33,2.34,2.34,0,0,1-2.76-1.66C363.88,193,314,154.82,257.15,154.82c-67.79,0-124.06,54.84-125.43,122.26a2.31,2.31,0,0,1-2.62,2.24A77,77,0,0,0,119.21,278.68Z" transform="translate(0 -62.41)"/>
</svg>