<svg xmlns="http://www.w3.org/2000/svg" viewBox="0 0 500 484.2">
    <circle cx="207.68" cy="320.11" r="38.82" style="fill:#adfffa"/>
    <path d="M180.75,331l2.61-10.14a22.13,22.13,0,0,1,.9-2.83,26,26,0,0,0-.9,14.18l2.17,10.23c1.91,9,12.53,17,22,20a26.46,26.46,0,0,0,9.28,1.15l3-.12a39.06,39.06,0,0,1-20,1.12l-7.66-4.89A26.28,26.28,0,0,1,180.75,331Z" transform="translate(0 -6.48)" style="fill:#999;opacity:0.25"/>
    <path d="M174,345.93a38.72,38.72,0,0,1-4.61-26.06,38.41,38.41,0,0,1,5.29-13.82A39,39,0,0,1,185,295a39.46,39.46,0,0,1,14.15-6.37,38.86,38.86,0,0,1,27.4,4,38.83,38.83,0,0,1,18.75,24.79,38.07,38.07,0,0,1,.95,6.11L243.71,317a26.32,26.32,0,0,0-26.12-16.54l-10.43.65a26.34,26.34,0,0,0-23.8,19.73L180.75,331a26.28,26.28,0,0,0,11.39,28.72l7.66,4.89a37.9,37.9,0,0,1-12.43-4.94A38.4,38.4,0,0,1,176,349.05C175.3,348,174.63,347,174,345.93Z" transform="translate(0 -6.48)" style="fill:#999;opacity:0.5"/>
    <path d="M187.68,291.94A40,40,0,1,1,173,346.59,40,40,0,0,1,187.68,291.94Zm38.82,67.25a37.64,37.64,0,1,0-51.42-13.78A37.71,37.71,0,0,0,226.5,359.19Z" transform="translate(0 -6.48)"/>
    <circle cx="249.18" cy="444.21" r="38.82" style="fill:#adfffa"/>
    <path d="M253.56,477.61,243.42,475a22.13,22.13,0,0,1-2.83-.9,26,26,0,0,0,14.18.91L265,472.83c9-1.91,17-12.53,20-22a26.55,26.55,0,0,0,1.15-9.29l-.12-3a39,39,0,0,1,1.12,20l-4.89,7.67A26.29,26.29,0,0,1,253.56,477.61Z" transform="translate(0 -6.48)" style="fill:#999;opacity:0.25"/>
    <path d="M268.52,484.35a38.73,38.73,0,0,1-50.89-11,39.51,39.51,0,0,1-6.37-14.16,38.86,38.86,0,0,1,4-27.4,39.19,39.19,0,0,1,10.34-11.89A38.71,38.71,0,0,1,240,413a38.07,38.07,0,0,1,6.11-.95l-6.57,2.57A26.32,26.32,0,0,0,223,440.77l.65,10.43a26.23,26.23,0,0,0,15.15,22.16,25,25,0,0,0,4.58,1.64l10.14,2.61a26.29,26.29,0,0,0,28.72-11.38l4.89-7.67A37.9,37.9,0,0,1,282.23,471a38.4,38.4,0,0,1-10.59,11.36C270.63,483.07,269.59,483.73,268.52,484.35Z" transform="translate(0 -6.48)" style="fill:#999;opacity:0.5"/>
    <path d="M214.53,470.69a40,40,0,1,1,54.65,14.64A40,40,0,0,1,214.53,470.69Zm67.25-38.83A37.64,37.64,0,1,0,268,483.29,37.7,37.7,0,0,0,281.78,431.86Z" transform="translate(0 -6.48)"/>
    <circle cx="124.6" cy="403.16" r="38.82" style="fill:#adfffa"/>
    <path d="M151.74,412.37l-5.15,9.12A21.1,21.1,0,0,1,145,424a26.08,26.08,0,0,0,4.54-13.47l.54-10.44c.49-9.2-7.7-19.65-16.06-25a26.8,26.8,0,0,0-8.67-3.52l-2.93-.65A39,39,0,0,1,142,375l6.14,6.7A26.27,26.27,0,0,1,151.74,412.37Z" transform="translate(0 -6.48)" style="fill:#999;opacity:0.25"/>
    <path d="M162.12,399.66A38.67,38.67,0,0,1,138.31,446a39.22,39.22,0,0,1-15.32,2.5,38.76,38.76,0,0,1-37.13-39.74,39.61,39.61,0,0,1,.66-6.15l.78,7a26.34,26.34,0,0,0,21,22.74l10.24,2.06a26.26,26.26,0,0,0,25.33-8.89,25.41,25.41,0,0,0,2.76-4l5.15-9.12a26.27,26.27,0,0,0-3.56-30.69L142,375a37.78,37.78,0,0,1,10.73,8A38.56,38.56,0,0,1,161,396.13C161.43,397.29,161.8,398.47,162.12,399.66Z" transform="translate(0 -6.48)" style="fill:#999;opacity:0.5"/>
    <path d="M135,448.27a40,40,0,1,1,28.29-49A40,40,0,0,1,135,448.27Zm-20.09-75A37.64,37.64,0,1,0,161,399.89,37.68,37.68,0,0,0,114.86,373.28Z" transform="translate(0 -6.48)"/>
    <circle cx="374.6" cy="386.16" r="38.82" style="fill:#adfffa"/>
    <path d="M390.54,370.5l5.32,9a22,22,0,0,1,1.37,2.64,26,26,0,0,0-9.39-10.67l-8.78-5.69c-7.71-5-20.86-3.15-29.7,1.39a26.62,26.62,0,0,0-7.38,5.76l-2,2.21A39,39,0,0,1,353.3,360.2l8.88-2A26.28,26.28,0,0,1,390.54,370.5Z" transform="translate(0 -6.48)" style="fill:#999;opacity:0.25"/>
    <path d="M384.72,355.15a38.72,38.72,0,0,1,28.2,43.77,39.51,39.51,0,0,1-5.5,14.52A38.53,38.53,0,0,1,397.58,424a38.79,38.79,0,0,1-48.14-1.88l6.46,2.83a26.32,26.32,0,0,0,30.17-6.78l6.91-7.84a26.25,26.25,0,0,0,5-26.38,25.63,25.63,0,0,0-2.08-4.4l-5.32-9a26.28,26.28,0,0,0-28.36-12.26l-8.88,2a38.1,38.1,0,0,1,12.28-5.3,38.52,38.52,0,0,1,15.53-.54C382.32,354.57,383.53,354.83,384.72,355.15Z" transform="translate(0 -6.48)" style="fill:#999;opacity:0.5"/>
    <path d="M413.24,403A40,40,0,1,1,385,354,40,40,0,0,1,413.24,403Zm-75-20.1a37.64,37.64,0,1,0,46.1-26.61A37.7,37.7,0,0,0,338.24,382.89Z" transform="translate(0 -6.48)"/>
    <path d="M498.07,194.91c0,44.78-36,81.09-80.43,81.09H398c.37-.7.78-1.44,1.11-2.18A82.86,82.86,0,0,0,406.34,253a82,82,0,0,0,1.72-16.84,84.51,84.51,0,0,0-51.79-77.77h0a81.35,81.35,0,0,0-8.77-3.11,83.14,83.14,0,0,0-20.86-3.48c-.65,0-1.27,0-1.92,0h-1.44c-2.29,0-4.58.08-6.84.28-1.35.09-2.7.25-4,.45-2.26.29-4.43.62-6.56,1.11a9.46,9.46,0,0,0-1.15.25c-.08,0-.12,0-.2,0a107.79,107.79,0,0,0-4.75-14,113,113,0,0,0-44.87-52.74l-.29-.16c-1.27-.78-2.54-1.52-3.85-2.25-.73-.41-1.47-.82-2.25-1.23l-.94-.49A113.94,113.94,0,0,0,151.61,79,90.1,90.1,0,0,1,239.33,9.14a89.07,89.07,0,0,1,38.27,8.57,90.44,90.44,0,0,1,50.81,67.85,39.46,39.46,0,0,1,52.73,36.67v.49a79.2,79.2,0,0,1,36.5-8.85C462.06,113.87,498.07,150.17,498.07,194.91Z" transform="translate(0 -6.48)" style="fill:#e6e6e6"/>
    <path d="M409.12,235.8c0,46.61-38,84.38-84.81,84.38H74.17c-39,0-70.67-31.5-70.67-70.32a70.51,70.51,0,0,1,70.67-70.32,69.13,69.13,0,0,1,9,.59c1.24-61.06,51.37-110.2,113.05-110.2a113,113,0,0,1,109.3,83.59,84.83,84.83,0,0,1,18.77-2.11C371.13,151.41,409.12,189.19,409.12,235.8Z" transform="translate(0 -6.48)" style="fill:#e6e6e6"/>
    <path d="M498.07,194.56c0,44.78-36,81.08-80.43,81.08H399.45s0,0-.05,0a84.76,84.76,0,0,1-74.73,44.5H74.53c84.53,0,172.46-169.62,173-237.48V82a.14.14,0,0,0,.08,0,104,104,0,0,1,9.22,5.28h0c3-.28,20.73-38,20.73-70A90.45,90.45,0,0,1,328.4,85.2a39.81,39.81,0,0,1,13.32-2.29,39.2,39.2,0,0,1,39.41,39v.5a79.24,79.24,0,0,1,36.51-8.85C462.05,113.52,498.07,149.82,498.07,194.56Z" transform="translate(0 -6.48)" style="fill:#666;opacity:0.25"/>
    <path d="M498.07,194.91c0,44.78-36,81.09-80.43,81.09H398.88a.84.84,0,0,1-.16.24,84.8,84.8,0,0,1-74.41,43.92H158c26.59-.9,263.17-18.84,241.29-103.25-15.2-58.55-72.81-61.66-93.75-56.74A38.79,38.79,0,0,0,288,169.92c0-3.32,12.45-14.1,16.67-16.06s13.29-2.8,19.73-2.8a84.8,84.8,0,0,1,84.71,84.74,80.2,80.2,0,0,1-.74,11c12.75-3.93,97.11-31.1,77.16-76.16-28.19-63.64-86.25-50-104.36-43.39-7.46,2.7-14,8.76-14,8.76.2-3.23,13-13.31,13.93-13.31a79.2,79.2,0,0,1,36.5-8.85C462.06,113.87,498.07,150.17,498.07,194.91Z" transform="translate(0 -6.48)" style="fill:#333;opacity:0.5"/>
    <path d="M417.28,111.2A82.29,82.29,0,0,0,383,118.73,41.8,41.8,0,0,0,329.86,82.2a92.35,92.35,0,0,0-180.67-4.79C109.84,94.54,81.57,133,79.76,177.84c-2.32-.23-4.68-.35-7-.35C32.62,177.49,0,210,0,249.86s32.62,72.37,72.73,72.37H322.86a87,87,0,0,0,75.78-44.31h18.64c45.61,0,82.72-37.4,82.72-83.38S462.89,111.2,417.28,111.2ZM322.86,318.13H72.73c-37.85,0-68.63-30.62-68.63-68.27s30.78-68.27,68.63-68.27a66.59,66.59,0,0,1,8.74.57,2.08,2.08,0,0,0,1.61-.47,2.05,2.05,0,0,0,.71-1.52c.91-44.51,28.87-82.82,67.92-99.41a2.7,2.7,0,0,0,.41-.05,111.2,111.2,0,0,1,145.12,59.73,106,106,0,0,1,4.65,13.68,2.29,2.29,0,0,0,2.75,1.64c2.41-.57,15.82-2.07,18.24-2.07a82.19,82.19,0,0,1,23.58,3.44,77,77,0,0,1,8.51,3l.23.08a82,82,0,0,1,50.19,75.57,80.41,80.41,0,0,1-8.73,36.73c-.25.54-1.17,2.51-1.21,2.77A82.89,82.89,0,0,1,322.86,318.13Zm94.42-44.8h-15.9A84.69,84.69,0,0,0,410,235.8a86.62,86.62,0,0,0-53.19-79.88l-.24-.08a83.14,83.14,0,0,0-8.8-3.12,86.7,86.7,0,0,0-24.87-3.62c-2.56,0-15.22,1.33-17.14,1.72a112,112,0,0,0-4.26-12.14,115.82,115.82,0,0,0-146.9-63.87A87.35,87.35,0,0,1,239,11.07c42.9,0,80.22,32,86.81,74.47a2.29,2.29,0,0,0,3,1.81,37.32,37.32,0,0,1,12.54-2.16c20.47,0,37.13,16.45,37.13,36.67v.49a2.29,2.29,0,0,0,3.34,2,76.44,76.44,0,0,1,35.46-8.6c43.08,0,78.13,35.33,78.13,78.75S460.36,273.33,417.28,273.33Z" transform="translate(0 -6.48)"/>
</svg>