<svg xmlns="http://www.w3.org/2000/svg" viewBox="0 0 500 460.43">
    <rect x="130.57" y="340.63" width="42.64" height="149.22" rx="21.32" transform="translate(265.64 -31.81) rotate(35)" style="fill:#29abe2"/>
    <rect x="228.68" y="340.63" width="42.64" height="149.22" rx="21.32" transform="translate(283.38 -88.08) rotate(35)" style="fill:#29abe2"/>
    <rect x="326.79" y="340.63" width="42.64" height="149.22" rx="21.32" transform="translate(301.13 -144.36) rotate(35)" style="fill:#29abe2"/>
    <path d="M182.48,354.53h0a17.05,17.05,0,0,1,14,26.84l-61.14,87.31a17.06,17.06,0,1,1-27.94-19.57l61.14-87.31a17.1,17.1,0,0,1,14-7.27m0-4.27a21.3,21.3,0,0,0-17.49,9.1l-61.13,87.31a21.31,21.31,0,1,0,34.92,24.45l61.14-87.31a21.33,21.33,0,0,0-17.44-33.55Z" transform="translate(0 -19.78)"/>
    <path d="M280.59,354.53h0a17.06,17.06,0,0,1,14,26.84L233.4,468.68a17.06,17.06,0,1,1-27.94-19.57L266.6,361.8a17.1,17.1,0,0,1,14-7.27m0-4.27a21.27,21.27,0,0,0-17.48,9.1L202,446.67a21.31,21.31,0,1,0,34.92,24.45L298,383.81a21.32,21.32,0,0,0-17.44-33.55Z" transform="translate(0 -19.78)"/>
    <path d="M378.7,354.53h0a17.05,17.05,0,0,1,13.95,26.84l-61.14,87.31a17.06,17.06,0,0,1-27.94-19.57l61.14-87.31a17.1,17.1,0,0,1,14-7.27m0-4.27a21.27,21.27,0,0,0-17.48,9.1l-61.14,87.31A21.32,21.32,0,1,0,335,471.12l61.13-87.31a21.32,21.32,0,0,0-17.44-33.55Z" transform="translate(0 -19.78)"/>
    <path d="M497.5,224.71c0,56.85-46.35,103-103.5,103H88.75c-47.6,0-86.25-38.4-86.25-85.8s38.65-85.8,86.25-85.8a89,89,0,0,1,11,.7c1.5-74.5,62.7-134.45,138-134.45a138,138,0,0,1,133.4,102,102.08,102.08,0,0,1,22.9-2.6C451.15,121.71,497.5,167.81,497.5,224.71Z" transform="translate(0 -19.78)" style="fill:#e6e6e6"/>
    <path d="M497.5,224.71c0,56.85-46.35,103-103.5,103H88.75c103.45,0,211.1-208.25,211.1-290.55V37a137.72,137.72,0,0,1,71.25,87.3,102.08,102.08,0,0,1,22.9-2.6C451.15,121.71,497.5,167.81,497.5,224.71Z" transform="translate(0 -19.78)" style="fill:#666;opacity:0.25"/>
    <path d="M497.5,224.71c0,56.85-46.35,103-103.5,103H191c32.45-1.1,321.16-23.05,294.45-126-18.54-71.47-88.83-75.3-114.4-69.25a47,47,0,0,0-21.35,11.9c0-4.4,17.8-19.4,21.4-20a102.08,102.08,0,0,1,22.9-2.6C451.15,121.71,497.5,167.81,497.5,224.71Z" transform="translate(0 -19.78)" style="fill:#333;opacity:0.5"/>
    <path d="M394,330.18H88.75C39.81,330.18,0,290.56,0,241.86s39.81-88.31,88.75-88.31c2.88,0,5.75.14,8.59.42,3-74.24,65.39-134.19,140.38-134.19,62.88,0,118.11,41.65,135.16,101.58A105.46,105.46,0,0,1,394,119.23c58.45,0,106,47.31,106,105.47S452.45,330.18,394,330.18ZM88.75,158.55C42.57,158.55,5,195.92,5,241.86s37.57,83.32,83.75,83.32H394c55.69,0,101-45.08,101-100.48S449.69,124.23,394,124.23a100.63,100.63,0,0,0-22.35,2.51,2.51,2.51,0,0,1-3-1.8C353,66,299.13,24.78,237.72,24.78c-73.22,0-134,59.24-135.47,132a2.5,2.5,0,0,1-.87,1.85,2.54,2.54,0,0,1-2,.58A81.83,81.83,0,0,0,88.75,158.55Z" transform="translate(0 -19.78)"/>
</svg>