<svg xmlns="http://www.w3.org/2000/svg" viewBox="0 0 500 488.81">
    <circle cx="208.08" cy="324.72" r="38.82" style="fill:#adfffa"/>
    <path d="M181.15,333.33l2.61-10.13a21.78,21.78,0,0,1,.9-2.84,26,26,0,0,0-.9,14.19l2.18,10.23c1.9,9,12.52,17,22,20a26.71,26.71,0,0,0,9.28,1.16l3-.13a39,39,0,0,1-20,1.12l-7.66-4.88A26.29,26.29,0,0,1,181.15,333.33Z" transform="translate(0 -4.23)" style="fill:#999;opacity:0.25"/>
    <path d="M174.41,348.3a38.76,38.76,0,0,1-4.61-26.07,38.48,38.48,0,0,1,5.29-13.82A39.17,39.17,0,0,1,199.58,291a38.34,38.34,0,0,1,14.4-.49,38.76,38.76,0,0,1,31.75,29.26,39.43,39.43,0,0,1,1,6.11l-2.57-6.57A26.34,26.34,0,0,0,218,302.81l-10.43.66a26.34,26.34,0,0,0-23.8,19.73l-2.61,10.13a26.29,26.29,0,0,0,11.39,28.73l7.66,4.88a39,39,0,0,1-23.79-15.53C175.7,350.41,175,349.37,174.41,348.3Z" transform="translate(0 -4.23)" style="fill:#999;opacity:0.5"/>
    <path d="M188.08,294.31A40,40,0,1,1,173.44,349,40,40,0,0,1,188.08,294.31Zm38.82,67.24a37.64,37.64,0,1,0-51.42-13.78A37.7,37.7,0,0,0,226.9,361.55Z" transform="translate(0 -4.23)"/>
    <circle cx="249.58" cy="448.82" r="38.82" style="fill:#adfffa"/>
    <path d="M254,480l-10.14-2.62a22.08,22.08,0,0,1-2.83-.89,26,26,0,0,0,14.18.9l10.23-2.18c9-1.9,17-12.53,20-22a26.52,26.52,0,0,0,1.15-9.29l-.12-3a39.05,39.05,0,0,1,1.12,20l-4.89,7.66A26.28,26.28,0,0,1,254,480Z" transform="translate(0 -4.23)" style="fill:#999;opacity:0.25"/>
    <path d="M268.93,486.71A38.74,38.74,0,0,1,229,486a39.23,39.23,0,0,1-17.38-24.49,38.81,38.81,0,0,1,4-27.41,38.72,38.72,0,0,1,24.78-18.74,39.43,39.43,0,0,1,6.11-1L240,417a26.34,26.34,0,0,0-16.54,26.13l.65,10.42a26.26,26.26,0,0,0,15.15,22.17,25.74,25.74,0,0,0,4.58,1.63L254,480a26.28,26.28,0,0,0,28.72-11.39l4.89-7.66A39,39,0,0,1,272,484.71C271,485.43,270,486.1,268.93,486.71Z" transform="translate(0 -4.23)" style="fill:#999;opacity:0.5"/>
    <path d="M214.94,473.05a40,40,0,1,1,54.64,14.64A40,40,0,0,1,214.94,473.05Zm67.24-38.82a37.64,37.64,0,1,0-13.78,51.42A37.68,37.68,0,0,0,282.18,434.23Z" transform="translate(0 -4.23)"/>
    <circle cx="125" cy="407.77" r="38.82" style="fill:#adfffa"/>
    <path d="M152.14,414.74,147,423.85a22.55,22.55,0,0,1-1.6,2.5,26,26,0,0,0,4.54-13.46l.54-10.45c.5-9.19-7.7-19.64-16.06-25a26.58,26.58,0,0,0-8.67-3.52l-2.93-.66a39,39,0,0,1,19.62,4.1l6.14,6.7A26.29,26.29,0,0,1,152.14,414.74Z" transform="translate(0 -4.23)" style="fill:#999;opacity:0.25"/>
    <path d="M162.52,402a38.71,38.71,0,0,1-11,38.36,39.19,39.19,0,0,1-28.16,10.44A38.77,38.77,0,0,1,98,439.87a38.82,38.82,0,0,1-11.7-28.79,39.74,39.74,0,0,1,.66-6.15l.79,7a26.32,26.32,0,0,0,21,22.74l10.24,2.07a26.24,26.24,0,0,0,25.33-8.9,26.16,26.16,0,0,0,2.77-4l5.14-9.11a26.29,26.29,0,0,0-3.56-30.7l-6.14-6.7a39.06,39.06,0,0,1,19,21.16C161.83,399.65,162.2,400.83,162.52,402Z" transform="translate(0 -4.23)" style="fill:#999;opacity:0.5"/>
    <path d="M135.35,450.64a40,40,0,1,1,28.29-49A40,40,0,0,1,135.35,450.64Zm-20.09-75a37.64,37.64,0,1,0,46.1,26.62A37.68,37.68,0,0,0,115.26,375.64Z" transform="translate(0 -4.23)"/>
    <circle cx="375" cy="390.77" r="38.82" style="fill:#adfffa"/>
    <path d="M390.94,372.86l5.32,9a21.15,21.15,0,0,1,1.37,2.63,26,26,0,0,0-9.39-10.66l-8.77-5.7c-7.72-5-20.87-3.15-29.71,1.4a26.78,26.78,0,0,0-7.38,5.75l-2,2.21a38.85,38.85,0,0,1,13.35-14.94l8.88-2A26.28,26.28,0,0,1,390.94,372.86Z" transform="translate(0 -4.23)" style="fill:#999;opacity:0.25"/>
    <path d="M385.12,357.52A38.74,38.74,0,0,1,399,364.44a39.24,39.24,0,0,1,7.83,8.24,38.67,38.67,0,0,1,6,13.52,39.16,39.16,0,0,1-5,29.6,38.87,38.87,0,0,1-22.2,16.56,38.77,38.77,0,0,1-30.78-4.27,38.76,38.76,0,0,1-5-3.65l6.46,2.83a26.32,26.32,0,0,0,30.17-6.78l6.91-7.83a26.27,26.27,0,0,0,5-26.39,25.54,25.54,0,0,0-2.08-4.39l-5.32-9a26.28,26.28,0,0,0-28.36-12.26l-8.88,2a39,39,0,0,1,27.81-5.84C382.72,356.93,383.93,357.2,385.12,357.52Z" transform="translate(0 -4.23)" style="fill:#999;opacity:0.5"/>
    <path d="M413.64,405.35a40,40,0,1,1-28.29-49A40,40,0,0,1,413.64,405.35Zm-75-20.09a37.64,37.64,0,1,0,46.1-26.62A37.68,37.68,0,0,0,338.64,385.26Z" transform="translate(0 -4.23)"/>
    <path d="M497.5,209.15c0,56.85-46.35,103-103.5,103H88.75c-47.6,0-86.25-38.4-86.25-85.8s38.65-85.8,86.25-85.8a89,89,0,0,1,11,.7c1.5-74.5,62.7-134.45,138-134.45a138,138,0,0,1,133.4,102,102.08,102.08,0,0,1,22.9-2.6C451.15,106.15,497.5,152.25,497.5,209.15Z" transform="translate(0 -4.23)" style="fill:#e6e6e6"/>
    <path d="M497.5,209.15c0,56.85-46.35,103-103.5,103H88.75c103.45,0,211.1-208.25,211.1-290.55v-.1a137.72,137.72,0,0,1,71.25,87.3,102.08,102.08,0,0,1,22.9-2.6C451.15,106.15,497.5,152.25,497.5,209.15Z" transform="translate(0 -4.23)" style="fill:#666;opacity:0.25"/>
    <path d="M497.5,209.15c0,56.85-46.35,103-103.5,103H191c32.45-1.1,321.16-23,294.45-126-18.54-71.47-88.83-75.29-114.4-69.25a47,47,0,0,0-21.35,11.9c0-4.4,17.8-19.4,21.4-20a102.08,102.08,0,0,1,22.9-2.6C451.15,106.15,497.5,152.25,497.5,209.15Z" transform="translate(0 -4.23)" style="fill:#333;opacity:0.5"/>
    <path d="M394,314.62H88.75C39.81,314.62,0,275,0,226.31S39.81,138,88.75,138c2.88,0,5.75.14,8.59.42,3-74.24,65.39-134.19,140.38-134.19,62.88,0,118.11,41.65,135.16,101.57A106.19,106.19,0,0,1,394,103.67c58.45,0,106,47.32,106,105.48S452.45,314.62,394,314.62ZM88.75,143C42.57,143,5,180.37,5,226.31s37.57,83.31,83.75,83.31H394c55.69,0,101-45.07,101-100.47S449.69,108.67,394,108.67a101.23,101.23,0,0,0-22.35,2.51,2.51,2.51,0,0,1-3-1.79C353,50.42,299.13,9.23,237.72,9.23c-73.22,0-134,59.23-135.47,132a2.5,2.5,0,0,1-2.83,2.42A81.84,81.84,0,0,0,88.75,143Z" transform="translate(0 -4.23)"/>
</svg>