<svg xmlns="http://www.w3.org/2000/svg" viewBox="0 0 500 442.81">
    <rect x="124.99" y="357.29" width="34.86" height="121.99" rx="17.43" transform="translate(265.68 -34.64) rotate(35)" style="fill:#29abe2"/>
    <rect x="178.78" y="357.29" width="34.86" height="121.99" rx="17.43" transform="translate(275.4 -65.49) rotate(35)" style="fill:#29abe2"/>
    <rect x="232.57" y="357.29" width="34.86" height="121.99" rx="17.43" transform="translate(285.13 -96.34) rotate(35)" style="fill:#29abe2"/>
    <rect x="286.36" y="357.29" width="34.86" height="121.99" rx="17.43" transform="translate(294.86 -127.2) rotate(35)" style="fill:#29abe2"/>
    <rect x="340.15" y="357.29" width="34.86" height="121.99" rx="17.43" transform="translate(304.59 -158.05) rotate(35)" style="fill:#29abe2"/>
    <path d="M167.43,368.65h0a13.94,13.94,0,0,1,11.4,21.94l-50,71.38A13.94,13.94,0,1,1,106,446l50-71.38a14,14,0,0,1,11.44-6m0-3.48a17.42,17.42,0,0,0-14.3,7.43l-50,71.38a17.43,17.43,0,0,0,28.56,20l50-71.38a17.43,17.43,0,0,0-4.28-24.27h0a17.37,17.37,0,0,0-10-3.15Z" transform="translate(0 -28.6)"/>
    <path d="M221.22,368.65h0a13.94,13.94,0,0,1,11.4,21.94l-50,71.38a13.94,13.94,0,1,1-22.84-16l50-71.38a14,14,0,0,1,11.44-6m0-3.48a17.42,17.42,0,0,0-14.3,7.43l-50,71.38a17.43,17.43,0,0,0,4.28,24.27h0A17.44,17.44,0,0,0,185.5,464l50-71.38a17.43,17.43,0,0,0-4.28-24.27h0a17.37,17.37,0,0,0-10-3.15Z" transform="translate(0 -28.6)"/>
    <path d="M275,368.65h0a13.94,13.94,0,0,1,11.4,21.94l-50,71.38a13.94,13.94,0,1,1-22.84-16l50-71.38a14,14,0,0,1,11.44-6m0-3.48a17.42,17.42,0,0,0-14.3,7.43l-50,71.38A17.43,17.43,0,0,0,215,468.25h0A17.44,17.44,0,0,0,239.29,464l50-71.38A17.43,17.43,0,0,0,285,368.32h0a17.37,17.37,0,0,0-10-3.15Z" transform="translate(0 -28.6)"/>
    <path d="M328.8,368.65h0a13.94,13.94,0,0,1,11.4,21.94l-50,71.38a13.94,13.94,0,1,1-22.84-16l50-71.38a14,14,0,0,1,11.44-6m0-3.48a17.42,17.42,0,0,0-14.3,7.43l-50,71.38a17.43,17.43,0,0,0,28.56,20l50-71.38a17.43,17.43,0,0,0-4.28-24.27h0a17.37,17.37,0,0,0-10-3.15Z" transform="translate(0 -28.6)"/>
    <path d="M382.59,368.65h0A13.94,13.94,0,0,1,394,390.59L344,462a13.94,13.94,0,1,1-22.84-16l50-71.38a14,14,0,0,1,11.44-6m0-3.48a17.42,17.42,0,0,0-14.3,7.43l-50,71.38a17.43,17.43,0,0,0,4.28,24.27h0A17.44,17.44,0,0,0,346.87,464l50-71.38a17.43,17.43,0,0,0-4.28-24.27h0a17.37,17.37,0,0,0-10-3.15Z" transform="translate(0 -28.6)"/>
    <path d="M497.5,233.52c0,56.85-46.35,103-103.5,103H88.75c-47.6,0-86.25-38.4-86.25-85.8s38.65-85.8,86.25-85.8a89,89,0,0,1,11,.7c1.5-74.5,62.7-134.45,138-134.45a138,138,0,0,1,133.4,102,102.08,102.08,0,0,1,22.9-2.6C451.15,130.52,497.5,176.62,497.5,233.52Z" transform="translate(0 -28.6)" style="fill:#e6e6e6"/>
    <path d="M497.5,233.52c0,56.85-46.35,103-103.5,103H88.75c103.45,0,211.1-208.25,211.1-290.55v-.1a137.72,137.72,0,0,1,71.25,87.3,102.08,102.08,0,0,1,22.9-2.6C451.15,130.52,497.5,176.62,497.5,233.52Z" transform="translate(0 -28.6)" style="fill:#666;opacity:0.25"/>
    <path d="M497.5,233.52c0,56.85-46.35,103-103.5,103H191c32.45-1.1,321.16-23.05,294.45-126-18.54-71.47-88.83-75.3-114.4-69.25a47,47,0,0,0-21.35,11.9c0-4.4,17.8-19.4,21.4-20a102.08,102.08,0,0,1,22.9-2.6C451.15,130.52,497.5,176.62,497.5,233.52Z" transform="translate(0 -28.6)" style="fill:#333;opacity:0.5"/>
    <path d="M394,339H88.75C39.81,339,0,299.37,0,250.68s39.81-88.32,88.75-88.32c2.88,0,5.75.14,8.59.42,3-74.24,65.39-134.18,140.38-134.18,62.88,0,118.11,41.64,135.16,101.57A105.46,105.46,0,0,1,394,128c58.45,0,106,47.31,106,105.47S452.45,339,394,339ZM88.75,167.36C42.57,167.36,5,204.74,5,250.68S42.57,334,88.75,334H394c55.69,0,101-45.08,101-100.48S449.69,133,394,133a100.63,100.63,0,0,0-22.35,2.51,2.51,2.51,0,0,1-3-1.8C353,74.78,299.13,33.6,237.72,33.6c-73.22,0-134,59.23-135.47,132a2.5,2.5,0,0,1-2.83,2.43A81.83,81.83,0,0,0,88.75,167.36Z" transform="translate(0 -28.6)"/>
</svg>