<svg xmlns="http://www.w3.org/2000/svg" viewBox="0 0 500 419.38">
    <rect x="113.93" y="366.93" width="48.57" height="97.15" rx="24.29" transform="translate(263.32 -44.45) rotate(35)" style="fill:#29abe2"/>
    <rect x="225.71" y="366.93" width="48.57" height="97.15" rx="24.29" transform="translate(283.54 -108.56) rotate(35)" style="fill:#29abe2"/>
    <rect x="337.49" y="366.93" width="48.57" height="97.15" rx="24.29" transform="translate(303.75 -172.67) rotate(35)" style="fill:#29abe2"/>
    <path d="M152.17,376.18h0a19.43,19.43,0,0,1,15.9,30.58l-27.86,39.79a19.43,19.43,0,1,1-31.84-22.29l27.87-39.79a19.46,19.46,0,0,1,15.93-8.29m0-4.86a24.25,24.25,0,0,0-19.91,10.36l-27.87,39.79a24.29,24.29,0,1,0,39.79,27.86l27.87-39.79a24.28,24.28,0,0,0-6-33.82h0a24.18,24.18,0,0,0-13.91-4.4Z" transform="translate(0 -40.31)"/>
    <path d="M264,376.18h0a19.43,19.43,0,0,1,15.9,30.58L252,446.55a19.43,19.43,0,1,1-31.84-22.29L248,384.47A19.49,19.49,0,0,1,264,376.18m0-4.86A24.25,24.25,0,0,0,244,381.68l-27.87,39.79a24.3,24.3,0,0,0,6,33.83h0a24.28,24.28,0,0,0,33.82-6l27.87-39.79a24.28,24.28,0,0,0-6-33.82h0a24.18,24.18,0,0,0-13.91-4.4Z" transform="translate(0 -40.31)"/>
    <path d="M375.73,376.18h0a19.43,19.43,0,0,1,15.9,30.58l-27.87,39.79a19.43,19.43,0,0,1-31.83-22.29l27.86-39.79a19.49,19.49,0,0,1,15.94-8.29m0-4.86a24.25,24.25,0,0,0-19.91,10.36L328,421.47a24.29,24.29,0,1,0,39.79,27.86l27.87-39.79a24.28,24.28,0,0,0-6-33.82h0a24.18,24.18,0,0,0-13.91-4.4Z" transform="translate(0 -40.31)"/>
    <path d="M497.5,245.23c0,56.85-46.35,103-103.5,103H88.75c-47.6,0-86.25-38.4-86.25-85.8s38.65-85.8,86.25-85.8a89,89,0,0,1,11,.7c1.5-74.5,62.7-134.45,138-134.45a138,138,0,0,1,133.4,102,102.08,102.08,0,0,1,22.9-2.6C451.15,142.23,497.5,188.33,497.5,245.23Z" transform="translate(0 -40.31)" style="fill:#e6e6e6"/>
    <path d="M497.5,245.23c0,56.85-46.35,103-103.5,103H88.75c103.45,0,211.1-208.25,211.1-290.55v-.1a137.72,137.72,0,0,1,71.25,87.3,102.08,102.08,0,0,1,22.9-2.6C451.15,142.23,497.5,188.33,497.5,245.23Z" transform="translate(0 -40.31)" style="fill:#666;opacity:0.25"/>
    <path d="M497.5,245.23c0,56.85-46.35,103-103.5,103H191c32.45-1.1,321.16-23,294.45-126-18.54-71.47-88.83-75.29-114.4-69.25a47,47,0,0,0-21.35,11.9c0-4.4,17.8-19.4,21.4-20a102.08,102.08,0,0,1,22.9-2.6C451.15,142.23,497.5,188.33,497.5,245.23Z" transform="translate(0 -40.31)" style="fill:#333;opacity:0.5"/>
    <path d="M394,350.7H88.75C39.81,350.7,0,311.09,0,262.39s39.81-88.31,88.75-88.31c2.88,0,5.75.14,8.59.42,3-74.24,65.39-134.19,140.38-134.19,62.88,0,118.11,41.64,135.16,101.57A106.19,106.19,0,0,1,394,139.75c58.45,0,106,47.32,106,105.48S452.45,350.7,394,350.7ZM88.75,179.08C42.57,179.08,5,216.45,5,262.39S42.57,345.7,88.75,345.7H394c55.69,0,101-45.07,101-100.47S449.69,144.75,394,144.75a101.23,101.23,0,0,0-22.35,2.51,2.51,2.51,0,0,1-3-1.79c-15.69-59-69.55-100.16-131-100.16-73.22,0-134,59.23-135.47,132a2.5,2.5,0,0,1-2.83,2.42A81.84,81.84,0,0,0,88.75,179.08Z" transform="translate(0 -40.31)"/>
</svg>