<svg xmlns="http://www.w3.org/2000/svg" viewBox="0 0 500 441.48">
    <rect x="383.68" y="348.01" width="36.93" height="129.26" rx="18.47" transform="translate(309.41 -183.48) rotate(35)" style="fill:#29abe2"/>
    <path d="M428.64,360.05h0a14.78,14.78,0,0,1,12.09,23.25l-53,75.63A14.77,14.77,0,0,1,361.12,453a14.61,14.61,0,0,1,2.45-11l52.95-75.63a14.85,14.85,0,0,1,12.12-6.31m0-3.69a18.44,18.44,0,0,0-15.14,7.88l-53,75.63a18.46,18.46,0,0,0,4.54,25.72h0a18.45,18.45,0,0,0,25.71-4.54l53-75.63a18.47,18.47,0,0,0-4.53-25.72h0a18.46,18.46,0,0,0-10.58-3.34Z" transform="translate(0 -27.45)"/>
    <circle cx="320.83" cy="393.78" r="26.88" style="fill:#adfffa"/>
    <path d="M338.49,427.92l-5.08,5.18a15.15,15.15,0,0,1-1.51,1.38,18,18,0,0,0,5.45-8.19l2.23-6.89c2-6.06-1.63-14.52-6.25-19.61a18.43,18.43,0,0,0-5.17-3.91l-1.85-1a27,27,0,0,1,12.39,6.25l2.91,5.58A18.21,18.21,0,0,1,338.49,427.92Z" transform="translate(0 -27.45)" style="fill:#999;opacity:0.25"/>
    <path d="M347.71,421.28A26.82,26.82,0,0,1,333.5,445a27.12,27.12,0,0,1-20.71,1.94A26.89,26.89,0,0,1,297.74,435a26.86,26.86,0,0,1-2.66-21.35,27.88,27.88,0,0,1,1.54-4l-.73,4.83a18.23,18.23,0,0,0,9.94,19l6.48,3.22a18.18,18.18,0,0,0,18.54-1.41,17.77,17.77,0,0,0,2.56-2.18l5.08-5.18a18.21,18.21,0,0,0,3.12-21.17l-2.91-5.58a26.3,26.3,0,0,1,5.75,7.27,26.57,26.57,0,0,1,3.14,10.28C347.67,419.57,347.71,420.43,347.71,421.28Z" transform="translate(0 -27.45)" style="fill:#999;opacity:0.5"/>
    <path d="M320.83,448.93a27.7,27.7,0,1,1,27.69-27.7A27.73,27.73,0,0,1,320.83,448.93Zm0-53.77a26.07,26.07,0,1,0,26.06,26.07A26.1,26.1,0,0,0,320.83,395.16Z" transform="translate(0 -27.45)"/>
    <rect x="231.53" y="348.01" width="36.93" height="129.26" rx="18.47" transform="translate(281.9 -96.22) rotate(35)" style="fill:#29abe2"/>
    <path d="M276.5,360.05h0a14.77,14.77,0,0,1,12.08,23.25l-53,75.63A14.77,14.77,0,0,1,211.42,442l53-75.63a14.82,14.82,0,0,1,12.12-6.31m0-3.69a18.44,18.44,0,0,0-15.14,7.88l-53,75.63a18.47,18.47,0,0,0,4.53,25.72h0a18.46,18.46,0,0,0,25.72-4.54l53-75.63a18.47,18.47,0,0,0-4.53-25.72h0a18.43,18.43,0,0,0-10.58-3.34Z" transform="translate(0 -27.45)"/>
    <circle cx="168.68" cy="393.78" r="26.88" style="fill:#adfffa"/>
    <path d="M186.34,427.92l-5.07,5.18a15.26,15.26,0,0,1-1.52,1.38,17.91,17.91,0,0,0,5.45-8.19l2.24-6.89c2-6.06-1.64-14.52-6.26-19.61a18.15,18.15,0,0,0-5.17-3.91l-1.85-1a27,27,0,0,1,12.4,6.25l2.9,5.58A18.19,18.19,0,0,1,186.34,427.92Z" transform="translate(0 -27.45)" style="fill:#999;opacity:0.25"/>
    <path d="M195.57,421.28A26.85,26.85,0,0,1,181.35,445a27.1,27.1,0,0,1-20.7,1.94A26.89,26.89,0,0,1,145.6,435a26.7,26.7,0,0,1-1.12-25.34l-.74,4.83a18.24,18.24,0,0,0,9.94,19l6.48,3.22a18.23,18.23,0,0,0,21.11-3.59l5.07-5.18a18.19,18.19,0,0,0,3.12-21.17l-2.9-5.58a27.13,27.13,0,0,1,8.89,17.55C195.53,419.57,195.57,420.43,195.57,421.28Z" transform="translate(0 -27.45)" style="fill:#999;opacity:0.5"/>
    <path d="M168.68,448.93a27.7,27.7,0,1,1,27.7-27.7A27.74,27.74,0,0,1,168.68,448.93Zm0-53.77a26.07,26.07,0,1,0,26.07,26.07A26.11,26.11,0,0,0,168.68,395.16Z" transform="translate(0 -27.45)"/>
    <rect x="79.39" y="348.01" width="36.93" height="129.26" rx="18.47" transform="translate(254.38 -8.95) rotate(35)" style="fill:#29abe2"/>
    <path d="M124.35,360.05h0a14.77,14.77,0,0,1,12.08,23.25L83.48,458.93A14.77,14.77,0,0,1,59.27,442l53-75.63a14.82,14.82,0,0,1,12.12-6.31m0-3.69a18.44,18.44,0,0,0-15.14,7.88l-53,75.63A18.46,18.46,0,1,0,86.5,461.05l53-75.63a18.46,18.46,0,0,0-4.54-25.72h0a18.4,18.4,0,0,0-10.57-3.34Z" transform="translate(0 -27.45)"/>
    <path d="M497.5,232.37c0,56.85-46.35,103-103.5,103H88.75c-47.6,0-86.25-38.4-86.25-85.8s38.65-85.8,86.25-85.8a89,89,0,0,1,11,.7C101.25,89.92,162.45,30,237.7,30A138,138,0,0,1,371.1,132a102.08,102.08,0,0,1,22.9-2.6C451.15,129.37,497.5,175.47,497.5,232.37Z" transform="translate(0 -27.45)" style="fill:#e6e6e6"/>
    <path d="M497.5,232.37c0,56.85-46.35,103-103.5,103H88.75c103.45,0,211.1-208.25,211.1-290.55v-.1A137.72,137.72,0,0,1,371.1,132a102.08,102.08,0,0,1,22.9-2.6C451.15,129.37,497.5,175.47,497.5,232.37Z" transform="translate(0 -27.45)" style="fill:#666;opacity:0.25"/>
    <path d="M497.5,232.37c0,56.85-46.35,103-103.5,103H191c32.45-1.1,321.16-23,294.45-126-18.54-71.47-88.83-75.29-114.4-69.25A47,47,0,0,0,349.7,152c0-4.4,17.8-19.4,21.4-20a102.08,102.08,0,0,1,22.9-2.6C451.15,129.37,497.5,175.47,497.5,232.37Z" transform="translate(0 -27.45)" style="fill:#333;opacity:0.5"/>
    <path d="M394,337.84H88.75C39.81,337.84,0,298.22,0,249.53s39.81-88.32,88.75-88.32c2.88,0,5.75.15,8.59.43,3-74.25,65.39-134.19,140.38-134.19,62.88,0,118.11,41.64,135.16,101.57A106.19,106.19,0,0,1,394,126.89c58.45,0,106,47.32,106,105.47S452.45,337.84,394,337.84ZM88.75,166.21C42.57,166.21,5,203.59,5,249.53s37.57,83.31,83.75,83.31H394c55.69,0,101-45.07,101-100.48S449.69,131.89,394,131.89a100.63,100.63,0,0,0-22.35,2.51,2.51,2.51,0,0,1-3-1.79c-15.69-59-69.55-100.16-131-100.16-73.22,0-134,59.23-135.47,132a2.47,2.47,0,0,1-.87,1.84,2.5,2.5,0,0,1-2,.58A81.83,81.83,0,0,0,88.75,166.21Z" transform="translate(0 -27.45)"/>
</svg>