<svg xmlns="http://www.w3.org/2000/svg" viewBox="0 0 500 288.98">
    <path d="M169.51,214.58A60.41,60.41,0,0,1,58.09,247a59.73,59.73,0,0,1-9.42-32.37,60.43,60.43,0,0,1,94-50.23s0,0,0,0A60.36,60.36,0,0,1,169.51,214.58Z" transform="translate(0 -105.51)" style="fill:#fbb03b"/>
    <path d="M130.26,235.33c-22.35,22.25-54,27.14-72.17,11.62a59.73,59.73,0,0,1-9.42-32.37,60.43,60.43,0,0,1,94-50.23s0,0,0,0C157.36,182.58,152.24,213.44,130.26,235.33Z" transform="translate(0 -105.51)" style="fill:#e6e6e6;opacity:0.2"/>
    <ellipse cx="82.06" cy="189.13" rx="25.19" ry="16.79" transform="translate(-109.25 6.79) rotate(-44.67)" style="fill:#f2f2f2;opacity:0.2"/>
    <path d="M68.22,267.88,33.15,290.55l22.67-35.08A71.39,71.39,0,0,0,68.22,267.88Z" transform="translate(0 -105.51)" style="fill:#f7931e"/>
    <path d="M68.28,161.32a64.83,64.83,0,0,0-12.41,12.41L33.15,138.61Z" transform="translate(0 -105.51)" style="fill:#f7931e"/>
    <path d="M185,290.55,150,267.83a69.47,69.47,0,0,0,12.41-12.36Z" transform="translate(0 -105.51)" style="fill:#f7931e"/>
    <path d="M185,138.61l-22.66,35.12A71.45,71.45,0,0,0,150,161.32Z" transform="translate(0 -105.51)" style="fill:#f7931e"/>
    <path d="M42,214.6a68.3,68.3,0,0,0,.59,8.76L1.68,214.6l40.87-8.81A69.34,69.34,0,0,0,42,214.6Z" transform="translate(0 -105.51)" style="fill:#f7931e"/>
    <path d="M117.9,281.15,109.09,322l-8.75-40.87a68.15,68.15,0,0,0,8.75.59A69.09,69.09,0,0,0,117.9,281.15Z" transform="translate(0 -105.51)" style="fill:#f7931e"/>
    <path d="M117.9,148.06a67.31,67.31,0,0,0-8.81-.59,66.39,66.39,0,0,0-8.75.59l8.75-40.87Z" transform="translate(0 -105.51)" style="fill:#f7931e"/>
    <path d="M175.63,223.36a66.55,66.55,0,0,0,.59-8.76,67.54,67.54,0,0,0-.59-8.81l40.87,8.81Z" transform="translate(0 -105.51)" style="fill:#f7931e"/>
    <path d="M87.45,278.14l-11.71,17,3.71-20.25A67.45,67.45,0,0,0,87.45,278.14Z" transform="translate(0 -105.51)" style="fill:#fbb03b"/>
    <path d="M48.89,184.9a60.91,60.91,0,0,0-3.33,8l-17-11.71Z" transform="translate(0 -105.51)" style="fill:#fbb03b"/>
    <path d="M189.65,247.9l-20.3-3.7a62.31,62.31,0,0,0,3.33-8Z" transform="translate(0 -105.51)" style="fill:#fbb03b"/>
    <path d="M142.44,134l-3.7,20.35a66.09,66.09,0,0,0-8-3.33Z" transform="translate(0 -105.51)" style="fill:#fbb03b"/>
    <path d="M48.84,244.2,28.54,248l17-11.77A60.91,60.91,0,0,0,48.84,244.2Z" transform="translate(0 -105.51)" style="fill:#fbb03b"/>
    <path d="M142.5,295.11l-11.71-17a60.78,60.78,0,0,0,8-3.33Z" transform="translate(0 -105.51)" style="fill:#fbb03b"/>
    <path d="M87.5,151a66.68,66.68,0,0,0-8,3.33L75.74,134Z" transform="translate(0 -105.51)" style="fill:#fbb03b"/>
    <path d="M189.65,181.2l-17,11.76a58.84,58.84,0,0,0-3.33-8.06Z" transform="translate(0 -105.51)" style="fill:#fbb03b"/>
    <path d="M109.09,276.69a62.1,62.1,0,1,1,62.1-62.09A62.16,62.16,0,0,1,109.09,276.69Zm0-120.84a58.75,58.75,0,1,0,58.74,58.75A58.81,58.81,0,0,0,109.09,155.85Z" transform="translate(0 -105.51)"/>
    <path d="M33.15,292.22a1.67,1.67,0,0,1-1.18-.49,1.65,1.65,0,0,1-.23-2.09L54.4,254.57a1.69,1.69,0,0,1,2.75-.12,69.4,69.4,0,0,0,12.11,12.11A1.64,1.64,0,0,1,69.9,268a1.66,1.66,0,0,1-.76,1.34L34.07,292A1.7,1.7,0,0,1,33.15,292.22ZM56,258.34,38.81,284.89l26.55-17.16A72.44,72.44,0,0,1,56,258.34Z" transform="translate(0 -105.51)"/>
    <path d="M55.87,175.41h-.06a1.64,1.64,0,0,1-1.35-.76L31.74,139.51a1.65,1.65,0,0,1,.23-2.09,1.68,1.68,0,0,1,2.1-.22l35.12,22.72a1.67,1.67,0,0,1,.11,2.74,62.6,62.6,0,0,0-12.09,12.08A1.67,1.67,0,0,1,55.87,175.41Zm-17-31.14L56,170.84a66,66,0,0,1,9.38-9.38Z" transform="translate(0 -105.51)"/>
    <path d="M185,292.22a1.7,1.7,0,0,1-.92-.27L149,269.23a1.64,1.64,0,0,1-.76-1.34,1.67,1.67,0,0,1,.65-1.39A67.69,67.69,0,0,0,161,254.45a1.72,1.72,0,0,1,1.4-.65,1.65,1.65,0,0,1,1.34.77l22.66,35.07a1.67,1.67,0,0,1-1.41,2.58Zm-32.2-24.53,26.54,17.19-17.15-26.54A70.89,70.89,0,0,1,152.83,267.69Z" transform="translate(0 -105.51)"/>
    <path d="M162.37,175.41a1.69,1.69,0,0,1-1.33-.65,69.86,69.86,0,0,0-12.12-12.12,1.67,1.67,0,0,1,.12-2.72l35.07-22.72a1.68,1.68,0,0,1,2.34,2.31l-22.67,35.13a1.67,1.67,0,0,1-1.34.76Zm-9.55-13.94a72.52,72.52,0,0,1,9.39,9.4l17.17-26.6Z" transform="translate(0 -105.51)"/>
    <path d="M42.55,225a2.07,2.07,0,0,1-.35,0L1.33,216.24a1.68,1.68,0,0,1,0-3.28l40.87-8.8a1.66,1.66,0,0,1,1.49.4,1.68,1.68,0,0,1,.53,1.45,64.63,64.63,0,0,0,0,17.13A1.68,1.68,0,0,1,42.55,225ZM9.66,214.6l31,6.63c-.22-2.24-.33-4.46-.33-6.63s.11-4.39.33-6.67Z" transform="translate(0 -105.51)"/>
    <path d="M109.09,323.69h0a1.67,1.67,0,0,1-1.64-1.32L98.69,281.5a1.68,1.68,0,0,1,1.87-2,63.73,63.73,0,0,0,17.12,0,1.7,1.7,0,0,1,1.46.52,1.66,1.66,0,0,1,.4,1.49l-8.8,40.87A1.69,1.69,0,0,1,109.09,323.69Zm-6.62-40.61L109.1,314l6.66-30.93A65.59,65.59,0,0,1,102.47,283.08Z" transform="translate(0 -105.51)"/>
    <path d="M117.9,149.73h-.22a63.32,63.32,0,0,0-17.12,0,1.72,1.72,0,0,1-1.46-.52,1.69,1.69,0,0,1-.41-1.49l8.76-40.87a1.67,1.67,0,0,1,1.64-1.33h0a1.69,1.69,0,0,1,1.65,1.33l8.8,40.87a1.64,1.64,0,0,1-.4,1.48A1.67,1.67,0,0,1,117.9,149.73Zm-8.81-3.94a66.23,66.23,0,0,1,6.67.34L109.1,115.2l-6.63,30.93A65.25,65.25,0,0,1,109.09,145.79Z" transform="translate(0 -105.51)"/>
    <path d="M175.63,225a1.66,1.66,0,0,1-1.14-.44,1.68,1.68,0,0,1-.53-1.45A63.53,63.53,0,0,0,174,206a1.68,1.68,0,0,1,.53-1.45,1.72,1.72,0,0,1,1.5-.4l40.87,8.8a1.68,1.68,0,0,1,0,3.28L176,225A2,2,0,0,1,175.63,225Zm1.94-17.1c.22,2.28.33,4.48.33,6.67s-.11,4.38-.33,6.63l31-6.63Z" transform="translate(0 -105.51)"/>
    <path d="M75.74,296.79a1.83,1.83,0,0,1-.64-.13,1.67,1.67,0,0,1-1-1.85l3.7-20.25a1.69,1.69,0,0,1,2.39-1.21,68.16,68.16,0,0,0,7.8,3.2A1.67,1.67,0,0,1,89,277.61a1.69,1.69,0,0,1-.2,1.48l-11.71,17A1.68,1.68,0,0,1,75.74,296.79Zm5-19.49-1.9,10.41,6-8.72C83.48,278.48,82.11,277.92,80.71,277.3Z" transform="translate(0 -105.51)"/>
    <path d="M45.56,194.58a1.68,1.68,0,0,1-1-.3l-17-11.7a1.68,1.68,0,0,1,1.26-3l20.35,3.71a1.68,1.68,0,0,1,1.21.89,1.72,1.72,0,0,1,0,1.5,60.18,60.18,0,0,0-3.24,7.78,1.66,1.66,0,0,1-1.07,1.06A1.6,1.6,0,0,1,45.56,194.58Zm-9.63-10.33,8.78,6c.51-1.38,1.09-2.76,1.71-4.12Z" transform="translate(0 -105.51)"/>
    <path d="M189.65,249.58l-.31,0L169,245.84a1.66,1.66,0,0,1-1.2-.89,1.72,1.72,0,0,1,0-1.5,60.77,60.77,0,0,0,3.24-7.78,1.64,1.64,0,0,1,1.07-1.06,1.62,1.62,0,0,1,1.49.21l17,11.7a1.68,1.68,0,0,1-1,3.06Zm-17.84-6.64,10.46,1.91-8.74-6C173,240.2,172.44,241.58,171.81,242.94Z" transform="translate(0 -105.51)"/>
    <path d="M138.74,156a1.7,1.7,0,0,1-.76-.18,63.81,63.81,0,0,0-7.8-3.24,1.72,1.72,0,0,1-1.05-1.06,1.7,1.7,0,0,1,.21-1.47l11.71-17a1.69,1.69,0,0,1,3,1.25l-3.71,20.35a1.66,1.66,0,0,1-.9,1.2A1.69,1.69,0,0,1,138.74,156Zm-5.39-5.84c1.44.54,2.81,1.11,4.12,1.7l1.91-10.48Z" transform="translate(0 -105.51)"/>
    <path d="M28.53,249.63a1.7,1.7,0,0,1-1.55-1,1.68,1.68,0,0,1,.59-2l17-11.76a1.74,1.74,0,0,1,1.5-.22,1.66,1.66,0,0,1,1.06,1.07,60.77,60.77,0,0,0,3.24,7.78,1.63,1.63,0,0,1,0,1.49,1.66,1.66,0,0,1-1.2.9l-20.3,3.76A1.55,1.55,0,0,1,28.53,249.63Zm16.12-10.8-8.74,6.06L46.37,243C45.75,241.58,45.17,240.2,44.65,238.83Z" transform="translate(0 -105.51)"/>
    <path d="M142.5,296.79a1.67,1.67,0,0,1-1.39-.73l-11.71-17a1.66,1.66,0,0,1-.21-1.48,1.69,1.69,0,0,1,1.06-1.06,60.18,60.18,0,0,0,7.78-3.24,1.67,1.67,0,0,1,1.51,0,1.69,1.69,0,0,1,.91,1.2l3.7,20.3a1.68,1.68,0,0,1-1,1.85A1.83,1.83,0,0,1,142.5,296.79ZM133.41,279l6,8.72-1.9-10.44C136.16,277.9,134.79,278.47,133.41,279Z" transform="translate(0 -105.51)"/>
    <path d="M79.45,156a1.63,1.63,0,0,1-.75-.18,1.67,1.67,0,0,1-.91-1.2l-3.71-20.35a1.69,1.69,0,0,1,3-1.25l11.76,17a1.66,1.66,0,0,1,.21,1.48,1.7,1.7,0,0,1-1,1.06,64.81,64.81,0,0,0-7.85,3.24A1.63,1.63,0,0,1,79.45,156Zm-.66-14.66,1.92,10.53q2-.88,4.17-1.71Z" transform="translate(0 -105.51)"/>
    <path d="M172.62,194.63a1.89,1.89,0,0,1-.53-.08,1.7,1.7,0,0,1-1.07-1.07,58.31,58.31,0,0,0-3.23-7.83,1.66,1.66,0,0,1,1.2-2.39l20.36-3.71a1.67,1.67,0,0,1,1.26,3l-17,11.76A1.65,1.65,0,0,1,172.62,194.63Zm-.86-8.47c.63,1.38,1.21,2.77,1.72,4.16l8.81-6.08Z" transform="translate(0 -105.51)"/>
    <path d="M498.25,278.74c0,40.72-32.74,73.72-73.12,73.72H407.29c.34-.64.71-1.31,1-2a76.8,76.8,0,0,0,8.12-34.23,76.81,76.81,0,0,0-47.09-70.69h0a71.68,71.68,0,0,0-8-2.83,75.75,75.75,0,0,0-19-3.17c-.6,0-1.16,0-1.75,0h-1.31c-2.08,0-4.17.08-6.22.26-1.23.08-2.46.23-3.65.41a59.25,59.25,0,0,0-6,1,9.63,9.63,0,0,0-1,.22c-.07,0-.11,0-.19,0a96.34,96.34,0,0,0-4.32-12.7,102.73,102.73,0,0,0-40.78-47.94,1.51,1.51,0,0,1-.26-.15c-1.16-.71-2.31-1.38-3.51-2-.67-.37-1.34-.74-2-1.11l-.86-.45a103.61,103.61,0,0,0-87.2-3.73,81.9,81.9,0,0,1,160.73,6,36.1,36.1,0,0,1,12.1-2.09,35.64,35.64,0,0,1,35.83,35.43v.44a72.09,72.09,0,0,1,33.19-8C465.51,205.07,498.25,238.07,498.25,278.74Z" transform="translate(0 -105.51)" style="fill:#e6e6e6"/>
    <path d="M417.38,315.91c0,42.38-34.54,76.72-77.1,76.72H112.88a63.93,63.93,0,1,1,0-127.86,61.83,61.83,0,0,1,8.2.54c1.13-55.51,46.7-100.19,102.78-100.19a102.76,102.76,0,0,1,99.36,76,76.84,76.84,0,0,1,17.06-1.92C382.84,239.2,417.38,273.54,417.38,315.91Z" transform="translate(0 -105.51)" style="fill:#e6e6e6"/>
    <path d="M498.24,278.43c0,40.71-32.74,73.71-73.12,73.71H408.59s0,0,0,0a77.09,77.09,0,0,1-67.94,40.45H113.21c76.84,0,156.78-154.21,157.26-215.89v-.63a.16.16,0,0,0,.08,0,95.47,95.47,0,0,1,8.38,4.81h0c2.76-.26,18.85-34.53,18.85-63.62A82.24,82.24,0,0,1,344,179a36.11,36.11,0,0,1,12.11-2.08,35.64,35.64,0,0,1,35.83,35.42v.44a72,72,0,0,1,33.18-8C465.5,204.75,498.24,237.75,498.24,278.43Z" transform="translate(0 -105.51)" style="fill:#666;opacity:0.25"/>
    <path d="M498.25,278.74c0,40.72-32.74,73.72-73.12,73.72H408.07a.72.72,0,0,1-.15.22,77.07,77.07,0,0,1-67.64,39.93H189.06c24.17-.82,239.24-17.13,219.35-93.86-13.82-53.23-66.19-56.06-85.23-51.59a35.29,35.29,0,0,0-15.9,8.86c0-3,11.32-12.81,15.16-14.6s12.08-2.54,17.93-2.54a77.1,77.1,0,0,1,77,77,73.75,73.75,0,0,1-.67,10c11.59-3.58,88.28-28.27,70.14-69.25-25.63-57.84-78.41-45.44-94.87-39.44-6.78,2.46-12.7,8-12.7,8,.19-2.94,11.81-12.11,12.66-12.11a72.09,72.09,0,0,1,33.19-8C465.51,205.07,498.25,238.07,498.25,278.74Z" transform="translate(0 -105.51)" style="fill:#333;opacity:0.5"/>
    <path d="M424.8,202.65a74.82,74.82,0,0,0-31.21,6.84,38,38,0,0,0-48.26-33.21,84,84,0,0,0-164.25-4.36c-35.77,15.58-61.47,50.54-63.11,91.31-2.11-.21-4.26-.32-6.4-.32-36.46,0-66.12,29.51-66.12,65.79s29.66,65.79,66.12,65.79H339a79,79,0,0,0,68.88-40.28H424.8c41.46,0,75.2-34,75.2-75.8S466.26,202.65,424.8,202.65ZM339,390.76H111.57c-34.4,0-62.39-27.84-62.39-62.06s28-62.06,62.39-62.06a59.75,59.75,0,0,1,8,.52,1.87,1.87,0,0,0,2.11-1.81c.82-40.47,26.24-75.3,61.75-90.38.12,0,.25,0,.37,0a101.09,101.09,0,0,1,131.92,54.3,94.81,94.81,0,0,1,4.23,12.43,2.08,2.08,0,0,0,2.5,1.49c2.19-.52,14.38-1.88,16.58-1.88a74.39,74.39,0,0,1,21.43,3.13,69.81,69.81,0,0,1,7.74,2.74l.21.08A74.56,74.56,0,0,1,414,315.92a72.94,72.94,0,0,1-7.94,33.38c-.22.5-1.06,2.29-1.1,2.52A75.33,75.33,0,0,1,339,390.76ZM424.8,350H410.35a77,77,0,0,0,7.82-34.12,78.74,78.74,0,0,0-48.36-72.62l-.22-.08a76.12,76.12,0,0,0-8-2.83A78.88,78.88,0,0,0,339,237.1c-2.32,0-13.84,1.21-15.58,1.56a100.83,100.83,0,0,0-3.87-11A105.29,105.29,0,0,0,186,169.56a79.41,79.41,0,0,1,76.71-57.94c39,0,72.93,29.1,78.92,67.7a2.08,2.08,0,0,0,2.76,1.64,34,34,0,0,1,11.41-2,33.58,33.58,0,0,1,33.74,33.33v.45a2.09,2.09,0,0,0,3.05,1.85,69.56,69.56,0,0,1,32.23-7.81c39.16,0,71,32.11,71,71.59S464,350,424.8,350Z" transform="translate(0 -105.51)"/>
</svg>