<svg xmlns="http://www.w3.org/2000/svg" viewBox="0 0 500 292.36">
    <path d="M183.37,205.3a90.76,90.76,0,0,1-65,85.46,89.34,89.34,0,0,1-25.73,3.74A90.81,90.81,0,0,1,2.13,211.3c-.24-2.5-.34-5-.34-7.63a90.74,90.74,0,0,1,60.69-85.61A88.72,88.72,0,0,1,89.74,113a13.39,13.39,0,0,1,1.39,0,72.63,72.63,0,1,0,92.24,92.37Z" transform="translate(0 -103.82)" style="fill:#29abe2"/>
    <path d="M118.34,290.71v.05a89.34,89.34,0,0,1-25.73,3.74A90.81,90.81,0,0,1,2.13,211.3c-.24-2.5-.34-5-.34-7.63a90.74,90.74,0,0,1,60.69-85.61A88.72,88.72,0,0,1,89.74,113c-7.06.29-21.26,3-27.36,6-11.15,5.41-25.79,17.69-33.37,28C20,159.1,15.47,176,14.89,190.09,14,212.64,17,230.24,27.53,246.79c8.32,13,23.7,30.36,51,40.85C97.05,293.45,112,291.24,118.34,290.71Z" transform="translate(0 -103.82)" style="fill:#e6e6e6;opacity:0.2"/>
    <path d="M62.48,118.06C43.72,129.53,36.84,135.9,29,145.4s-14.84,24-16.28,41.09c-1.26,15-6.78,24.81-10.55,24.81-.24-2.5-.34-5-.34-7.63A90.74,90.74,0,0,1,62.48,118.06Z" transform="translate(0 -103.82)" style="fill:#f2f2f2;opacity:0.2"/>
    <polygon points="125.58 29.77 128.15 14.18 130.72 29.77 146.31 32.34 130.72 34.91 128.15 50.49 125.58 34.91 110 32.34 125.58 29.77" style="fill:#29abe2"/>
    <polygon points="150.61 47.16 152.15 37.81 153.69 47.16 163.04 48.7 153.69 50.24 152.15 59.6 150.61 50.24 141.25 48.7 150.61 47.16" style="fill:#29abe2"/>
    <polygon points="136.79 61.09 137.82 54.86 138.85 61.09 145.08 62.12 138.85 63.15 137.82 69.38 136.79 63.15 130.56 62.12 136.79 61.09" style="fill:#29abe2"/>
    <path d="M183.68,203.5l-.31,0a1.83,1.83,0,0,0-1.72,1.22,70.82,70.82,0,1,1-89.94-90.06,1.81,1.81,0,0,0-.58-3.53h0C40.87,111.91,0,153.44,0,203.69A92.72,92.72,0,0,0,92.61,296.3c50.18,0,91.71-40.81,92.57-91A1.82,1.82,0,0,0,183.68,203.5Zm-91.07,91a90.78,90.78,0,0,1-1.49-181.55,72.63,72.63,0,1,0,92.25,92.36A90.77,90.77,0,0,1,92.61,294.48Z" transform="translate(0 -103.82)"/>
    <path d="M109.7,138l14.3,2.36,2.36,14.3a1.81,1.81,0,0,0,3.58,0l2.36-14.3L146.6,138a1.81,1.81,0,0,0,0-3.58L132.3,132l-2.36-14.3a1.81,1.81,0,0,0-3.58,0L124,132l-14.3,2.36a1.81,1.81,0,0,0,0,3.58Zm15.88-4.36L128.15,118l2.57,15.59,15.59,2.57-15.59,2.57-2.57,15.58-2.57-15.58L110,136.16Z" transform="translate(0 -103.82)"/>
    <path d="M139.44,152.52a1.81,1.81,0,0,0,1.52,1.79l8.07,1.33,1.33,8.07a1.81,1.81,0,0,0,3.58,0l1.33-8.07,8.07-1.33a1.81,1.81,0,0,0,0-3.58l-8.07-1.33-1.33-8.07a1.81,1.81,0,0,0-3.58,0L149,149.4,141,150.73A1.81,1.81,0,0,0,139.44,152.52ZM150.61,151l1.54-9.35,1.54,9.35,9.35,1.54-9.35,1.54-1.54,9.36-1.54-9.36-9.36-1.54Z" transform="translate(0 -103.82)"/>
    <path d="M140.43,163.33l-.82-5a1.81,1.81,0,0,0-3.58,0l-.82,5-5,.82a1.81,1.81,0,0,0,0,3.58l5,.82.82,4.95a1.81,1.81,0,0,0,3.58,0l.82-4.95,4.95-.82a1.81,1.81,0,0,0,0-3.58ZM138.85,167l-1,6.23-1-6.23-6.23-1,6.23-1,1-6.23,1,6.23,6.23,1Z" transform="translate(0 -103.82)"/>
    <path d="M498.22,278.29c0,41.47-33.35,75.08-74.47,75.08H405.57c.34-.64.72-1.33,1-2a76.22,76.22,0,0,0,6.67-19.27,75,75,0,0,0,1.6-15.59,78.25,78.25,0,0,0-48-72h0a72.35,72.35,0,0,0-8.12-2.88,77.55,77.55,0,0,0-19.31-3.23c-.61,0-1.18,0-1.78,0h-1.33c-2.13,0-4.25.07-6.34.26-1.25.08-2.5.23-3.72.42-2.08.26-4.09.57-6.07,1-.34.08-.72.12-1.06.23-.07,0-.11,0-.19,0a98,98,0,0,0-4.4-12.94A104.54,104.54,0,0,0,273,178.56l-.27-.16c-1.17-.72-2.35-1.4-3.56-2.08-.69-.38-1.37-.76-2.09-1.14l-.87-.46a105.61,105.61,0,0,0-88.81-3.79A83.41,83.41,0,0,1,341.12,177a36.53,36.53,0,0,1,48.82,34v.46a73.39,73.39,0,0,1,33.81-8.2C464.87,203.25,498.22,236.87,498.22,278.29Z" transform="translate(0 -103.82)" style="fill:#e6e6e6"/>
    <path d="M415.85,316.15c0,43.16-35.18,78.13-78.53,78.13H105.71a65.11,65.11,0,1,1,0-130.22,62.29,62.29,0,0,1,8.35.55c1.16-56.54,47.57-102,104.68-102A104.63,104.63,0,0,1,319.94,240,78.6,78.6,0,0,1,337.32,238C380.67,238,415.85,273,415.85,316.15Z" transform="translate(0 -103.82)" style="fill:#e6e6e6"/>
    <path d="M498.21,278c0,41.46-33.35,75.08-74.47,75.08H406.89s0,0,0,0a78.5,78.5,0,0,1-69.2,41.2H106.05c78.27,0,159.68-157.06,160.17-219.88v-.65a.14.14,0,0,0,.08,0,94,94,0,0,1,8.53,4.9h0c2.81-.27,19.2-35.17,19.2-64.8a83.74,83.74,0,0,1,47,62.82,36.91,36.91,0,0,1,12.33-2.12,36.3,36.3,0,0,1,36.5,36.08v.45a73.46,73.46,0,0,1,33.8-8.19C464.86,202.93,498.21,236.54,498.21,278Z" transform="translate(0 -103.82)" style="fill:#666;opacity:0.25"/>
    <path d="M498.22,278.29c0,41.47-33.35,75.08-74.47,75.08H406.37a1,1,0,0,1-.15.23,78.52,78.52,0,0,1-68.9,40.67h-154c24.62-.84,243.67-17.45,223.41-95.6-14.07-54.22-67.41-57.1-86.8-52.55a35.93,35.93,0,0,0-16.2,9c0-3.07,11.53-13.05,15.44-14.87s12.31-2.59,18.26-2.59a78.52,78.52,0,0,1,78.44,78.46,74.83,74.83,0,0,1-.68,10.21c11.8-3.64,89.91-28.79,71.44-70.53-26.1-58.91-79.86-46.28-96.63-40.17-6.9,2.5-12.94,8.12-12.94,8.12.19-3,12-12.33,12.9-12.33a73.39,73.39,0,0,1,33.81-8.2C464.87,203.25,498.22,236.87,498.22,278.29Z" transform="translate(0 -103.82)" style="fill:#333;opacity:0.5"/>
    <path d="M423.4,200.79a76.1,76.1,0,0,0-31.78,7,38.71,38.71,0,0,0-49.16-33.83,85.5,85.5,0,0,0-167.28-4.44c-36.44,15.87-62.62,51.47-64.29,93a64.06,64.06,0,0,0-6.51-.32c-37.14,0-67.34,30.05-67.34,67s30.2,67,67.34,67H336a80.52,80.52,0,0,0,70.16-41H423.4c42.24,0,76.6-34.64,76.6-77.21S465.64,200.79,423.4,200.79ZM336,392.39H104.38c-35,0-63.55-28.36-63.55-63.22S69.34,266,104.38,266a62.14,62.14,0,0,1,8.1.53,1.89,1.89,0,0,0,2.14-1.84c.84-41.22,26.73-76.69,62.89-92a2.32,2.32,0,0,0,.38,0,103,103,0,0,1,134.37,55.31,99.37,99.37,0,0,1,4.31,12.66,2.11,2.11,0,0,0,2.54,1.52c2.24-.53,14.65-1.91,16.89-1.91a76.06,76.06,0,0,1,21.83,3.18,71.12,71.12,0,0,1,7.88,2.8l.22.07a76,76,0,0,1,46.47,70,74.43,74.43,0,0,1-8.09,34c-.22.51-1.08,2.33-1.12,2.56A76.73,76.73,0,0,1,336,392.39Zm87.41-41.48H408.69a78.57,78.57,0,0,0,8-34.76,80.2,80.2,0,0,0-49.25-74l-.22-.08a74.51,74.51,0,0,0-8.15-2.88,80.4,80.4,0,0,0-23-3.35c-2.37,0-14.1,1.23-15.87,1.59a101.87,101.87,0,0,0-3.95-11.24,107.23,107.23,0,0,0-136-59.14,80.88,80.88,0,0,1,78.13-59c39.72,0,74.27,29.64,80.38,69a2.07,2.07,0,0,0,1,1.5,2.11,2.11,0,0,0,1.8.18,34.43,34.43,0,0,1,46,32v.46a2.12,2.12,0,0,0,3.1,1.88,70.78,70.78,0,0,1,32.82-8c39.9,0,72.35,32.71,72.35,72.91S463.3,350.91,423.4,350.91Z" transform="translate(0 -103.82)"/>
</svg>