<svg xmlns="http://www.w3.org/2000/svg" viewBox="0 0 500 446.8">
    <rect x="383.28" y="348.01" width="36.93" height="129.26" rx="18.47" transform="translate(309.34 -177.93) rotate(35)" style="fill:#29abe2"/>
    <path d="M428.24,360.05h0a14.77,14.77,0,0,1,12.08,23.25l-52.95,75.63a14.78,14.78,0,0,1-20.58,3.63A14.77,14.77,0,0,1,363.17,442l52.95-75.63a14.85,14.85,0,0,1,12.12-6.31m0-3.69a18.44,18.44,0,0,0-15.14,7.88l-53,75.63a18.47,18.47,0,0,0,4.53,25.72h0a18.46,18.46,0,0,0,25.72-4.54l53-75.63a18.47,18.47,0,0,0-4.53-25.72h0a18.46,18.46,0,0,0-10.58-3.34Z" transform="translate(0 -22.13)"/>
    <circle cx="320.42" cy="399.1" r="26.88" style="fill:#adfffa"/>
    <path d="M338.09,427.92,333,433.1a14.23,14.23,0,0,1-1.52,1.38,17.93,17.93,0,0,0,5.46-8.19l2.23-6.89c2-6.06-1.63-14.52-6.26-19.61a18.15,18.15,0,0,0-5.17-3.91l-1.84-1a27,27,0,0,1,12.39,6.25l2.91,5.58A18.21,18.21,0,0,1,338.09,427.92Z" transform="translate(0 -22.13)" style="fill:#999;opacity:0.25"/>
    <path d="M347.31,421.28A26.87,26.87,0,0,1,333.1,445a27.12,27.12,0,0,1-20.71,1.94A26.89,26.89,0,0,1,297.34,435a26.83,26.83,0,0,1-1.12-25.34l-.73,4.83a18.23,18.23,0,0,0,9.94,19l6.48,3.22a18.19,18.19,0,0,0,18.54-1.41A17.77,17.77,0,0,0,333,433.1l5.08-5.18a18.21,18.21,0,0,0,3.12-21.17l-2.91-5.58a26.3,26.3,0,0,1,5.75,7.27,26.57,26.57,0,0,1,3.14,10.28C347.27,419.57,347.31,420.43,347.31,421.28Z" transform="translate(0 -22.13)" style="fill:#999;opacity:0.5"/>
    <path d="M320.42,448.93a27.7,27.7,0,1,1,27.7-27.7A27.73,27.73,0,0,1,320.42,448.93Zm0-53.77a26.07,26.07,0,1,0,26.07,26.07A26.1,26.1,0,0,0,320.42,395.16Z" transform="translate(0 -22.13)"/>
    <rect x="231.13" y="348.01" width="36.93" height="129.26" rx="18.47" transform="translate(281.82 -90.66) rotate(35)" style="fill:#29abe2"/>
    <path d="M276.1,360.05h0a14.77,14.77,0,0,1,12.08,23.25l-53,75.63A14.77,14.77,0,0,1,211,442l53-75.63a14.82,14.82,0,0,1,12.12-6.31m0-3.69A18.44,18.44,0,0,0,261,364.24l-53,75.63a18.46,18.46,0,0,0,4.54,25.72h0a18.46,18.46,0,0,0,25.72-4.54l52.95-75.63a18.47,18.47,0,0,0-4.53-25.72h0a18.43,18.43,0,0,0-10.58-3.34Z" transform="translate(0 -22.13)"/>
    <circle cx="168.28" cy="399.1" r="26.88" style="fill:#adfffa"/>
    <path d="M185.94,427.92l-5.07,5.18a15.26,15.26,0,0,1-1.52,1.38,17.91,17.91,0,0,0,5.45-8.19L187,419.4c2-6.06-1.64-14.52-6.26-19.61a18.15,18.15,0,0,0-5.17-3.91l-1.85-1a26.94,26.94,0,0,1,12.39,6.25l2.91,5.58A18.19,18.19,0,0,1,185.94,427.92Z" transform="translate(0 -22.13)" style="fill:#999;opacity:0.25"/>
    <path d="M195.16,421.28A26.82,26.82,0,0,1,181,445a27.1,27.1,0,0,1-20.7,1.94A27,27,0,0,1,145.19,435a26.86,26.86,0,0,1-2.66-21.35,26.79,26.79,0,0,1,1.55-4l-.74,4.83a18.24,18.24,0,0,0,9.94,19l6.48,3.22a18.23,18.23,0,0,0,21.11-3.59l5.07-5.18a18.19,18.19,0,0,0,3.12-21.17l-2.91-5.58A27,27,0,0,1,195,418.72C195.12,419.57,195.16,420.43,195.16,421.28Z" transform="translate(0 -22.13)" style="fill:#999;opacity:0.5"/>
    <path d="M168.28,448.93a27.7,27.7,0,1,1,27.7-27.7A27.74,27.74,0,0,1,168.28,448.93Zm0-53.77a26.07,26.07,0,1,0,26.06,26.07A26.1,26.1,0,0,0,168.28,395.16Z" transform="translate(0 -22.13)"/>
    <rect x="78.99" y="348.01" width="36.93" height="129.26" rx="18.47" transform="translate(254.31 -3.4) rotate(35)" style="fill:#29abe2"/>
    <path d="M124,360.05h0A14.77,14.77,0,0,1,136,383.3l-53,75.63A14.77,14.77,0,0,1,58.87,442l53-75.63A14.82,14.82,0,0,1,124,360.05m0-3.69a18.44,18.44,0,0,0-15.14,7.88l-53,75.63A18.46,18.46,0,1,0,86.1,461.05l53-75.63a18.46,18.46,0,0,0-4.54-25.72h0A18.4,18.4,0,0,0,124,356.36Z" transform="translate(0 -22.13)"/>
    <path d="M498.07,210.56c0,44.78-36,81.08-80.43,81.08H398c.37-.7.78-1.43,1.11-2.17a84.24,84.24,0,0,0,8.93-37.65,84.49,84.49,0,0,0-51.79-77.77h0a79.25,79.25,0,0,0-8.77-3.11,83.61,83.61,0,0,0-20.86-3.49c-.65,0-1.27,0-1.92,0h-1.44c-2.29,0-4.58.08-6.84.29-1.35.08-2.7.25-4,.45a64.54,64.54,0,0,0-6.56,1.11c-.37.08-.78.12-1.15.24-.08,0-.12,0-.2,0a108.82,108.82,0,0,0-4.75-14,113,113,0,0,0-44.87-52.73l-.29-.16c-1.27-.78-2.54-1.52-3.85-2.26-.73-.41-1.47-.82-2.25-1.23-.33-.16-.62-.32-.94-.49a114,114,0,0,0-95.92-4.1,90.09,90.09,0,0,1,176.8,6.6,39.75,39.75,0,0,1,13.31-2.29c21.76,0,39.42,17.45,39.42,39v.49a79.32,79.32,0,0,1,36.5-8.85C462.06,129.51,498.07,165.81,498.07,210.56Z" transform="translate(0 -22.13)" style="fill:#e6e6e6"/>
    <path d="M409.12,251.44c0,46.61-38,84.39-84.81,84.39H74.17c-39,0-70.67-31.51-70.67-70.32a70.5,70.5,0,0,1,70.67-70.32,67.43,67.43,0,0,1,9,.59c1.24-61.07,51.37-110.21,113.05-110.21a113,113,0,0,1,109.3,83.6,84.24,84.24,0,0,1,18.77-2.11C371.13,167.06,409.12,204.84,409.12,251.44Z" transform="translate(0 -22.13)" style="fill:#e6e6e6"/>
    <path d="M498.07,210.21c0,44.78-36,81.08-80.43,81.08H399.45s0,0-.05,0a84.76,84.76,0,0,1-74.73,44.5H74.53c84.53,0,172.46-169.63,173-237.48v-.7a.14.14,0,0,0,.08,0,101.64,101.64,0,0,1,9.22,5.29h0c3-.29,20.73-38,20.73-70a90.45,90.45,0,0,1,50.81,67.85,39.48,39.48,0,0,1,52.73,36.67V138a79.36,79.36,0,0,1,36.51-8.85C462.05,129.16,498.07,165.46,498.07,210.21Z" transform="translate(0 -22.13)" style="fill:#666;opacity:0.25"/>
    <path d="M498.07,210.56c0,44.78-36,81.08-80.43,81.08H398.88a1,1,0,0,1-.16.25,84.8,84.8,0,0,1-74.41,43.92H158c26.59-.9,263.17-18.85,241.29-103.25-15.2-58.55-72.81-61.66-93.75-56.75A38.79,38.79,0,0,0,288,185.56c0-3.32,12.45-14.09,16.67-16.06s13.29-2.8,19.73-2.8a84.81,84.81,0,0,1,84.71,84.75,80.31,80.31,0,0,1-.74,11c12.75-3.93,97.11-31.1,77.16-76.17-28.19-63.63-86.25-50-104.36-43.39-7.46,2.71-14,8.77-14,8.77.2-3.24,13-13.32,13.93-13.32a79.32,79.32,0,0,1,36.5-8.85C462.06,129.51,498.07,165.81,498.07,210.56Z" transform="translate(0 -22.13)" style="fill:#333;opacity:0.5"/>
    <path d="M417.28,126.85A82.14,82.14,0,0,0,383,134.38a41.8,41.8,0,0,0-53.09-36.54,92.35,92.35,0,0,0-180.67-4.79c-39.35,17.14-67.62,55.59-69.43,100.44-2.32-.23-4.68-.35-7-.35C32.62,193.14,0,225.6,0,265.51s32.62,72.36,72.73,72.36H322.86a87,87,0,0,0,75.78-44.3h18.64c45.61,0,82.72-37.41,82.72-83.38S462.89,126.85,417.28,126.85ZM322.86,333.78H72.73c-37.85,0-68.63-30.63-68.63-68.27s30.78-68.27,68.63-68.27a66.59,66.59,0,0,1,8.74.57,2,2,0,0,0,2.32-2c.91-44.52,28.87-82.83,67.92-99.41a2.7,2.7,0,0,0,.41,0,111.17,111.17,0,0,1,145.12,59.73,105.32,105.32,0,0,1,4.65,13.67,2.3,2.3,0,0,0,2.75,1.65c2.41-.58,15.82-2.07,18.24-2.07a82.18,82.18,0,0,1,23.58,3.43,77.16,77.16,0,0,1,8.51,3l.23.08a82,82,0,0,1,50.19,75.57,80.34,80.34,0,0,1-8.73,36.72c-.25.55-1.17,2.52-1.21,2.77A82.9,82.9,0,0,1,322.86,333.78ZM417.28,289h-15.9a84.75,84.75,0,0,0,8.6-37.53,86.62,86.62,0,0,0-53.19-79.88l-.24-.09a80.84,80.84,0,0,0-8.8-3.11,86.7,86.7,0,0,0-24.87-3.62c-2.56,0-15.22,1.32-17.14,1.71a111.81,111.81,0,0,0-4.26-12.13,115.82,115.82,0,0,0-146.9-63.87A87.36,87.36,0,0,1,239,26.71c42.9,0,80.22,32,86.81,74.48a2.34,2.34,0,0,0,1.09,1.62,2.38,2.38,0,0,0,1.95.19,37.08,37.08,0,0,1,12.54-2.17c20.47,0,37.13,16.45,37.13,36.67V138a2.29,2.29,0,0,0,3.34,2,76.55,76.55,0,0,1,35.46-8.59c43.08,0,78.13,35.32,78.13,78.75S460.36,289,417.28,289Z" transform="translate(0 -22.13)"/>
</svg>