<svg xmlns="http://www.w3.org/2000/svg" viewBox="0 0 500 464.28">
    <rect x="130.57" y="342.55" width="42.64" height="149.22" rx="21.32" transform="translate(266.75 -29.53) rotate(35)" style="fill:#29abe2"/>
    <rect x="228.68" y="342.55" width="42.64" height="149.22" rx="21.32" transform="translate(284.49 -85.81) rotate(35)" style="fill:#29abe2"/>
    <rect x="326.79" y="342.55" width="42.64" height="149.22" rx="21.32" transform="translate(302.23 -142.08) rotate(35)" style="fill:#29abe2"/>
    <path d="M182.48,356.45h0a17.06,17.06,0,0,1,14,26.84L135.29,470.6A17.05,17.05,0,1,1,107.35,451l61.14-87.31a17.08,17.08,0,0,1,14-7.28m0-4.26A21.32,21.32,0,0,0,165,361.28L103.86,448.6a21.31,21.31,0,1,0,34.92,24.45l61.14-87.31a21.33,21.33,0,0,0-17.44-33.55Z" transform="translate(0 -17.86)"/>
    <path d="M280.59,356.45h0a17.06,17.06,0,0,1,14,26.84L233.4,470.6A17.05,17.05,0,1,1,205.46,451l61.14-87.31a17.08,17.08,0,0,1,14-7.28m0-4.26a21.29,21.29,0,0,0-17.48,9.09L202,448.6a21.31,21.31,0,1,0,34.92,24.45L298,385.74a21.32,21.32,0,0,0-17.44-33.55Z" transform="translate(0 -17.86)"/>
    <path d="M378.7,356.45h0a17.06,17.06,0,0,1,13.95,26.84L331.51,470.6A17.05,17.05,0,0,1,303.57,451l61.14-87.31a17.08,17.08,0,0,1,14-7.28m0-4.26a21.29,21.29,0,0,0-17.48,9.09L300.08,448.6A21.32,21.32,0,0,0,335,473.05l61.13-87.31a21.32,21.32,0,0,0-17.44-33.55Z" transform="translate(0 -17.86)"/>
    <path d="M498.07,206.29c0,44.78-36,81.08-80.43,81.08H398c.37-.69.78-1.43,1.11-2.17a82.86,82.86,0,0,0,7.21-20.81,82,82,0,0,0,1.72-16.84,84.51,84.51,0,0,0-51.79-77.77h0a81.35,81.35,0,0,0-8.77-3.11,83.14,83.14,0,0,0-20.86-3.48c-.65,0-1.27,0-1.92,0h-1.44c-2.29,0-4.58.08-6.84.28-1.35.08-2.7.25-4,.45-2.26.29-4.43.62-6.56,1.11a9.46,9.46,0,0,0-1.15.25c-.08,0-.12,0-.2,0a108.44,108.44,0,0,0-4.75-14,113,113,0,0,0-44.87-52.73l-.29-.16c-1.27-.78-2.54-1.52-3.85-2.25-.73-.41-1.47-.82-2.25-1.23l-.94-.5a114,114,0,0,0-95.92-4.09,90.09,90.09,0,0,1,176.8,6.59,39.75,39.75,0,0,1,13.31-2.29c21.76,0,39.42,17.45,39.42,39v.5a79.2,79.2,0,0,1,36.5-8.85C462.06,125.25,498.07,161.55,498.07,206.29Z" transform="translate(0 -17.86)" style="fill:#e6e6e6"/>
    <path d="M409.12,247.18c0,46.6-38,84.38-84.81,84.38H74.17c-39,0-70.67-31.5-70.67-70.32a70.51,70.51,0,0,1,70.67-70.32,69.13,69.13,0,0,1,9,.59c1.24-61.06,51.37-110.2,113.05-110.2a113,113,0,0,1,109.3,83.59,84.24,84.24,0,0,1,18.77-2.11C371.13,162.79,409.12,200.57,409.12,247.18Z" transform="translate(0 -17.86)" style="fill:#e6e6e6"/>
    <path d="M498.07,205.94c0,44.78-36,81.08-80.43,81.08H399.45s0,0-.05,0a84.76,84.76,0,0,1-74.73,44.5H74.53c84.53,0,172.46-169.63,173-237.48v-.69a.14.14,0,0,0,.08,0,104,104,0,0,1,9.22,5.28h0c3-.28,20.73-38,20.73-70A90.45,90.45,0,0,1,328.4,96.58a39.81,39.81,0,0,1,13.32-2.29,39.2,39.2,0,0,1,39.41,39v.49a79.36,79.36,0,0,1,36.51-8.85C462.05,124.89,498.07,161.2,498.07,205.94Z" transform="translate(0 -17.86)" style="fill:#666;opacity:0.25"/>
    <path d="M498.07,206.29c0,44.78-36,81.08-80.43,81.08H398.88a.76.76,0,0,1-.16.25,84.8,84.8,0,0,1-74.41,43.92H158c26.59-.9,263.17-18.84,241.29-103.25-15.2-58.55-72.81-61.66-93.75-56.75A38.85,38.85,0,0,0,288,181.3c0-3.32,12.45-14.1,16.67-16.06s13.29-2.81,19.73-2.81a84.81,84.81,0,0,1,84.71,84.75,80.2,80.2,0,0,1-.74,11c12.75-3.93,97.11-31.1,77.16-76.17-28.19-63.63-86.25-50-104.36-43.39-7.46,2.71-14,8.77-14,8.77.2-3.23,13-13.31,13.93-13.31a79.2,79.2,0,0,1,36.5-8.85C462.06,125.25,498.07,161.55,498.07,206.29Z" transform="translate(0 -17.86)" style="fill:#333;opacity:0.5"/>
    <path d="M417.28,122.58A82.29,82.29,0,0,0,383,130.11a41.8,41.8,0,0,0-53.09-36.53,92.35,92.35,0,0,0-180.67-4.79c-39.35,17.13-67.62,55.58-69.43,100.43-2.32-.23-4.68-.35-7-.35C32.62,188.87,0,221.34,0,261.24s32.62,72.37,72.73,72.37H322.86a87,87,0,0,0,75.78-44.31h18.64c45.61,0,82.72-37.4,82.72-83.38S462.89,122.58,417.28,122.58ZM322.86,329.51H72.73c-37.85,0-68.63-30.62-68.63-68.27S34.88,193,72.73,193a66.59,66.59,0,0,1,8.74.57,2.08,2.08,0,0,0,1.61-.47,2.05,2.05,0,0,0,.71-1.52c.91-44.51,28.87-82.82,67.92-99.41a2.7,2.7,0,0,0,.41,0,111.2,111.2,0,0,1,145.12,59.73,106.35,106.35,0,0,1,4.65,13.67,2.29,2.29,0,0,0,2.75,1.65c2.41-.57,15.82-2.07,18.24-2.07a82.19,82.19,0,0,1,23.58,3.44,77,77,0,0,1,8.51,3l.23.08a82,82,0,0,1,50.19,75.57,80.34,80.34,0,0,1-8.73,36.72c-.25.55-1.17,2.52-1.21,2.77A82.88,82.88,0,0,1,322.86,329.51Zm94.42-44.8h-15.9a84.69,84.69,0,0,0,8.6-37.53,86.62,86.62,0,0,0-53.19-79.88l-.24-.08a83.14,83.14,0,0,0-8.8-3.12,86.7,86.7,0,0,0-24.87-3.62c-2.56,0-15.22,1.33-17.14,1.72a112,112,0,0,0-4.26-12.14,115.82,115.82,0,0,0-146.9-63.87A87.35,87.35,0,0,1,239,22.45c42.9,0,80.22,32,86.81,74.47a2.29,2.29,0,0,0,3,1.81,37.08,37.08,0,0,1,12.54-2.16c20.47,0,37.13,16.44,37.13,36.67v.49a2.29,2.29,0,0,0,3.34,2,76.44,76.44,0,0,1,35.46-8.6c43.08,0,78.13,35.33,78.13,78.75S460.36,284.71,417.28,284.71Z" transform="translate(0 -17.86)"/>
</svg>