<svg xmlns="http://www.w3.org/2000/svg" viewBox="0 0 500 429.01">
    <path d="M497.5,240.42c0,56.85-46.35,103-103.5,103H88.75c-47.6,0-86.25-38.4-86.25-85.8s38.65-85.8,86.25-85.8a89,89,0,0,1,11,.7C101.25,98,162.45,38,237.7,38A138,138,0,0,1,371.1,140a102.08,102.08,0,0,1,22.9-2.6C451.15,137.42,497.5,183.52,497.5,240.42Z" transform="translate(0 -35.5)" style="fill:#e6e6e6"/>
    <path d="M497.5,240.42c0,56.85-46.35,103-103.5,103H88.75c103.45,0,211.1-208.25,211.1-290.55v-.1A137.72,137.72,0,0,1,371.1,140a102.08,102.08,0,0,1,22.9-2.6C451.15,137.42,497.5,183.52,497.5,240.42Z" transform="translate(0 -35.5)" style="fill:#666;opacity:0.25"/>
    <path d="M497.5,240.42c0,56.85-46.35,103-103.5,103H191c32.45-1.1,321.16-23,294.45-126-18.54-71.47-88.83-75.29-114.4-69.25A47,47,0,0,0,349.7,160c0-4.4,17.8-19.4,21.4-20a102.08,102.08,0,0,1,22.9-2.6C451.15,137.42,497.5,183.52,497.5,240.42Z" transform="translate(0 -35.5)" style="fill:#333;opacity:0.5"/>
    <path d="M394,345.89H88.75C39.81,345.89,0,306.27,0,257.58s39.81-88.32,88.75-88.32c2.88,0,5.75.15,8.59.43,3-74.25,65.39-134.19,140.38-134.19,62.88,0,118.11,41.64,135.16,101.57A106.19,106.19,0,0,1,394,134.94c58.45,0,106,47.31,106,105.47S452.45,345.89,394,345.89ZM88.75,174.26C42.57,174.26,5,211.64,5,257.58s37.57,83.31,83.75,83.31H394c55.69,0,101-45.07,101-100.48S449.69,139.94,394,139.94a100.63,100.63,0,0,0-22.35,2.51,2.51,2.51,0,0,1-3-1.79C353,81.68,299.13,40.5,237.72,40.5c-73.22,0-134,59.23-135.47,132a2.47,2.47,0,0,1-.87,1.84,2.5,2.5,0,0,1-2,.58A81.83,81.83,0,0,0,88.75,174.26Z" transform="translate(0 -35.5)"/>
    <path d="M127.24,319a4.44,4.44,0,0,0,5.4,3.18c18.75-4.62,48-11.76,55-13.4,6.35,4,25.15,15.48,27.9,17.12l-17.85,8.28a6,6,0,0,0,0,10.77l18.1,8.34c-9.4,5.75-18.7,11.56-27.85,17.27l-54.7-13.6a4.46,4.46,0,0,0-5.5,3.08,4.41,4.41,0,0,0,2.95,5.55L174,379.29c-8.45,5.36-16.6,10.62-24.3,15.68a4.59,4.59,0,0,0,4.7,7.89c9.65-5.41,17.4-9.88,24.4-14.05l-10.45,46.35a4.5,4.5,0,0,0,8.7,2.33c5.5-18.85,14.7-50.11,16.8-57,6.7-3.92,25.1-14.94,27.4-16.33l-2,20.05a6,6,0,0,0,3,5.85,5.77,5.77,0,0,0,6.4-.49l15.25-11.91c.1,11.31.25,22.63.45,33.79-2.55,2.83-10.9,12.16-38.7,43.17a4.44,4.44,0,0,0,.2,6.3,4.5,4.5,0,0,0,6.3-.05l32.5-32.35c.25,9.82.45,19.6.75,29.18a4.55,4.55,0,0,0,9.1.09c.4-11.56.6-21.33.6-29.12l33,32.5a4.51,4.51,0,0,0,6.6-6.15c-16.2-18-34.75-38.71-39-43.57,0,0,.3-26.35.15-33.84l15.6,12a5.78,5.78,0,0,0,6.4.49,5.92,5.92,0,0,0,3-5.85L278.49,364q14,8.33,27.95,16.37L322.74,437a4.41,4.41,0,0,0,5.4,3.18,4.35,4.35,0,0,0,3.3-5.31l-10.6-46.19c8.2,4.71,16.4,9.37,24.4,13.84a4.45,4.45,0,0,0,6.15-1.49,4.51,4.51,0,0,0-1.35-6.2c-7.75-5.11-15.3-10-24-15.43l43.75-13.8a4.5,4.5,0,0,0-2.35-8.68c-18.8,4.61-48.05,11.76-55,13.35-1.55-.9-22.15-13.4-28.15-17l18.1-8.39a5.93,5.93,0,0,0,0-10.77l-17.85-8.23c9.25-5.76,18.5-11.51,27.6-17.27,3.85,1,16.05,4,54.8,13.5a4.47,4.47,0,0,0,5.5-3.08,4.56,4.56,0,0,0-3-5.56L326,299.85c8.1-5.16,16.15-10.32,23.95-15.38a4.45,4.45,0,0,0,1.45-6.21,4.5,4.5,0,0,0-6.05-1.63c-8.8,4.86-17.4,9.77-24.2,13.79l10.4-46.49a4.4,4.4,0,0,0-3.25-5.36,4.5,4.5,0,0,0-5.45,3.07c-6.85,23.62-14.85,50.91-16.8,57.22-1.5.84-21.65,12.9-27.35,16.42l2.1-20.49a5.89,5.89,0,0,0-3-5.81,5.8,5.8,0,0,0-6.4.5l-15.35,12c-.1-11.37-.2-22.68-.4-33.8,2.6-2.82,11-12.2,38.75-43a4.51,4.51,0,0,0-6.45-6.3l-32.6,32.31c-.2-10.23-.5-20.2-.8-29.63a4.6,4.6,0,0,0-9.2-.1c-.25,9.38-.5,19.36-.5,29.48L212,217.93a4.5,4.5,0,0,0-6.3-.1,4.43,4.43,0,0,0-.25,6.25c11.55,12.95,33.9,38,38.7,43.52-.1,8.33-.15,16.92-.2,25.55l.15,8.19-15.45-11.86a5.79,5.79,0,0,0-6.4-.5,6,6,0,0,0-3,5.86l2.3,20.44s-25.35-15.08-27.8-16.57l-8.35-29c-4.2-14.59-7.95-27.59-7.95-27.59a4.49,4.49,0,0,0-8.7,2.18l10.5,46.2c-8.85-5.11-17.2-9.82-24.8-14a4.51,4.51,0,0,0-6.2,1.54,4.57,4.57,0,0,0,1.4,6.3c8.7,5.65,16.7,10.76,24.3,15.48l-43.65,13.69A4.41,4.41,0,0,0,127.24,319Zm139.85-10.72L265.54,323c-3.3,2-6.4,3.87-9.4,5.76,0-4-.05-8-.05-12Zm-11.2,42.33,9.65,5.75,1.55,14.29-11-8.43Zm28.55-11-12.8,6c-3.15-1.94-6.35-3.87-9.55-5.81,2.5-1.54,9.7-6.05,9.7-6.05ZM233,370.8l1.45-14.49,9.25-5.65c.05,2.73.1,11.61.1,11.61Zm10.8-42.17-9.25-5.56-1.6-14.64,10.85,8.29S243.74,325.5,243.79,328.63Zm-28.2,10.86,12.5-5.85s7.5,4.61,9.85,6c-3.15,1.94-6.35,3.92-9.4,5.86Z" transform="translate(0 -35.5)" style="fill:aqua"/>
    <path d="M154.44,402.86c9.65-5.41,17.4-9.88,24.4-14.05l-10.45,46.35a4.5,4.5,0,0,0,8.7,2.33c5.5-18.85,14.7-50.11,16.8-57,6.7-3.92,25.1-14.94,27.4-16.33l-2,20.05a6,6,0,0,0,3,5.85,5.77,5.77,0,0,0,6.4-.49l15.25-11.91c.1,11.31.25,22.63.45,33.79-2.55,2.83-10.9,12.16-38.7,43.17a4.44,4.44,0,0,0,.2,6.3,4.5,4.5,0,0,0,6.3-.05l32.5-32.35c.25,9.82.45,19.6.75,29.18a4.55,4.55,0,0,0,9.1.09c.4-11.56.6-21.33.6-29.12l33,32.5a4.51,4.51,0,0,0,6.6-6.15c-16.2-18-34.75-38.71-39-43.57,0,0,.3-26.35.15-33.84l15.6,12a5.78,5.78,0,0,0,6.4.49,5.92,5.92,0,0,0,3-5.85L278.49,364q14,8.33,27.95,16.37L322.74,437a4.41,4.41,0,0,0,5.4,3.18,4.35,4.35,0,0,0,3.3-5.31l-10.6-46.19c8.2,4.71,16.4,9.37,24.4,13.84a4.45,4.45,0,0,0,6.15-1.49,4.51,4.51,0,0,0-1.35-6.2c-7.75-5.11-15.3-10-24-15.43l43.75-13.8a4.5,4.5,0,0,0-2.35-8.68c-18.8,4.61-48.05,11.76-55,13.35-1.55-.9-22.15-13.4-28.15-17l18.1-8.39a5.93,5.93,0,0,0,0-10.77l-17.85-8.23c9.25-5.76,18.5-11.51,27.6-17.27,3.85,1,16.05,4,54.8,13.5a4.47,4.47,0,0,0,5.5-3.08,4.56,4.56,0,0,0-3-5.56L326,299.85c8.1-5.16,16.15-10.32,23.95-15.38a4.45,4.45,0,0,0,1.45-6.21l-1.7,1v.05L150,400.23l-1.75,1A4.53,4.53,0,0,0,154.44,402.86Zm80-46.55,9.25-5.65c.05,2.73.1,11.61.1,11.61L233,370.8Zm21.45-5.75,9.65,5.75,1.55,14.29-11-8.43Z" transform="translate(0 -35.5)" style="fill:#666;opacity:0.25"/>
    <path d="M245.84,363.21,245.69,347l-13.15,8.08-2,20.15Zm-9.5-5.71,5.35-3.27.05,7-6.3,5Zm17.7,5.61L269.59,375l-2.15-19.95-13.65-8.13Zm4-2-.1-7.05,5.7,3.38.95,8.68Zm13.5-13.35,17.65-8.29-17.6-8.13-13.4,8.33Zm8.15-8.24-7.9,3.67-5.85-3.57,6-3.72Zm-51,8.19,13.1-8.09-13.6-8.28-17.35,8.13Zm-8.35-8.29,7.6-3.57s4.7,2.93,6.15,3.77c-2,1.19-3.85,2.38-5.7,3.53Zm12.3-15.23,13.3,8-.15-16.47L230.44,304Zm9.1.79-5.3-3.17-1-9,6.3,4.81S241.69,323.12,241.74,325Zm12.35,7.4,13.35-8.19,2.1-20.49L254,315.82Zm9.55-10.62c-1.9,1.14-3.75,2.28-5.5,3.37-.05-2.48-.05-4.91-.05-7.39l6.5-5.06Zm-34.95,26,13.1-8.09-13.6-8.28-17.35,8.13Zm-8.35-8.29,7.6-3.57s4.7,2.93,6.15,3.77c-2,1.19-3.85,2.38-5.7,3.53Zm25.6-7.24-.15-16.47L230.44,304l2.2,20.24Zm-4.2-7.2-5.3-3.17-1-9,6.3,4.81S241.69,323.12,241.74,325Zm-9.2,30.12-2,20.15,15.35-12.06L245.69,347Zm3.8,2.38,5.35-3.27.05,7-6.3,5ZM269.59,375l-2.15-19.95-13.65-8.13.25,16.17ZM258,361.13l-.1-7.05,5.7,3.38.95,8.68Zm9.4-36.92,2.1-20.49L254,315.82l.05,16.58Zm-3.8-2.43c-1.9,1.14-3.75,2.28-5.5,3.37-.05-2.48-.05-4.91-.05-7.39l6.5-5.06Zm7.9,26,17.65-8.29-17.6-8.13-13.4,8.33Zm8.15-8.24-7.9,3.67-5.85-3.57,6-3.72ZM125.24,319.45a6.55,6.55,0,0,0,7.85,4.61c21.15-5.21,46.55-11.41,54.15-13.2,6,3.77,12.25,7.59,18.55,11.47l.4.24c1.7,1,3.35,2,5,3l-14.4,6.7a7.81,7.81,0,0,0-4.6,7.19,7.93,7.93,0,0,0,4.6,7.25l14.7,6.75c-8.05,5-16.1,9.92-24,14.83L133.69,355a6.48,6.48,0,0,0-8,4.47,6.39,6.39,0,0,0,4.25,8l39.35,12.45c-7.15,4.57-14.1,9-20.65,13.35a6.61,6.61,0,0,0,6.75,11.36c7.85-4.46,14.5-8.23,20.4-11.71l-9.45,41.83A6.52,6.52,0,0,0,179,438c5.2-17.77,14.1-48,16.6-56.27,6.5-3.77,22-13.1,23.25-13.85L217.19,384a8,8,0,0,0,4.1,7.79,7.7,7.7,0,0,0,8.6-.69l12-9.38c.1,9.72.25,19.35.4,29-3.1,3.42-12,13.39-38.15,42.52a6.52,6.52,0,0,0,9.4,9l29.2-29c.15,8.24.4,16.48.6,24.47a6.58,6.58,0,0,0,13.15.14c.35-9.32.55-17.51.6-24.41l29.5,29.13a6.45,6.45,0,0,0,9.1.15,6.34,6.34,0,0,0,.4-9c-15.2-16.92-33.35-37.12-38.45-43l.2-12.56c.05-4.76.1-10.52.05-16.42l12.25,9.43a7.78,7.78,0,0,0,8.6.64,7.93,7.93,0,0,0,4.05-7.84l-1.85-16.17c7.95,4.66,15.85,9.32,23.75,13.89l8.6,29.82c3.9,13.65,5.85,20.49,7.1,24.07l-.15.05.5,1.93a6.46,6.46,0,0,0,7.9,4.61,6.38,6.38,0,0,0,4.75-7.74l-9.6-41.73q10.35,6,20.4,11.57a6.54,6.54,0,0,0,6.95-11.07c-6.7-4.42-13.25-8.63-20.4-13.15l39.6-12.5a6.48,6.48,0,0,0-3.4-12.51c-15.25,3.73-45.55,11.12-54.15,13.15-1.3-.74-19.4-11.66-24.25-14.63l14.7-6.85a7.93,7.93,0,0,0,0-14.39l-14.5-6.7c7.95-4.91,15.9-9.87,23.75-14.84,4.65,1.15,17.65,4.37,53.95,13.3a6.47,6.47,0,0,0,7.9-4.51,6.36,6.36,0,0,0-4.3-7.94l-39.3-12.41c6.9-4.36,13.7-8.78,20.3-13.05a6.56,6.56,0,0,0-6.65-11.31c-7.1,4-14.15,7.94-20.25,11.51l9.4-42a6.4,6.4,0,0,0-4.75-7.79,6.52,6.52,0,0,0-7.85,4.47c-6.45,22.28-14.25,48.87-16.6,56.42-1.25.79-2.6,1.58-4.15,2.53-1.85,1.14-3.7,2.23-5.5,3.32-4.4,2.58-8.95,5.31-13.55,8.09L282.79,295a7.89,7.89,0,0,0-4.05-7.78,7.68,7.68,0,0,0-8.6.69L258,297.37c-.05-9.73-.2-19.4-.3-28.93,3.1-3.47,12.1-13.45,38.15-42.43a6.41,6.41,0,0,0-.25-9.13,6.54,6.54,0,0,0-9.1.05l-29.25,29c-.2-8.58-.45-16.92-.7-24.91a6.53,6.53,0,0,0-6.6-6.5,6.61,6.61,0,0,0-6.65,6.35c-.2,7.84-.4,16.18-.45,24.76l-29.4-29.07a6.51,6.51,0,0,0-9.55,8.83c11,12.26,32.5,36.42,38.2,42.92-.1,8.09-.15,16.42-.2,24.86l.1,4-12.15-9.33a7.75,7.75,0,0,0-8.6-.64,8.08,8.08,0,0,0-4.05,7.83l1.9,16.43-12.45-7.39c-4.45-2.63-8.8-5.21-11.2-6.65l-8.15-28.34c-3.5-12.3-5.55-19.4-6.9-23.61h.05l-1.05-3.87a6.51,6.51,0,0,0-12.65,3.07l9.5,41.78c-7.4-4.27-14.35-8.19-20.75-11.76a6.61,6.61,0,0,0-7,11.21c7.35,4.77,14.15,9.13,20.65,13.2l-39.45,12.41A6.43,6.43,0,0,0,125.24,319.45Zm5.6-4.12,47.8-15s-19.2-12.15-27.95-17.81a2.57,2.57,0,0,1-.75-3.52,2.5,2.5,0,0,1,3.5-.85c7.6,4.22,28.8,16.33,28.8,16.33l-11.6-50.71a2.47,2.47,0,0,1,1.9-2.93,2.44,2.44,0,0,1,3,1.74L192,300l32,19.05-2.75-24.46a3.83,3.83,0,0,1,2-3.87,3.71,3.71,0,0,1,4.15.3l18.75,14.43v-38.6s-27.95-31.51-39.25-44.16a2.49,2.49,0,0,1,3.65-3.37l36.3,35.92v-4.81c0-10.22.25-20.2.5-29.48a2.54,2.54,0,0,1,2.6-2.43,2.5,2.5,0,0,1,2.55,2.58c.35,9.43.6,19.35.8,29.58l.1,4.71,35.95-35.63a2.46,2.46,0,0,1,3.45,0,2.5,2.5,0,0,1,.1,3.53c-27.75,30.86-39.3,43.66-39.3,43.66l.4,38.6L272.64,291a3.62,3.62,0,0,1,4.15-.3,3.83,3.83,0,0,1,2,3.87l-2.5,24.51,31.5-19s10.3-34.94,17-58a2.53,2.53,0,0,1,3-1.69,2.45,2.45,0,0,1,1.8,3l-11.45,51.06s19.45-11.36,28.2-16.23a2.56,2.56,0,0,1,3.35.95v.05a2.46,2.46,0,0,1-.85,3.47c-7.8,5.06-27.55,17.66-27.55,17.66l47.55,15a2.49,2.49,0,0,1-1.45,4.76c-38.8-9.57-55.65-13.69-55.65-13.69l-31.5,19.65,21.25,9.77a4,4,0,0,1,0,7.15L280,353l32.1,19.4s40.05-9.68,55.85-13.55a2.45,2.45,0,0,1,2.95,1.74,2.49,2.49,0,0,1-1.7,3.08l-47.9,15.13s19.85,12.55,27.7,17.72a2.47,2.47,0,0,1,.65,3.42,2.42,2.42,0,0,1-3.45.84c-8-4.51-28.35-16.17-28.35-16.17l11.65,50.71a2.45,2.45,0,0,1-1.85,2.92,2.52,2.52,0,0,1-1.9-.29l-.8-1.84c-1.1-2.48-3.05-9.28-7.8-25.75l-9-31.36L276,360.18l2.75,24.22a4,4,0,0,1-2,3.92,3.75,3.75,0,0,1-4.15-.35l-18.95-14.54-.1,38.76s23.75,26.64,39.55,44.16a2.5,2.5,0,0,1-3.7,3.37L253,423.8s-.15,22.37-.6,34a2.53,2.53,0,0,1-5.05-.14c-.3-9.58-.85-33.89-.85-33.89l-35.9,35.67a2.48,2.48,0,0,1-3.5-3.52c27.8-31,39.2-43.71,39.2-43.71l-.5-38.66L227.39,388a3.74,3.74,0,0,1-4.15.3,3.84,3.84,0,0,1-2-3.87l2.45-24.17-31.5,18.86s-11.7,39.45-17.1,57.85a2.37,2.37,0,0,1-3,1.69,2.48,2.48,0,0,1-1.75-3l11.5-50.91s-18.7,11-28.45,16.42a2.45,2.45,0,0,1-3.35-.89,0,0,0,0,1,0-.05,2.51,2.51,0,0,1,.85-3.58c7.7-5.06,27.85-18,27.85-18l-47.5-15a2.5,2.5,0,0,1,1.5-4.77l55.55,13.8,31.7-19.7-21.45-9.87a4,4,0,0,1,0-7.15l21.25-9.82L188,306.6s-40.05,9.67-55.85,13.54a2.93,2.93,0,0,1-.65.1,2.43,2.43,0,0,1-2.35-1.83A2.49,2.49,0,0,1,130.84,315.33Zm97.85,32.4,13.1-8.09-13.6-8.28-17.35,8.13Zm-8.35-8.29,7.6-3.57s4.7,2.93,6.15,3.77c-2,1.19-3.85,2.38-5.7,3.53Zm25.6-7.24-.15-16.47L230.44,304l2.2,20.24Zm-4.2-7.2-5.3-3.17-1-9,6.3,4.81S241.69,323.12,241.74,325Zm-9.2,30.12-2,20.15,15.35-12.06L245.69,347Zm3.8,2.38,5.35-3.27.05,7-6.3,5ZM269.59,375l-2.15-19.95-13.65-8.13.25,16.17ZM258,361.13l-.1-7.05,5.7,3.38.95,8.68Zm9.4-36.92,2.1-20.49L254,315.82l.05,16.58Zm-3.8-2.43c-1.9,1.14-3.75,2.28-5.5,3.37-.05-2.48-.05-4.91-.05-7.39l6.5-5.06Zm7.9,26,17.65-8.29-17.6-8.13-13.4,8.33Zm8.15-8.24-7.9,3.67-5.85-3.57,6-3.72Z" transform="translate(0 -35.5)"/>
</svg>