<svg xmlns="http://www.w3.org/2000/svg" viewBox="0 0 500 491.54">
    <path d="M283.68,429a1.47,1.47,0,0,0-2,.52c-3.32,5.46-8.52,14-9.77,16-2.42.56-9.54,2.27-10.57,2.53l2.24-6.12a1.9,1.9,0,0,0-.47-2.06,1.93,1.93,0,0,0-2.06-.46l-6.21,2.28c.86-3.54,1.68-7.08,2.49-10.56l16.05-9.62a1.49,1.49,0,0,0-1.43-2.61l-13.43,6.94c.73-3.23,1.4-6.37,2-9.36a1.52,1.52,0,0,0-2.95-.75c-1,3.53-1.77,6.39-2.44,9l-8.43-13.29a1.47,1.47,0,0,0-2-.51,1.46,1.46,0,0,0-.56,2c3.14,5.7,8.32,15.17,9.45,17.27-.66,2.49-2.39,9.37-2.61,10.24l-4.22-5.17a2,2,0,0,0-2.09-.67,1.89,1.89,0,0,0-1.38,1.61l-.79,6.36c-2.68-2.63-5.37-5.24-8-7.8-.07-1.26-.3-5.4-1.05-19.16a1.47,1.47,0,0,0-1.53-1.43,1.49,1.49,0,0,0-1.47,1.48l0,15.18c-2.37-2.24-4.71-4.48-7-6.65a1.49,1.49,0,0,0-2.12,0,1.47,1.47,0,0,0-.05,2.08c2.63,2.8,4.88,5.14,6.71,7l-15.38.11a1.49,1.49,0,0,0-.11,3c8,.41,17.26.93,19.4,1.07,0,0,6.12,6.24,7.92,8l-6.48.85a1.93,1.93,0,0,0-1.62,1.38,2,2,0,0,0,.66,2.08l5.3,4.18q-5.25,1.33-10.41,2.71L210,447.12a1.47,1.47,0,0,0-2,.52,1.44,1.44,0,0,0,.47,2L221.8,458c-3,.81-6.05,1.64-9,2.47a1.48,1.48,0,0,0-1.1,1.79,1.5,1.5,0,0,0,1.78,1.13c3-.62,5.94-1.24,9.26-2l-7,13.46a1.48,1.48,0,0,0,.58,2,1.5,1.5,0,0,0,2-.52c3.33-5.48,8.52-14,9.78-16l10.61-2.6-2.28,6.19a1.94,1.94,0,0,0,.45,2.07,2,2,0,0,0,2.08.45l6.13-2.25c-.82,3.52-1.64,7-2.43,10.51-1.13.66-4.7,2.82-16,9.66a1.47,1.47,0,0,0-.57,2,1.52,1.52,0,0,0,2,.6l13.4-7c-.69,3.11-1.37,6.2-2,9.21a1.47,1.47,0,0,0,1.11,1.79,1.5,1.5,0,0,0,1.81-1c.93-3.2,1.79-6.36,2.45-8.9l8.48,13.32a1.45,1.45,0,0,0,2,.49,1.49,1.49,0,0,0,.56-2c-3.94-7.13-8.48-15.39-9.5-17.32.16-.55,2.06-8.09,2.57-10.25l4.32,5.29a1.94,1.94,0,0,0,2.08.64,1.92,1.92,0,0,0,1.39-1.61l.78-6.4c2.7,2.63,5.38,5.26,8,7.81.05,1.27.28,5.43,1,19.14a1.5,1.5,0,0,0,3,0l.07-15.18c2.44,2.34,4.86,4.6,7.14,6.74a1.53,1.53,0,0,0,2.19-2.13c-2.15-2.25-4.43-4.65-6.81-7l15.36-.09A1.49,1.49,0,0,0,289,471a1.47,1.47,0,0,0-1.41-1.52c-5.76-.33-16.9-1-19.32-1.13-1.93-2-3.94-4-6-6l-1.95-1.88,6.41-.84a1.93,1.93,0,0,0,1.62-1.39,2,2,0,0,0-.67-2.07l-5.34-4.24s9.5-2.41,10.42-2.63l8.79,4.84,8.35,4.59a1.48,1.48,0,0,0,2-.52,1.47,1.47,0,0,0-.48-2l-13.32-8.36c3.28-.87,6.35-1.72,9.12-2.52a1.5,1.5,0,0,0,1.1-1.81,1.52,1.52,0,0,0-1.81-1.14c-3.38.71-6.46,1.38-9.35,2.06l7-13.42A1.45,1.45,0,0,0,283.68,429Zm-30.34,35.23-3.11-3.82c.31-1.24.6-2.4.86-3.55l2.82,2.79ZM246,451.72l-3.62.91-3.72-3,4.58-.61ZM241.91,461l1.61-4.39,3.6-.88-.85,3.69Zm4.74-19.36,3.07,3.73-.85,3.49-2.75-2.69ZM254,454l3.48-.87,3.82,3.06-4.5.6S254.77,454.74,254,454Zm4.08-9.14-1.56,4.29-3.73.9c.29-1.19.57-2.4.83-3.57Z" transform="translate(0 -4.23)" style="fill:aqua"/>
    <path d="M257.58,415.73c-1,3.53-1.77,6.39-2.44,9l-8.43-13.29a1.47,1.47,0,0,0-2-.51,1.46,1.46,0,0,0-.56,2c3.14,5.7,8.32,15.17,9.45,17.27-.66,2.49-2.39,9.37-2.61,10.24l-4.22-5.17a2,2,0,0,0-2.09-.67,1.89,1.89,0,0,0-1.38,1.61l-.79,6.36c-2.68-2.63-5.37-5.24-8-7.8-.07-1.26-.3-5.4-1.05-19.16a1.47,1.47,0,0,0-1.53-1.43,1.49,1.49,0,0,0-1.47,1.48l0,15.18c-2.37-2.24-4.71-4.48-7-6.65a1.49,1.49,0,0,0-2.12,0,1.47,1.47,0,0,0-.05,2.08c2.63,2.8,4.88,5.14,6.71,7l-15.38.11a1.49,1.49,0,0,0-.11,3c8,.41,17.26.93,19.4,1.07,0,0,6.12,6.24,7.92,8l-6.48.85a1.93,1.93,0,0,0-1.62,1.38,2,2,0,0,0,.66,2.08l5.3,4.18q-5.25,1.33-10.41,2.71L210,447.12a1.47,1.47,0,0,0-2,.52,1.44,1.44,0,0,0,.47,2L221.8,458c-3,.81-6.05,1.64-9,2.47a1.48,1.48,0,0,0-1.1,1.79,1.5,1.5,0,0,0,1.78,1.13c3-.62,5.94-1.24,9.26-2l-7,13.46a1.48,1.48,0,0,0,.58,2,1.5,1.5,0,0,0,2-.52c3.33-5.48,8.52-14,9.78-16l10.61-2.6-2.28,6.19a1.94,1.94,0,0,0,.45,2.07,2,2,0,0,0,2.08.45l6.13-2.25c-.82,3.52-1.64,7-2.43,10.51-1.13.66-4.7,2.82-16,9.66a1.47,1.47,0,0,0-.57,2,1.52,1.52,0,0,0,2,.6l13.4-7c-.69,3.11-1.37,6.2-2,9.21a1.47,1.47,0,0,0,1.11,1.79l.17-.63h0l18.51-75,.16-.65A1.49,1.49,0,0,0,257.58,415.73Zm-7.86,29.62-.85,3.49-2.75-2.69.53-4.53ZM246,451.72l-3.62.91-3.72-3,4.58-.61Z" transform="translate(0 -4.23)" style="fill:#666;opacity:0.25"/>
    <path d="M245.42,446.4l3.83,3.75,1.19-5L246.19,440Zm3.57-.88-.49,2-1.67-1.64.32-2.64Zm-5.48,2.83-6.45.85,5.19,4.16,5.12-1.29Zm-.47,1.4,1.68,1.62-2.13.55-2.27-1.81Zm0,6.28-2.2,6.07,6-2.21L248,454.8Zm0,3.84,1-2.71,2.21-.54-.53,2.28ZM253.08,446l-1.17,5,5.14-1.24,2.16-6Zm3.91,0-.94,2.61s-1.8.42-2.33.56c.17-.73.34-1.46.51-2.16Zm.69,6.44-5,1.25,3.91,3.82,6.37-.84Zm-2.32,1.95,2-.5,2.34,1.87-2.61.35S255.81,454.82,255.36,454.39Zm-4.64,1.16-1.21,5,4.32,5.28.79-6.46Zm.25,4.72c.18-.71.34-1.42.5-2.08l1.75,1.72-.34,2.7ZM253.08,446l-1.17,5,5.14-1.24,2.16-6Zm3.91,0-.94,2.61s-1.8.42-2.33.56c.17-.73.34-1.46.51-2.16Zm-4.31,7.69,3.91,3.82,6.37-.84-5.28-4.23Zm2.68.7,2-.5,2.34,1.87-2.61.35S255.81,454.82,255.36,454.39Zm-4.92-9.21L246.19,440l-.77,6.41,3.83,3.75Zm-1.45.34-.49,2-1.67-1.64.32-2.64Zm-11.93,3.68,5.19,4.16,5.12-1.29-3.86-3.72Zm6,.55,1.68,1.62-2.13.55-2.27-1.81Zm6.47,10.84,4.32,5.28.79-6.46-3.9-3.86Zm1.46-.32c.18-.71.34-1.42.5-2.08l1.75,1.72-.34,2.7ZM243,456l-2.2,6.07,6-2.21L248,454.8Zm0,3.84,1-2.71,2.21-.54-.53,2.28Zm41-31.45a2.18,2.18,0,0,0-2.92.76c-3.75,6.17-8.26,13.56-9.63,15.76-2.29.52-4.66,1.09-7.05,1.66l-.15,0-1.89.46,1.81-4.94a2.56,2.56,0,0,0-.61-2.76,2.64,2.64,0,0,0-2.78-.62l-5,1.86c.73-3,1.45-6.09,2.14-9.08l15.79-9.48a2.15,2.15,0,0,0-2.05-3.78l-12.18,6.3c.61-2.74,1.19-5.41,1.72-8a2.2,2.2,0,0,0-4.26-1.08c-.79,2.88-1.47,5.32-2,7.52l-7.61-12a2.16,2.16,0,0,0-3.74,2.17c3,5.37,8,14.54,9.32,17.05-.64,2.4-2.1,8.23-2.21,8.68l-3.39-4.15a2.66,2.66,0,0,0-2.79-.86,2.55,2.55,0,0,0-1.86,2.18l-.61,5c-2.31-2.25-4.61-4.47-6.91-6.69-.07-1.53-.31-6-1-18.88a2.17,2.17,0,0,0-4.33.09l0,13.62c-2-1.89-4-3.76-5.89-5.58a2.18,2.18,0,0,0-3.07,0,2.15,2.15,0,0,0-.06,3c2.11,2.27,4,4.23,5.6,5.86l-13.78.08a2.15,2.15,0,0,0-2.17,2.1,2.1,2.1,0,0,0,2,2.2c7.54.41,16.55.89,19.13,1.06l2.9,3c1.11,1.12,2.45,2.48,3.85,3.85l-5.1.66a2.6,2.6,0,0,0-2.17,1.87,2.63,2.63,0,0,0,.89,2.78l4.24,3.35c-3,.77-5.92,1.53-8.85,2.31l-9-5c-4.13-2.28-6.19-3.43-7.33-4l0-.05-.57-.33a2.17,2.17,0,0,0-3,.77,2.11,2.11,0,0,0,.71,2.92l12.06,7.52c-2.56.69-5.06,1.37-7.51,2.07a2.16,2.16,0,0,0,1,4.21c2.62-.53,5.15-1.08,7.89-1.69l-6.37,12.19a2.15,2.15,0,0,0,3.74,2.13c2.71-4.44,8.09-13.26,9.63-15.75.48-.13,7.3-1.81,9.14-2.25l-1.85,5a2.62,2.62,0,0,0,3.38,3.36l5-1.82c-.71,3-1.41,6-2.09,9l-15.8,9.51a2.15,2.15,0,0,0,2.08,3.76l12.15-6.3c-.6,2.64-1.16,5.27-1.7,7.81a2.13,2.13,0,0,0,1.61,2.59,2.17,2.17,0,0,0,2.61-1.5c.73-2.59,1.45-5.17,2.05-7.43l7.65,12a2.16,2.16,0,0,0,3.74-2.17c-3.71-6.72-8.13-14.77-9.35-17.09.11-.48.24-1,.38-1.56s.34-1.39.51-2.07c.43-1.63.86-3.33,1.28-5.06l3.48,4.23a2.62,2.62,0,0,0,2.78.87,2.54,2.54,0,0,0,1.85-2.17l.63-5.06c2.3,2.26,4.61,4.49,6.87,6.7.09,1.54.32,6,1,18.86a2.12,2.12,0,0,0,2.21,2.07,2.15,2.15,0,0,0,2.12-2.14l.07-13.63c2.06,2,4.08,3.86,6,5.67a2.2,2.2,0,0,0,3.14-3.07c-1.79-1.88-3.7-3.87-5.71-5.9l13.74-.07a2.15,2.15,0,0,0,2.19-2.08,2.12,2.12,0,0,0-2-2.22c-5.45-.31-16.19-.92-19.06-1.11-1.88-1.91-3.82-3.88-5.79-5.86l-1-.92,5.05-.66a2.58,2.58,0,0,0,2.17-1.86,2.69,2.69,0,0,0-.89-2.78l-4.31-3.4,4.66-1.19,4.2-1.06,8.57,4.72c3.71,2.06,5.86,3.24,7.17,3.91v0l1.15.66a2.16,2.16,0,0,0,2.93-.76,2.13,2.13,0,0,0-.68-2.93l-12.05-7.55c2.75-.73,5.3-1.44,7.64-2.1a2.19,2.19,0,0,0-1-4.27c-2.84.61-5.47,1.18-7.95,1.75l6.35-12.14A2.12,2.12,0,0,0,284,428.42Zm-.34,2.28L276,445.39s7.36-1.65,10.75-2.37a.84.84,0,0,1,1,.65.81.81,0,0,1-.62,1c-2.78.8-10.6,2.92-10.6,2.92l14.64,9.16a.83.83,0,0,1-.86,1.41l-17.37-9.57-12,3,6.39,5.08a1.27,1.27,0,0,1,.44,1.37,1.23,1.23,0,0,1-1.05.9l-7.79,1,9.07,9,19.59,1.15a.82.82,0,0,1-.06,1.64l-17,.09,1.13,1.12c2.4,2.4,4.69,4.79,6.81,7a.85.85,0,0,1,0,1.18.84.84,0,0,1-1.21,0c-2.29-2.12-4.68-4.39-7.13-6.73L269,473.41l-.08,16.75a.83.83,0,0,1-1.66,0c-.73-13.71-1-19.41-1-19.41l-9.16-8.94-1,7.76a1.2,1.2,0,0,1-.9,1,1.27,1.27,0,0,1-1.38-.43l-5.17-6.33-2.95,11.81s5.79,10.59,9.62,17.57a.83.83,0,0,1-.31,1.1.81.81,0,0,1-1.13-.29l-9.31-14.63s-1.9,7.21-2.81,10.4a.86.86,0,0,1-1,.56h0a.83.83,0,0,1-.62-1c.65-3,2.33-10.59,2.33-10.59l-14.7,7.63a.83.83,0,0,1-.78-1.46l16.3-9.82,2.78-12-7.29,2.69a1.3,1.3,0,0,1-1.37-.31,1.28,1.28,0,0,1-.31-1.36l2.72-7.38-12.1,3L217.74,476a.8.8,0,0,1-1.1.28.82.82,0,0,1-.32-1.11L224,460.4s-7.62,1.71-10.67,2.34a.82.82,0,0,1-1-.65.8.8,0,0,1,.61-1c2.94-.82,10.46-2.85,10.46-2.85l-14.65-9.14a.81.81,0,0,1-.25-1.12.83.83,0,0,1,.52-.38l.61.25c.85.32,2.9,1.45,7.89,4.2l9.48,5.23,12-3.1-6.33-5a1.3,1.3,0,0,1-.45-1.39,1.23,1.23,0,0,1,1.05-.89l7.87-1-9.08-9.09s-11.84-.68-19.67-1.08a.83.83,0,0,1,.08-1.66l17-.11s-5.22-5.27-7.84-8.09a.84.84,0,0,1,1.22-1.15c2.32,2.17,8.16,7.73,8.16,7.73l.05-16.75a.83.83,0,0,1,1.65,0c.76,13.77,1.06,19.41,1.06,19.41L243,444l.94-7.7a1.26,1.26,0,0,1,.91-1,1.29,1.29,0,0,1,1.38.44l5.1,6.23,3-11.79s-6.52-12-9.57-17.54a.78.78,0,0,1,.3-1.1.84.84,0,0,1,1.13.3l9.26,14.61s1.81-6.95,2.82-10.5a.81.81,0,0,1,1-.58h0a.83.83,0,0,1,.64,1c-.62,3-2.32,10.72-2.32,10.72l14.69-7.6A.83.83,0,0,1,273,421l-16.29,9.77-2.82,12,7.36-2.71a1.26,1.26,0,0,1,1.36.31,1.24,1.24,0,0,1,.31,1.36L260.27,449l12-2.86s7.14-11.64,9.94-16.25a1.92,1.92,0,0,1,.13-.17.8.8,0,0,1,1-.12A.82.82,0,0,1,283.69,430.7ZM253.08,446l-1.17,5,5.14-1.24,2.16-6Zm3.91,0-.94,2.61s-1.8.42-2.33.56c.17-.73.34-1.46.51-2.16Zm-4.31,7.69,3.91,3.82,6.37-.84-5.28-4.23Zm2.68.7,2-.5,2.34,1.87-2.61.35S255.81,454.82,255.36,454.39Zm-4.92-9.21L246.19,440l-.77,6.41,3.83,3.75Zm-1.45.34-.49,2-1.67-1.64.32-2.64Zm-11.93,3.68,5.19,4.16,5.12-1.29-3.86-3.72Zm6,.55,1.68,1.62-2.13.55-2.27-1.81Zm6.47,10.84,4.32,5.28.79-6.46-3.9-3.86Zm1.46-.32c.18-.71.34-1.42.5-2.08l1.75,1.72-.34,2.7ZM243,456l-2.2,6.07,6-2.21L248,454.8Zm0,3.84,1-2.71,2.21-.54-.53,2.28Z" transform="translate(0 -4.23)"/>
    <path d="M166.57,407.61a1.46,1.46,0,0,0-2-.55c-5.62,3.08-14.4,7.87-16.49,9-2.38-.73-9.4-2.8-10.42-3.09l5-4.17a2,2,0,0,0-.92-3.45l-6.53-1.11c2.52-2.65,5-5.3,7.45-7.91L161.4,396a1.49,1.49,0,0,0,.08-3l-15.12-.67c2.26-2.44,4.42-4.82,6.46-7.1a1.52,1.52,0,0,0-2.19-2.12c-2.63,2.56-4.74,4.65-6.63,6.58L143.37,374a1.5,1.5,0,0,0-3,0c-.14,6.5-.41,17.28-.49,19.67-1.81,1.83-6.77,6.92-7.39,7.56l-1.06-6.58A2,2,0,0,0,130,393a1.93,1.93,0,0,0-2,.71l-3.87,5.12c-1-3.61-2-7.22-3-10.77l8.7-17.12a1.45,1.45,0,0,0-.6-2,1.5,1.5,0,0,0-2,.55l-7.65,13.13c-.92-3.12-1.83-6.23-2.75-9.26a1.51,1.51,0,0,0-2.93.74c.87,3.73,1.65,6.88,2.32,9.37l-13.37-7.57a1.5,1.5,0,0,0-2,.49,1.48,1.48,0,0,0,.45,2c6.74,4.36,14.48,9.4,16.26,10.59,0,0,2.17,8.45,2.86,10.83l-6-2.49a2,2,0,0,0-2.1.39,2,2,0,0,0-.48,2.14l2.5,6.25q-5.22-1.46-10.38-2.84L93.67,386.6a1.46,1.46,0,0,0-2-.55,1.44,1.44,0,0,0-.61,2l7.38,13.86c-3-.81-6.07-1.59-9-2.34a1.5,1.5,0,0,0-.88,2.87c2.92,1,5.77,1.88,9,2.88l-12.86,8.16a1.46,1.46,0,0,0-.5,2,1.48,1.48,0,0,0,2,.55c5.64-3.08,14.41-7.87,16.51-9,.57.15,8.26,2.38,10.5,3l-5.09,4.24a1.91,1.91,0,0,0-.65,2,2,2,0,0,0,1.57,1.44l6.44,1.1c-2.47,2.64-4.95,5.27-7.37,7.89-1.32,0-5.49.1-18.75.38a1.47,1.47,0,0,0-1.5,1.45,1.5,1.5,0,0,0,1.44,1.52l15.1.65c-2.15,2.34-4.29,4.68-6.36,7a1.45,1.45,0,0,0,.07,2.1,1.5,1.5,0,0,0,2.08,0c2.4-2.31,4.74-4.62,6.58-6.49l.66,15.76a1.45,1.45,0,0,0,1.5,1.43,1.49,1.49,0,0,0,1.49-1.45c.17-8.13.39-17.54.47-19.73.41-.39,5.84-6,7.37-7.59l1.08,6.73a2,2,0,0,0,1.48,1.6,1.93,1.93,0,0,0,2-.71l3.9-5.15c1,3.62,2,7.23,3,10.76-.59,1.13-2.48,4.85-8.74,17.08a1.5,1.5,0,0,0,2.62,1.46l7.68-13.12c.95,3.25,1.9,6.41,2.81,9.4a1.53,1.53,0,0,0,3-.75c-.73-3-1.51-6.23-2.38-9.47l13.34,7.58a1.5,1.5,0,0,0,2-.51,1.46,1.46,0,0,0-.46-2c-4.82-3.15-14.14-9.25-16.16-10.6-.68-2.67-1.41-5.42-2.13-8.19l-.75-2.6,6,2.47a1.94,1.94,0,0,0,2.1-.39,2,2,0,0,0,.46-2.13l-2.5-6.34s9.44,2.65,10.35,2.92l5.18,8.56,4.92,8.14a1.48,1.48,0,0,0,2,.55,1.47,1.47,0,0,0,.6-2l-7.35-13.87c3.28.87,6.37,1.67,9.17,2.36a1.52,1.52,0,0,0,.87-2.91c-3.28-1.07-6.29-2-9.13-2.87l12.83-8.12A1.45,1.45,0,0,0,166.57,407.61Zm-44,15.41-.77-4.86c.89-.92,1.72-1.79,2.52-2.65.34,1.27.7,2.55,1,3.82Zm0-14.5-3.6-1-1.72-4.43,4.27,1.75Zm-8.22,6,3.6-3,3.56,1-2.59,2.77Zm13.82-14.4.78,4.76-2.48,2.6c-.25-.87-1-3.71-1-3.71Zm.17,14.41,3.44,1,1.77,4.55-4.19-1.72S128.62,415.49,128.34,414.5Zm8.11-5.89-3.51,2.94s-2.8-.83-3.67-1.07c.84-.89,1.7-1.8,2.51-2.68Z" transform="translate(0 -4.23)" style="fill:aqua"/>
    <path d="M150.63,383.11c-2.63,2.56-4.74,4.65-6.63,6.58L143.37,374a1.5,1.5,0,0,0-3,0c-.14,6.5-.41,17.28-.49,19.67-1.81,1.83-6.77,6.92-7.39,7.56l-1.06-6.58A2,2,0,0,0,130,393a1.93,1.93,0,0,0-2,.71l-3.87,5.12c-1-3.61-2-7.22-3-10.77l8.7-17.12a1.45,1.45,0,0,0-.6-2,1.5,1.5,0,0,0-2,.55l-7.65,13.13c-.92-3.12-1.83-6.23-2.75-9.26a1.51,1.51,0,0,0-2.93.74c.87,3.73,1.65,6.88,2.32,9.37l-13.37-7.57a1.5,1.5,0,0,0-2,.49,1.48,1.48,0,0,0,.45,2c6.74,4.36,14.48,9.4,16.26,10.59,0,0,2.17,8.45,2.86,10.83l-6-2.49a2,2,0,0,0-2.1.39,2,2,0,0,0-.48,2.14l2.5,6.25q-5.22-1.46-10.38-2.84L93.67,386.6a1.46,1.46,0,0,0-2-.55,1.44,1.44,0,0,0-.61,2l7.38,13.86c-3-.81-6.07-1.59-9-2.34a1.5,1.5,0,0,0-.88,2.87c2.92,1,5.77,1.88,9,2.88l-12.86,8.16a1.46,1.46,0,0,0-.5,2,1.48,1.48,0,0,0,2,.55c5.64-3.08,14.41-7.87,16.51-9,.57.15,8.26,2.38,10.5,3l-5.09,4.24a1.91,1.91,0,0,0-.65,2,2,2,0,0,0,1.57,1.44l6.44,1.1c-2.47,2.64-4.95,5.27-7.37,7.89-1.32,0-5.49.1-18.75.38a1.47,1.47,0,0,0-1.5,1.45,1.5,1.5,0,0,0,1.44,1.52l15.1.65c-2.15,2.34-4.29,4.68-6.36,7a1.45,1.45,0,0,0,.07,2.1l.46-.46v0l53.7-55.76.47-.49A1.52,1.52,0,0,0,150.63,383.11ZM129,404.85l-2.48,2.6c-.25-.87-1-3.71-1-3.71l2.73-3.65Zm-6.38,3.67-3.6-1-1.72-4.43,4.27,1.75Z" transform="translate(0 -4.23)" style="fill:#666;opacity:0.25"/>
    <path d="M124.7,403.62l1.44,5.16,3.53-3.72-1.08-6.61Zm3.54,1-1.43,1.5-.62-2.24,1.59-2.13Zm-6.16-.28-6-2.47,2.41,6.19,5.08,1.43Zm-1.11,1,.63,2.24-2.11-.59-1.06-2.69Zm-3.19,5.42-5,4.16,6.35,1.1,3.58-3.81Zm-1.91,3.33,2.22-1.85,2.19.65-1.61,1.7Zm15.67-7L128,410.81l5.08,1.48L138,408.2Zm3.39,1.93-2.13,1.8s-1.76-.54-2.3-.68l1.53-1.62ZM132.29,415l-4.95-1.42,1.46,5.26,5.94,2.44Zm-3,.52,2,.56,1.09,2.79-2.43-1S129.48,416.08,129.3,415.48Zm-4.6-1.3-3.58,3.76,1.09,6.73,3.94-5.2Zm-2.15,4.21,1.48-1.55c.23.79.44,1.57.65,2.36L123,421.37Zm9-11.29L128,410.81l5.08,1.48L138,408.2Zm3.39,1.93-2.13,1.8s-1.76-.54-2.3-.68l1.53-1.62Zm-7.59,4.51,1.46,5.26,5.94,2.44L132.29,415Zm2,1.94,2,.56,1.09,2.79-2.43-1S129.48,416.08,129.3,415.48Zm.37-10.42-1.08-6.61-3.89,5.17,1.44,5.16Zm-1.43-.43-1.43,1.5-.62-2.24,1.59-2.13Zm-12.18-2.75,2.41,6.19,5.08,1.43-1.47-5.15Zm4.91,3.45.63,2.24-2.11-.59-1.06-2.69Zm.15,12.61,1.09,6.73,3.94-5.2-1.45-5.29Zm1.43.45,1.48-1.55c.23.79.44,1.57.65,2.36L123,421.37Zm-4.77-7.64-5,4.16,6.35,1.1,3.58-3.81Zm-1.91,3.33,2.22-1.85,2.19.65-1.61,1.7Zm51.3-6.8a2.18,2.18,0,0,0-2.91-.8c-6.34,3.47-14,7.63-16.25,8.85-2.25-.69-4.58-1.37-6.94-2.07l-.15-.05c-.63-.17-1.25-.36-1.86-.54l4-3.37a2.57,2.57,0,0,0,.86-2.69,2.65,2.65,0,0,0-2.1-1.93l-5.3-.89c2.16-2.28,4.32-4.56,6.41-6.8l18.44-.35a2.13,2.13,0,0,0,2.16-2.1,2.11,2.11,0,0,0-2-2.19l-13.7-.61c1.9-2.08,3.75-4.1,5.48-6a2.15,2.15,0,0,0-.08-3.07,2.18,2.18,0,0,0-3.06,0c-2.14,2.1-3.95,3.88-5.54,5.5L144.05,374a2.17,2.17,0,0,0-4.33,0c-.14,6.12-.39,16.56-.49,19.41-1.76,1.76-5.95,6.08-6.27,6.42l-.85-5.28a2.66,2.66,0,0,0-2-2.14,2.55,2.55,0,0,0-2.7,1l-3,4c-.87-3.1-1.75-6.16-2.62-9.23.7-1.36,2.71-5.31,8.59-16.86a2.13,2.13,0,0,0-.89-2.89,2.16,2.16,0,0,0-2.91.81L119.68,381c-.76-2.62-1.55-5.23-2.3-7.77a2.17,2.17,0,0,0-2.67-1.5,2.14,2.14,0,0,0-1.56,2.58c.69,3,1.33,5.65,1.9,7.86l-12-6.79a2.15,2.15,0,0,0-2.93.73,2.08,2.08,0,0,0,.65,2.92c6.33,4.11,13.89,9,16,10.45l1,4c.39,1.53.87,3.37,1.39,5.25l-4.74-2a2.58,2.58,0,0,0-2.81.53,2.61,2.61,0,0,0-.63,2.85l2,5c-3-.81-5.88-1.63-8.81-2.41L98.9,394c-2.42-4-3.64-6-4.35-7.08l0,0-.33-.58a2.15,2.15,0,0,0-2.93-.8,2.11,2.11,0,0,0-.86,2.88l6.67,12.52c-2.56-.67-5.07-1.33-7.54-1.95a2.17,2.17,0,0,0-1.28,4.14c2.53.84,5,1.62,7.68,2.45L84.37,412.9a2.15,2.15,0,0,0,2.17,3.71c4.57-2.5,13.66-7.46,16.25-8.84.48.12,7.23,2.06,9,2.6l-4.13,3.45a2.59,2.59,0,0,0-.86,2.69,2.62,2.62,0,0,0,2.1,1.91l5.23.9c-2.13,2.25-4.26,4.52-6.35,6.78-1.59,0-6,.11-18.46.37a2.14,2.14,0,0,0-2.14,2.12,2.11,2.11,0,0,0,2.06,2.17l13.68.59c-1.84,2-3.64,4-5.39,5.92a2.14,2.14,0,0,0,.09,3.05,2.17,2.17,0,0,0,3,0c1.94-1.87,3.86-3.75,5.51-5.41l.6,14.22a2.11,2.11,0,0,0,2.19,2.09,2.17,2.17,0,0,0,2.14-2.1c.15-7.68.37-16.85.47-19.46.33-.36.7-.73,1.12-1.17s1-1,1.47-1.53c1.2-1.2,2.42-2.46,3.66-3.75l.88,5.4a2.62,2.62,0,0,0,2,2.14,2.55,2.55,0,0,0,2.7-1l3.09-4.07c.85,3.1,1.73,6.19,2.58,9.22-.7,1.38-2.73,5.34-8.6,16.83a2.12,2.12,0,0,0,.87,2.9,2.18,2.18,0,0,0,2.92-.79l6.89-11.77c.8,2.72,1.6,5.37,2.37,7.9a2.2,2.2,0,0,0,4.26-1.09c-.61-2.52-1.26-5.2-2-8l11.94,6.77a2.15,2.15,0,0,0,2.3-3.64c-4.57-3-13.56-8.86-16-10.45-.66-2.59-1.36-5.26-2.07-8l-.38-1.28,4.7,1.94a2.57,2.57,0,0,0,2.82-.53,2.67,2.67,0,0,0,.62-2.85l-2-5.09,4.63,1.3,4.17,1.17,5.05,8.36c2.18,3.63,3.45,5.72,4.25,7h0l.67,1.15a2.16,2.16,0,0,0,2.92.8,2.12,2.12,0,0,0,.87-2.87l-6.64-12.54c2.74.73,5.31,1.38,7.67,2A2.19,2.19,0,0,0,162.6,420c-2.77-.89-5.33-1.7-7.77-2.45l11.6-7.34A2.13,2.13,0,0,0,167.17,407.28Zm-1.44,1.8-14,8.88s7.21,2.24,10.5,3.3a.84.84,0,0,1,.54,1.06.83.83,0,0,1-1.05.57c-2.8-.69-10.64-2.75-10.64-2.75l8.08,15.22a.83.83,0,0,1-1.45.8l-10.24-16.94-11.91-3.35,3,7.58a1.28,1.28,0,0,1-1.67,1.67l-7.26-3,3.32,12.34s11.68,7.68,16.4,10.76a.82.82,0,0,1-.88,1.39l-14.74-8.38.41,1.54c.88,3.27,1.66,6.48,2.38,9.47a.85.85,0,0,1-.63,1,.83.83,0,0,1-1-.61c-.92-3-1.86-6.13-2.8-9.39l-.44-1.49-8.47,14.47a.83.83,0,0,1-1.44-.83l8.85-17.32-3.44-12.31L122.31,429a1.24,1.24,0,0,1-1.31.45,1.28,1.28,0,0,1-1-1.07l-1.31-8.05-8.48,8.76s-.3,12.05-.48,20a.85.85,0,0,1-.82.8.82.82,0,0,1-.84-.81l-.71-17.31s-5.27,5.3-7.66,7.6a.85.85,0,0,1-1.15,0v0a.8.8,0,0,1,0-1.18c2.06-2.29,7.32-8,7.32-8l-16.55-.71a.82.82,0,0,1-.77-.84.81.81,0,0,1,.82-.81c13.28-.26,19-.39,19-.39l8.42-9-7.66-1.31a1.3,1.3,0,0,1-.61-2.28l6.06-5-12-3.46s-12,6.53-16.76,9.12a.83.83,0,0,1-1.1-.3.82.82,0,0,1,.28-1.13l14.07-8.95s-7.45-2.31-10.41-3.29a.84.84,0,0,1,.53-1.6c3,.76,10.49,2.74,10.49,2.74l-8.1-15.21a.82.82,0,0,1,.34-1.1.85.85,0,0,1,.64-.06l.41.52c.57.69,1.78,2.7,4.72,7.56l5.59,9.25,11.92,3.28-3-7.5a1.3,1.3,0,0,1,.3-1.43A1.24,1.24,0,0,1,114,398l7.33,3L118,388.63s-9.91-6.49-16.49-10.73a.83.83,0,0,1,.9-1.4l14.77,8.37s-1.87-7.17-2.73-10.92a.84.84,0,0,1,1.64-.39c.91,3,3.18,10.77,3.18,10.77l8.46-14.49a.81.81,0,0,1,1.09-.29.79.79,0,0,1,.33,1.12C122.9,383,120.33,388,120.33,388l3.49,12.32,4.68-6.2a1.23,1.23,0,0,1,1.3-.45,1.29,1.29,0,0,1,1,1.07l1.29,7.93,8.49-8.72s.36-13.62.51-20a.79.79,0,0,1,.82-.79.82.82,0,0,1,.82.82l.69,17.26s5-5.11,7.71-7.69a.82.82,0,0,1,1.16,0s0,0,0,0a.82.82,0,0,1,0,1.21c-2,2.28-7.39,8.13-7.39,8.13l16.54.74a.83.83,0,0,1-.08,1.65l-19,.35-8.48,9,7.73,1.32a1.26,1.26,0,0,1,1,.95,1.27,1.27,0,0,1-.41,1.34l-6,5,11.87,3.51s12-6.52,16.76-9.11a.72.72,0,0,1,.2-.09.81.81,0,0,1,.91.39A.82.82,0,0,1,165.73,409.08Zm-34.19-2L128,410.81l5.08,1.48L138,408.2Zm3.39,1.93-2.13,1.8s-1.76-.54-2.3-.68l1.53-1.62Zm-7.59,4.51,1.46,5.26,5.94,2.44L132.29,415Zm2,1.94,2,.56,1.09,2.79-2.43-1S129.48,416.08,129.3,415.48Zm.37-10.42-1.08-6.61-3.89,5.17,1.44,5.16Zm-1.43-.43-1.43,1.5-.62-2.24,1.59-2.13Zm-12.18-2.75,2.41,6.19,5.08,1.43-1.47-5.15Zm4.91,3.45.63,2.24-2.11-.59-1.06-2.69Zm.15,12.61,1.09,6.73,3.94-5.2-1.45-5.29Zm1.43.45,1.48-1.55c.23.79.44,1.57.65,2.36L123,421.37Zm-4.77-7.64-5,4.16,6.35,1.1,3.58-3.81Zm-1.91,3.33,2.22-1.85,2.19.65-1.61,1.7Z" transform="translate(0 -4.23)"/>
    <path d="M415.77,391.06a1.48,1.48,0,0,0-2-.55c-5.62,3.08-14.39,7.87-16.48,9-2.38-.73-9.41-2.8-10.43-3.08l5-4.18a2,2,0,0,0-.93-3.44l-6.53-1.12c2.53-2.64,5-5.3,7.46-7.9l18.72-.34a1.48,1.48,0,0,0,1.5-1.46,1.46,1.46,0,0,0-1.42-1.52l-15.11-.68c2.25-2.44,4.41-4.82,6.45-7.09a1.52,1.52,0,0,0-2.19-2.12c-2.63,2.55-4.73,4.64-6.62,6.58l-.63-15.71a1.5,1.5,0,0,0-3,0c-.14,6.5-.4,17.29-.49,19.67-1.81,1.83-6.77,6.93-7.39,7.57l-1.06-6.59a2,2,0,0,0-1.47-1.61,1.93,1.93,0,0,0-2,.7l-3.87,5.12c-1-3.61-2-7.21-3-10.77l8.71-17.11a1.47,1.47,0,0,0-.61-2,1.49,1.49,0,0,0-2,.56l-7.64,13.12c-.93-3.12-1.83-6.22-2.75-9.26a1.51,1.51,0,0,0-2.93.75c.86,3.73,1.64,6.87,2.31,9.36l-13.37-7.57a1.52,1.52,0,0,0-2,.49,1.49,1.49,0,0,0,.45,2c6.74,4.36,14.48,9.4,16.26,10.59,0,0,2.17,8.45,2.87,10.83l-6-2.48a2,2,0,0,0-2.57,2.52l2.49,6.25c-3.48-1-6.93-1.92-10.38-2.84l-10.1-16.72a1.48,1.48,0,0,0-2-.55,1.43,1.43,0,0,0-.6,2l7.37,13.86c-3-.8-6.07-1.59-9-2.33a1.49,1.49,0,0,0-1.85,1,1.5,1.5,0,0,0,1,1.87c2.93,1,5.77,1.87,9,2.87l-12.85,8.16a1.46,1.46,0,0,0-.51,2,1.49,1.49,0,0,0,2,.56c5.63-3.09,14.41-7.88,16.5-9,.57.15,8.26,2.38,10.5,3l-5.09,4.23a2,2,0,0,0,.93,3.44l6.43,1.11c-2.47,2.63-4.94,5.26-7.37,7.88-1.32,0-5.49.11-18.75.38a1.48,1.48,0,0,0-1.5,1.45,1.5,1.5,0,0,0,1.44,1.52l15.1.65c-2.15,2.34-4.29,4.68-6.36,7a1.47,1.47,0,0,0,.07,2.11,1.5,1.5,0,0,0,2.08,0c2.41-2.31,4.75-4.62,6.58-6.48l.66,15.75a1.47,1.47,0,0,0,1.51,1.44,1.5,1.5,0,0,0,1.48-1.45c.17-8.14.39-17.55.47-19.73.41-.4,5.84-6,7.37-7.6l1.09,6.74a1.94,1.94,0,0,0,1.48,1.59,1.92,1.92,0,0,0,2-.71l3.89-5.15c1,3.62,2,7.23,3,10.77-.6,1.12-2.49,4.84-8.74,17.07a1.5,1.5,0,0,0,2.61,1.46l7.68-13.12c1,3.25,1.9,6.42,2.81,9.4a1.53,1.53,0,0,0,3-.75c-.73-3-1.5-6.23-2.37-9.47l13.33,7.58a1.52,1.52,0,0,0,2-.51,1.47,1.47,0,0,0-.46-2c-4.82-3.15-14.15-9.25-16.17-10.6-.68-2.67-1.4-5.42-2.13-8.18l-.75-2.61,6,2.47a1.91,1.91,0,0,0,2.09-.39,2,2,0,0,0,.46-2.13l-2.49-6.34s9.43,2.65,10.34,2.92l5.18,8.57c2.6,4.3,4.93,8.13,4.93,8.13a1.49,1.49,0,0,0,2.6-1.44l-7.34-13.87c3.28.88,6.36,1.67,9.16,2.37a1.52,1.52,0,0,0,.87-2.92c-3.28-1.06-6.29-2-9.13-2.87l12.83-8.12A1.45,1.45,0,0,0,415.77,391.06Zm-44,15.41-.77-4.86c.89-.92,1.72-1.79,2.52-2.65.34,1.27.7,2.55,1.05,3.82Zm0-14.49-3.59-1-1.73-4.43,4.27,1.75Zm-8.22,6,3.6-3,3.56,1-2.59,2.77Zm13.83-14.4.78,4.76-2.48,2.6c-.26-.87-1-3.7-1-3.7Zm.16,14.41,3.44,1,1.78,4.54-4.2-1.72S377.81,399,377.53,398Zm8.11-5.89-3.5,2.95s-2.81-.84-3.68-1.08c.84-.89,1.7-1.8,2.51-2.68Z" transform="translate(0 -4.23)" style="fill:aqua"/>
    <path d="M399.82,366.57c-2.63,2.55-4.73,4.64-6.62,6.58l-.63-15.71a1.5,1.5,0,0,0-3,0c-.14,6.5-.4,17.29-.49,19.67-1.81,1.83-6.77,6.93-7.39,7.57l-1.06-6.59a2,2,0,0,0-1.47-1.61,1.93,1.93,0,0,0-2,.7l-3.87,5.12c-1-3.61-2-7.21-3-10.77l8.71-17.11a1.47,1.47,0,0,0-.61-2,1.49,1.49,0,0,0-2,.56l-7.64,13.12c-.93-3.12-1.83-6.22-2.75-9.26a1.51,1.51,0,0,0-2.93.75c.86,3.73,1.64,6.87,2.31,9.36l-13.37-7.57a1.52,1.52,0,0,0-2,.49,1.49,1.49,0,0,0,.45,2c6.74,4.36,14.48,9.4,16.26,10.59,0,0,2.17,8.45,2.87,10.83l-6-2.48a2,2,0,0,0-2.57,2.52l2.49,6.25c-3.48-1-6.93-1.92-10.38-2.84l-10.1-16.72a1.48,1.48,0,0,0-2-.55,1.43,1.43,0,0,0-.6,2l7.37,13.86c-3-.8-6.07-1.59-9-2.33a1.49,1.49,0,0,0-1.85,1,1.5,1.5,0,0,0,1,1.87c2.93,1,5.77,1.87,9,2.87l-12.85,8.16a1.46,1.46,0,0,0-.51,2,1.49,1.49,0,0,0,2,.56c5.63-3.09,14.41-7.88,16.5-9,.57.15,8.26,2.38,10.5,3l-5.09,4.23a2,2,0,0,0,.93,3.44l6.43,1.11c-2.47,2.63-4.94,5.26-7.37,7.88-1.32,0-5.49.11-18.75.38a1.48,1.48,0,0,0-1.5,1.45,1.5,1.5,0,0,0,1.44,1.52l15.1.65c-2.15,2.34-4.29,4.68-6.36,7a1.47,1.47,0,0,0,.07,2.11l.46-.47h0L401.46,367l.47-.48A1.51,1.51,0,0,0,399.82,366.57ZM378.15,388.3l-2.48,2.6c-.26-.87-1-3.7-1-3.7l2.73-3.66ZM371.76,392l-3.59-1-1.73-4.43,4.27,1.75Z" transform="translate(0 -4.23)" style="fill:#666;opacity:0.25"/>
    <path d="M373.9,387.07l1.44,5.16,3.52-3.71-1.07-6.62Zm3.54,1L376,389.59l-.62-2.25,1.59-2.13Zm-6.17-.27-6-2.48,2.4,6.19,5.08,1.44Zm-1.11,1,.64,2.25-2.12-.59-1.05-2.7ZM367,394.21l-5,4.16,6.35,1.09,3.58-3.81Zm-1.9,3.33,2.22-1.85,2.18.64-1.6,1.7Zm15.66-7-3.51,3.71,5.08,1.48,4.87-4.08Zm3.39,1.94L382,394.28l-2.3-.68,1.53-1.61Zm-2.63,5.92-5-1.42,1.47,5.26,5.93,2.44Zm-3,.52,2,.57,1.1,2.78-2.44-1S378.68,399.53,378.5,398.93Zm-4.6-1.3-3.58,3.76,1.09,6.73,3.93-5.2Zm-2.15,4.21,1.47-1.55c.23.79.44,1.57.65,2.36l-1.65,2.18Zm9-11.29-3.51,3.71,5.08,1.48,4.87-4.08Zm3.39,1.94L382,394.28l-2.3-.68,1.53-1.61Zm-7.59,4.5,1.47,5.26,5.93,2.44-2.44-6.28Zm2,1.94,2,.57,1.1,2.78-2.44-1S378.68,399.53,378.5,398.93Zm.36-10.41-1.07-6.62-3.89,5.17,1.44,5.16Zm-1.42-.44L376,389.59l-.62-2.25,1.59-2.13Zm-12.18-2.75,2.4,6.19,5.08,1.44-1.47-5.15Zm4.9,3.45.64,2.25-2.12-.59-1.05-2.7Zm.16,12.61,1.09,6.73,3.93-5.2-1.44-5.29Zm1.43.45,1.47-1.55c.23.79.44,1.57.65,2.36l-1.65,2.18ZM367,394.21l-5,4.16,6.35,1.09,3.58-3.81Zm-1.9,3.33,2.22-1.85,2.18.64-1.6,1.7Zm51.3-6.81a2.19,2.19,0,0,0-2.92-.8c-6.34,3.48-14,7.64-16.24,8.86-2.25-.69-4.59-1.38-6.94-2.08l-.15,0c-.63-.17-1.25-.37-1.87-.54l4.05-3.38a2.57,2.57,0,0,0,.85-2.69,2.6,2.6,0,0,0-2.09-1.92l-5.3-.9c2.15-2.28,4.31-4.55,6.41-6.8l18.43-.34a2.16,2.16,0,0,0,2.17-2.11,2.12,2.12,0,0,0-2-2.19l-13.7-.61c1.9-2.07,3.74-4.1,5.47-6a2.14,2.14,0,0,0-.08-3.07,2.17,2.17,0,0,0-3.06,0c-2.13,2.1-3.94,3.87-5.54,5.49l-.56-14.18a2.17,2.17,0,0,0-4.33,0c-.14,6.13-.4,16.57-.49,19.41-1.76,1.77-5.95,6.08-6.27,6.42L381.3,378a2.65,2.65,0,0,0-2-2.14,2.55,2.55,0,0,0-2.7,1l-3.05,4c-.87-3.1-1.74-6.17-2.62-9.23.7-1.36,2.72-5.32,8.59-16.87a2.13,2.13,0,0,0-.88-2.89,2.16,2.16,0,0,0-2.91.81l-6.88,11.78c-.76-2.62-1.55-5.23-2.3-7.77a2.18,2.18,0,0,0-4.23,1.08c.69,3,1.33,5.65,1.91,7.86l-12-6.79a2.15,2.15,0,0,0-2.93.74,2.09,2.09,0,0,0,.65,2.92c6.33,4.1,13.89,9,16,10.44l1,4c.39,1.53.87,3.37,1.4,5.26l-4.75-2a2.63,2.63,0,0,0-3.44,3.39l2,5c-2.95-.81-5.89-1.63-8.82-2.41l-5.32-8.8c-2.43-4-3.64-6.05-4.35-7.08l0,0-.33-.58a2.15,2.15,0,0,0-2.93-.79,2.11,2.11,0,0,0-.86,2.88l6.67,12.52c-2.55-.68-5.07-1.34-7.54-1.95a2.16,2.16,0,0,0-1.28,4.13c2.53.84,5,1.63,7.68,2.46l-11.63,7.39a2.14,2.14,0,0,0,2.16,3.7c4.58-2.49,13.67-7.45,16.25-8.84l9,2.6-4.13,3.45a2.62,2.62,0,0,0,1.24,4.6l5.23.9c-2.13,2.25-4.25,4.52-6.34,6.78-1.6,0-6,.11-18.46.37a2.14,2.14,0,0,0-2.15,2.12,2.11,2.11,0,0,0,2.06,2.17l13.68.6c-1.84,2-3.64,4-5.39,5.91a2.14,2.14,0,0,0,.1,3,2.18,2.18,0,0,0,3,0c1.93-1.88,3.85-3.75,5.51-5.42l.59,14.23a2.12,2.12,0,0,0,2.19,2.08,2.17,2.17,0,0,0,2.14-2.1c.15-7.68.37-16.85.47-19.46l1.12-1.16c.49-.53,1-1,1.48-1.54,1.19-1.2,2.41-2.46,3.65-3.74l.88,5.39a2.62,2.62,0,0,0,2,2.14,2.55,2.55,0,0,0,2.7-1l3.09-4.07c.85,3.11,1.73,6.19,2.58,9.23-.69,1.37-2.72,5.33-8.59,16.83a2.1,2.1,0,0,0,.86,2.89,2.18,2.18,0,0,0,2.92-.79l6.89-11.77c.81,2.73,1.6,5.37,2.37,7.9a2.16,2.16,0,0,0,2.68,1.51,2.19,2.19,0,0,0,1.59-2.6c-.61-2.52-1.27-5.2-2-7.95l11.94,6.78a2.15,2.15,0,0,0,2.94-.72,2.1,2.1,0,0,0-.64-2.92c-4.56-3-13.56-8.86-15.95-10.45-.66-2.6-1.36-5.27-2.07-8l-.38-1.27,4.7,1.94a2.61,2.61,0,0,0,2.82-.53,2.67,2.67,0,0,0,.62-2.86l-2-5.08,4.63,1.29c1.66.46,3.28.91,4.17,1.17l5,8.36c2.18,3.63,3.45,5.73,4.25,7h0l.67,1.15a2.15,2.15,0,0,0,2.92.8,2.13,2.13,0,0,0,.88-2.87l-6.64-12.54c2.74.73,5.31,1.39,7.67,2a2.19,2.19,0,0,0,1.28-4.18c-2.77-.9-5.33-1.71-7.76-2.45l11.59-7.35A2.13,2.13,0,0,0,416.37,390.73Zm-1.45,1.8-14.05,8.88s7.21,2.25,10.5,3.3a.87.87,0,0,1,.55,1.07.83.83,0,0,1-1.05.57c-2.81-.7-10.65-2.76-10.65-2.76l8.08,15.22a.83.83,0,0,1-1.45.8l-10.23-16.94-11.91-3.35,3,7.58a1.26,1.26,0,0,1-.31,1.41,1.21,1.21,0,0,1-1.35.26l-7.26-3,3.32,12.34s11.68,7.68,16.39,10.76a.82.82,0,0,1-.88,1.39l-14.74-8.37.41,1.53c.88,3.27,1.66,6.48,2.38,9.47a.85.85,0,0,1-.63,1,.84.84,0,0,1-1-.61c-.92-3-1.85-6.13-2.8-9.38l-.43-1.5-8.48,14.47a.82.82,0,0,1-1.11.29.81.81,0,0,1-.33-1.11c6.25-12.25,8.86-17.33,8.86-17.33l-3.45-12.31-4.74,6.25a1.2,1.2,0,0,1-1.3.45,1.27,1.27,0,0,1-1-1.07l-1.3-8.05-8.48,8.76s-.31,12-.49,20a.82.82,0,0,1-.82.79.8.8,0,0,1-.83-.81l-.72-17.31s-5.26,5.3-7.65,7.61a.86.86,0,0,1-1.16,0h0a.82.82,0,0,1,0-1.19c2.07-2.28,7.32-8,7.32-8l-16.55-.72a.83.83,0,0,1,.06-1.65c13.27-.26,19-.39,19-.39l8.42-9-7.66-1.3a1.26,1.26,0,0,1-1-.95,1.27,1.27,0,0,1,.41-1.34l6.06-5-12-3.45s-12,6.52-16.76,9.11a.82.82,0,0,1-1.1-.3.83.83,0,0,1,.28-1.13l14.08-8.94s-7.45-2.32-10.42-3.29a.82.82,0,0,1-.5-1,.81.81,0,0,1,1-.57c3,.76,10.49,2.75,10.49,2.75l-8.1-15.22a.81.81,0,0,1,.35-1.09.82.82,0,0,1,.63-.07l.42.52c.56.7,1.77,2.7,4.71,7.56l5.59,9.26,11.92,3.28-3-7.51a1.3,1.3,0,0,1,.3-1.42,1.25,1.25,0,0,1,1.37-.25l7.33,3-3.3-12.4s-9.92-6.49-16.49-10.73a.83.83,0,0,1,.89-1.4l14.77,8.37s-1.87-7.17-2.73-10.92a.84.84,0,0,1,1.64-.38c.92,3,3.19,10.76,3.19,10.76l8.45-14.48a.82.82,0,0,1,1.43.82l-8.83,17.34L373,383.77l4.68-6.19a1.24,1.24,0,0,1,1.3-.46,1.28,1.28,0,0,1,1,1.07l1.29,7.94,8.49-8.73s.36-13.61.51-20a.79.79,0,0,1,.82-.8.82.82,0,0,1,.82.82l.69,17.26s5.06-5.11,7.72-7.69a.81.81,0,0,1,1.15,0s0,0,0,0a.83.83,0,0,1,0,1.22c-2,2.28-7.39,8.13-7.39,8.13l16.54.73a.81.81,0,0,1,.76.85.8.8,0,0,1-.83.8l-19,.35-8.48,9,7.74,1.32a1.25,1.25,0,0,1,1,1,1.26,1.26,0,0,1-.41,1.33l-6,5,11.87,3.52s12-6.53,16.76-9.12l.2-.09a.8.8,0,0,1,.91.39A.82.82,0,0,1,414.92,392.53Zm-34.19-2-3.51,3.71,5.08,1.48,4.87-4.08Zm3.39,1.94L382,394.28l-2.3-.68,1.53-1.61Zm-7.59,4.5,1.47,5.26,5.93,2.44-2.44-6.28Zm2,1.94,2,.57,1.1,2.78-2.44-1S378.68,399.53,378.5,398.93Zm.36-10.41-1.07-6.62-3.89,5.17,1.44,5.16Zm-1.42-.44L376,389.59l-.62-2.25,1.59-2.13Zm-12.18-2.75,2.4,6.19,5.08,1.44-1.47-5.15Zm4.9,3.45.64,2.25-2.12-.59-1.05-2.7Zm.16,12.61,1.09,6.73,3.93-5.2-1.44-5.29Zm1.43.45,1.47-1.55c.23.79.44,1.57.65,2.36l-1.65,2.18ZM367,394.21l-5,4.16,6.35,1.09,3.58-3.81Zm-1.9,3.33,2.22-1.85,2.18.64-1.6,1.7Z" transform="translate(0 -4.23)"/>
    <path d="M249.27,335.61a1.48,1.48,0,0,0-1.8-1.05c-6.23,1.53-15.95,3.89-18.26,4.43-2.11-1.31-8.35-5.12-9.27-5.66l5.93-2.74A1.94,1.94,0,0,0,227,328.8a1.92,1.92,0,0,0-1.13-1.78l-6-2.76c3.12-1.9,6.21-3.82,9.25-5.71l18.18,4.5a1.49,1.49,0,0,0,1.83-1,1.47,1.47,0,0,0-1-1.84l-14.43-4.55c2.81-1.77,5.52-3.51,8.08-5.19a1.52,1.52,0,0,0-1.56-2.61c-3.21,1.79-5.78,3.27-8.11,4.65l3.47-15.34a1.5,1.5,0,0,0-2.89-.77c-1.83,6.24-4.88,16.58-5.58,18.87-2.23,1.29-8.34,4.94-9.11,5.4l.69-6.63a2,2,0,0,0-1-1.94,1.94,1.94,0,0,0-2.13.16l-5.06,3.94c0-3.74-.09-7.49-.15-11.18l12.86-14.29a1.46,1.46,0,0,0-.07-2.08,1.5,1.5,0,0,0-2.09,0l-10.8,10.71c-.09-3.25-.15-6.49-.25-9.66a1.52,1.52,0,0,0-3,0c-.13,3.83-.2,7.06-.2,9.64l-10.94-10.76a1.52,1.52,0,0,0-2.1-.05,1.49,1.49,0,0,0-.1,2.09c5.39,5.95,11.55,12.81,13,14.42,0,0-.1,8.72,0,11.2l-5.18-4a2,2,0,0,0-3.14,1.78l.78,6.68q-4.66-2.76-9.29-5.42l-5.41-18.75a1.48,1.48,0,0,0-1.8-1.06,1.44,1.44,0,0,0-1.09,1.76l3.52,15.29c-2.73-1.56-5.45-3.1-8.11-4.58a1.5,1.5,0,0,0-1.6,2.54c2.58,1.7,5.09,3.31,8,5.11l-14.54,4.57a1.46,1.46,0,0,0-1,1.82,1.48,1.48,0,0,0,1.79,1c6.25-1.53,16-3.89,18.28-4.42l9.35,5.64-6,2.77a1.93,1.93,0,0,0-1.15,1.78,2,2,0,0,0,1.15,1.79l5.93,2.72c-3.07,1.91-6.15,3.81-9.17,5.72-1.28-.33-5.33-1.32-18.21-4.47a1.49,1.49,0,0,0-1.83,1,1.51,1.51,0,0,0,1,1.84l14.42,4.51c-2.69,1.71-5.37,3.42-8,5.1a1.46,1.46,0,0,0-.48,2.05,1.51,1.51,0,0,0,2,.54c2.92-1.61,5.78-3.23,8-4.56l-3.45,15.38a1.46,1.46,0,0,0,1.08,1.78,1.52,1.52,0,0,0,1.81-1c2.27-7.82,4.93-16.85,5.58-18.94.5-.28,7.19-4.27,9.09-5.43l-.7,6.78a2,2,0,0,0,3.14,1.76l5.1-4c0,3.76.06,7.51.13,11.19-.86.93-3.65,4-12.87,14.24a1.48,1.48,0,0,0,.06,2.1,1.5,1.5,0,0,0,2.08,0l10.83-10.69c.07,3.38.17,6.68.27,9.8a1.53,1.53,0,0,0,3.05,0c.09-3.11.17-6.41.17-9.76l10.92,10.76a1.5,1.5,0,0,0,2.09,0,1.46,1.46,0,0,0,.08-2.07c-3.84-4.28-11.26-12.58-12.86-14.4,0-2.76.05-5.6.07-8.46l-.05-2.71,5.13,3.93a1.94,1.94,0,0,0,2.13.16,2,2,0,0,0,1-1.94l-.77-6.76,9.24,5.48,2.77,9.61,2.65,9.13a1.49,1.49,0,0,0,2.89-.72L232,345c2.94,1.69,5.71,3.25,8.24,4.65a1.52,1.52,0,0,0,1.59-2.6c-2.89-1.87-5.55-3.56-8.07-5.12l14.5-4.54A1.46,1.46,0,0,0,249.27,335.61Zm-46.47,3.55.51-4.89c1.1-.66,2.13-1.29,3.13-1.91,0,1.31,0,2.64,0,4Zm3.72-14-3.21-1.9-.51-4.73,3.67,2.79ZM197,328.8l4.26-2c1,.64,2.1,1.28,3.17,1.92l-3.22,2Zm17.1-10.35-.48,4.8-3.08,1.87c0-.91,0-3.85,0-3.85Zm-3.59,14,3.07,1.84.53,4.84-3.6-2.74S210.56,333.44,210.54,332.41Zm9.37-3.6-4.15,1.94s-2.5-1.53-3.28-2c1.05-.64,2.11-1.29,3.13-1.93Z" transform="translate(0 -4.23)" style="fill:aqua"/>
    <path d="M240.23,307.84c-3.21,1.79-5.78,3.27-8.11,4.65l3.47-15.34a1.5,1.5,0,0,0-2.89-.77c-1.83,6.24-4.88,16.58-5.58,18.87-2.23,1.29-8.34,4.94-9.11,5.4l.69-6.63a2,2,0,0,0-1-1.94,1.94,1.94,0,0,0-2.13.16l-5.06,3.94c0-3.74-.09-7.49-.15-11.18l12.86-14.29a1.46,1.46,0,0,0-.07-2.08,1.5,1.5,0,0,0-2.09,0l-10.8,10.71c-.09-3.25-.15-6.49-.25-9.66a1.52,1.52,0,0,0-3,0c-.13,3.83-.2,7.06-.2,9.64l-10.94-10.76a1.52,1.52,0,0,0-2.1-.05,1.49,1.49,0,0,0-.1,2.09c5.39,5.95,11.55,12.81,13,14.42,0,0-.1,8.72,0,11.2l-5.18-4a2,2,0,0,0-3.14,1.78l.78,6.68q-4.66-2.76-9.29-5.42l-5.41-18.75a1.48,1.48,0,0,0-1.8-1.06,1.44,1.44,0,0,0-1.09,1.76l3.52,15.29c-2.73-1.56-5.45-3.1-8.11-4.58a1.5,1.5,0,0,0-1.6,2.54c2.58,1.7,5.09,3.31,8,5.11l-14.54,4.57a1.46,1.46,0,0,0-1,1.82,1.48,1.48,0,0,0,1.79,1c6.25-1.53,16-3.89,18.28-4.42l9.35,5.64-6,2.77a1.93,1.93,0,0,0-1.15,1.78,2,2,0,0,0,1.15,1.79l5.93,2.72c-3.07,1.91-6.15,3.81-9.17,5.72-1.28-.33-5.33-1.32-18.21-4.47a1.49,1.49,0,0,0-1.83,1,1.51,1.51,0,0,0,1,1.84l14.42,4.51c-2.69,1.71-5.37,3.42-8,5.1a1.46,1.46,0,0,0-.48,2.05l.56-.33v0l66.36-40,.58-.34A1.5,1.5,0,0,0,240.23,307.84Zm-26.58,15.41-3.08,1.87c0-.91,0-3.85,0-3.85l3.59-2.82Zm-7.13,1.9-3.21-1.9-.51-4.73,3.67,2.79Z" transform="translate(0 -4.23)" style="fill:#666;opacity:0.25"/>
    <path d="M209.86,321l0,5.36,4.37-2.68L215,317Zm3.15,1.89-1.77,1.09,0-2.34,2.09-1.64ZM207.13,321,202,317.05l.71,6.61,4.54,2.69Zm-1.33.65,0,2.33-1.9-1.11-.31-2.88Zm-4.48,4.42-5.87,2.74,5.85,2.7,4.45-2.76Zm-2.71,2.73,2.63-1.22c.64.4,1.29.79,1.94,1.18l-2,1.24Zm16.95-2.71-4.36,2.67,4.52,2.75,5.77-2.7Zm2.77,2.74L215.81,330s-1.57-1-2.05-1.25l1.9-1.16Zm-4.09,5-4.42-2.64.05,5.45,5.1,3.89Zm-3-.26,1.76,1.05.33,3L211.22,336S211.24,334.23,211.22,333.61Zm-4.1-2.45-4.44,2.71-.7,6.78,5.15-4Zm-3.18,3.52,1.83-1.12c0,.82,0,1.62,0,2.45l-2.16,1.67Zm11.62-8.59-4.36,2.67,4.52,2.75,5.77-2.7Zm2.77,2.74L215.81,330s-1.57-1-2.05-1.25l1.9-1.16Zm-8.51,2.4.05,5.45,5.1,3.89-.73-6.7Zm1.4,2.38,1.76,1.05.33,3L211.22,336S211.24,334.23,211.22,333.61Zm3.06-10L215,317l-5.1,4,0,5.36Zm-1.27-.79-1.77,1.09,0-2.34,2.09-1.64Zm-11-5.8.71,6.61,4.54,2.69-.09-5.35Zm3.83,4.6,0,2.33-1.9-1.11-.31-2.88Zm-3.12,12.22-.7,6.78,5.15-4v-5.49Zm1.26.81,1.83-1.12c0,.82,0,1.62,0,2.45l-2.16,1.67Zm-2.62-8.61-5.87,2.74,5.85,2.7,4.45-2.76Zm-2.71,2.73,2.63-1.22c.64.4,1.29.79,1.94,1.18l-2,1.24Zm51.32,6.65a2.18,2.18,0,0,0-2.61-1.53c-7,1.72-15.47,3.78-18,4.37-2-1.25-4.07-2.51-6.16-3.79l-.14-.09-1.66-1,4.79-2.22a2.57,2.57,0,0,0,1.52-2.38,2.62,2.62,0,0,0-1.52-2.39l-4.89-2.24c2.68-1.64,5.35-3.28,8-4.91l17.89,4.42a2.15,2.15,0,0,0,2.64-1.48,2.11,2.11,0,0,0-1.41-2.64l-13.07-4.13c2.37-1.51,4.68-3,6.86-4.41a2.19,2.19,0,0,0-2.24-3.76c-2.61,1.47-4.82,2.72-6.78,3.87l3.14-13.84a2.17,2.17,0,0,0-4.19-1.1c-1.73,5.88-4.68,15.89-5.52,18.62-2.16,1.25-7.32,4.34-7.72,4.58l.55-5.32A2.65,2.65,0,0,0,218,311.5a2.56,2.56,0,0,0-2.85.23l-4,3.11c0-3.22-.08-6.41-.13-9.59l12.67-14.08a2.12,2.12,0,0,0-.1-3,2.17,2.17,0,0,0-3,0l-9.7,9.61c0-2.73-.14-5.45-.2-8.1a2.19,2.19,0,0,0-4.37-.05c-.12,3.09-.18,5.8-.2,8.08l-9.8-9.64a2.16,2.16,0,0,0-3-.05,2.09,2.09,0,0,0-.13,3c5.05,5.6,11.08,12.29,12.78,14.23l-.07,4.15c0,1.58,0,3.48,0,5.44l-4.07-3.12a2.58,2.58,0,0,0-2.85-.22,2.63,2.63,0,0,0-1.35,2.6l.61,5.35c-2.64-1.54-5.26-3.09-7.89-4.6L187.45,305c-1.3-4.51-1.95-6.78-2.36-8l0,0-.17-.64a2.15,2.15,0,0,0-2.62-1.53,2.11,2.11,0,0,0-1.58,2.57L184,311.21q-3.45-2-6.78-3.83a2.16,2.16,0,0,0-2.31,3.66c2.23,1.46,4.4,2.86,6.78,4.36l-13.16,4.13a2.15,2.15,0,0,0,1.13,4.14c5.07-1.23,15.13-3.68,18-4.35.43.25,6.45,3.86,8.06,4.85l-4.88,2.26a2.62,2.62,0,0,0,0,4.76l4.81,2.22c-2.64,1.63-5.28,3.27-7.89,4.91l-17.92-4.4a2.15,2.15,0,0,0-2.63,1.49,2.11,2.11,0,0,0,1.43,2.63l13.06,4.11c-2.29,1.44-4.55,2.91-6.75,4.32a2.14,2.14,0,0,0-.7,3,2.17,2.17,0,0,0,2.91.77c2.36-1.31,4.7-2.63,6.73-3.81l-3.12,13.9a2.11,2.11,0,0,0,1.58,2.57,2.16,2.16,0,0,0,2.6-1.47c2.15-7.38,4.74-16.18,5.52-18.68l1.38-.83c.61-.38,1.23-.74,1.83-1.1l4.5-2.68-.55,5.43a2.61,2.61,0,0,0,1.35,2.58,2.54,2.54,0,0,0,2.85-.23l4-3.13c0,3.21.07,6.42.1,9.57l-12.68,14a2.11,2.11,0,0,0,.09,3,2.17,2.17,0,0,0,3,0l9.72-9.59c.07,2.84.15,5.6.23,8.24a2.16,2.16,0,0,0,2.2,2.15,2.2,2.2,0,0,0,2.21-2.1c.06-2.59.13-5.35.14-8.2l9.77,9.63a2.16,2.16,0,0,0,3,.06,2.1,2.1,0,0,0,.15-3c-3.64-4.06-10.8-12.06-12.7-14.21,0-2.68.05-5.44.07-8.23l0-1.33,4,3.09a2.59,2.59,0,0,0,2.86.21,2.66,2.66,0,0,0,1.35-2.59l-.63-5.44,4.13,2.45c1.48.87,2.93,1.72,3.72,2.2l2.71,9.38c1.17,4.07,1.85,6.42,2.3,7.81h0l.35,1.29a2.15,2.15,0,0,0,2.61,1.52,2.12,2.12,0,0,0,1.59-2.54L233,346.37c2.46,1.41,4.77,2.71,6.9,3.89a2.19,2.19,0,0,0,2.32-3.71c-2.44-1.58-4.7-3-6.86-4.37l13.11-4.1A2.13,2.13,0,0,0,249.93,335.45Zm-1.86,1.36-15.88,5s6.38,4,9.28,5.9a.84.84,0,0,1,.25,1.16.82.82,0,0,1-1.16.28c-2.53-1.39-9.57-5.4-9.57-5.4l3.85,16.78a.83.83,0,0,1-1.61.4l-5.48-19-10.63-6.31.91,8.1a1.27,1.27,0,0,1-.66,1.28,1.26,1.26,0,0,1-1.38-.1l-6.23-4.78v12.78s9.29,10.42,13,14.61a.83.83,0,0,1-1.21,1.12L209.53,356.7v1.59c0,3.38-.09,6.69-.17,9.76a.84.84,0,0,1-.86.8.83.83,0,0,1-.85-.85c-.12-3.12-.2-6.41-.27-9.79l0-1.56L195.4,368.44a.83.83,0,0,1-1.18-1.16c9.22-10.22,13.06-14.46,13.06-14.46l-.13-12.77-6.2,4.81a1.22,1.22,0,0,1-1.38.1,1.27,1.27,0,0,1-.66-1.28l.83-8.12-10.47,6.28s-3.42,11.56-5.66,19.19a.85.85,0,0,1-1,.56.81.81,0,0,1-.6-1l3.81-16.9s-6.46,3.76-9.37,5.37a.85.85,0,0,1-1.12-.31v0a.82.82,0,0,1,.29-1.15c2.59-1.67,9.15-5.84,9.15-5.84l-15.8-5a.83.83,0,0,1,.48-1.58l18.49,4.53,10.47-6.5L191.35,330a1.28,1.28,0,0,1-.75-1.19,1.26,1.26,0,0,1,.75-1.18l7.16-3.3-10.67-6.42s-13.3,3.2-18.55,4.48a.82.82,0,0,1-.42-1.59l15.92-5s-6.6-4.16-9.21-5.86a.83.83,0,0,1-.21-1.14.81.81,0,0,1,1.14-.28c2.66,1.5,9.42,5.36,9.42,5.36l-3.87-16.79a.82.82,0,0,1,.62-1,.9.9,0,0,1,.63.1l.26.61c.37.82,1,3.07,2.6,8.52l3,10.38L199.82,322l-.91-8a1.31,1.31,0,0,1,.66-1.3,1.26,1.26,0,0,1,1.38.12l6.3,4.81,0-12.83s-7.89-8.82-13.14-14.61a.83.83,0,0,1,1.23-1.12l12.1,11.89s.05-7.41.19-11.25a.83.83,0,0,1,.84-.77.8.8,0,0,1,.84.82c.1,3.17.29,11.22.29,11.22l11.92-11.81a.8.8,0,0,1,1.13,0,.79.79,0,0,1,0,1.16l-13,14.47.17,12.8,6.13-4.78a1.24,1.24,0,0,1,1.38-.1A1.27,1.27,0,0,1,218,314l-.81,8,10.46-6.24s3.89-13.06,5.69-19.15a.79.79,0,0,1,1-.56.81.81,0,0,1,.58,1l-3.82,16.85s6.22-3.63,9.46-5.43a.81.81,0,0,1,1.11.29,0,0,0,0,1,0,0,.82.82,0,0,1-.29,1.18c-2.55,1.68-9.25,5.95-9.25,5.95l15.78,5a.81.81,0,0,1,.52,1,.82.82,0,0,1-1,.56L229,317.84l-10.54,6.52,7.13,3.27a1.26,1.26,0,0,1,.75,1.18,1.28,1.28,0,0,1-.75,1.19l-7.06,3.25,10.55,6.45s13.31-3.2,18.56-4.48a.78.78,0,0,1,.21,0,.8.8,0,0,1,.78.61A.81.81,0,0,1,248.07,336.81Zm-32.51-10.72-4.36,2.67,4.52,2.75,5.77-2.7Zm2.77,2.74L215.81,330s-1.57-1-2.05-1.25l1.9-1.16Zm-8.51,2.4.05,5.45,5.1,3.89-.73-6.7Zm1.4,2.38,1.76,1.05.33,3L211.22,336S211.24,334.23,211.22,333.61Zm3.06-10L215,317l-5.1,4,0,5.36Zm-1.27-.79-1.77,1.09,0-2.34,2.09-1.64Zm-11-5.8.71,6.61,4.54,2.69-.09-5.35Zm3.83,4.6,0,2.33-1.9-1.11-.31-2.88Zm-3.12,12.22-.7,6.78,5.15-4v-5.49Zm1.26.81,1.83-1.12c0,.82,0,1.62,0,2.45l-2.16,1.67Zm-2.62-8.61-5.87,2.74,5.85,2.7,4.45-2.76Zm-2.71,2.73,2.63-1.22c.64.4,1.29.79,1.94,1.18l-2,1.24Z" transform="translate(0 -4.23)"/>
    <path d="M497.5,209.15c0,56.85-46.35,103-103.5,103H88.75c-47.6,0-86.25-38.4-86.25-85.8s38.65-85.8,86.25-85.8a89,89,0,0,1,11,.7c1.5-74.5,62.7-134.45,138-134.45a138,138,0,0,1,133.4,102,102.08,102.08,0,0,1,22.9-2.6C451.15,106.15,497.5,152.25,497.5,209.15Z" transform="translate(0 -4.23)" style="fill:#e6e6e6"/>
    <path d="M497.5,209.15c0,56.85-46.35,103-103.5,103H88.75c103.45,0,211.1-208.25,211.1-290.55v-.1a137.72,137.72,0,0,1,71.25,87.3,102.08,102.08,0,0,1,22.9-2.6C451.15,106.15,497.5,152.25,497.5,209.15Z" transform="translate(0 -4.23)" style="fill:#666;opacity:0.25"/>
    <path d="M497.5,209.15c0,56.85-46.35,103-103.5,103H191c32.45-1.1,321.16-23,294.45-126-18.54-71.47-88.83-75.29-114.4-69.25a47,47,0,0,0-21.35,11.9c0-4.4,17.8-19.4,21.4-20a102.08,102.08,0,0,1,22.9-2.6C451.15,106.15,497.5,152.25,497.5,209.15Z" transform="translate(0 -4.23)" style="fill:#333;opacity:0.5"/>
    <path d="M394,314.62H88.75C39.81,314.62,0,275,0,226.31S39.81,138,88.75,138c2.88,0,5.75.14,8.59.42,3-74.24,65.39-134.19,140.38-134.19,62.88,0,118.11,41.65,135.16,101.57A106.19,106.19,0,0,1,394,103.67c58.45,0,106,47.32,106,105.48S452.45,314.62,394,314.62ZM88.75,143C42.57,143,5,180.37,5,226.31s37.57,83.31,83.75,83.31H394c55.69,0,101-45.07,101-100.47S449.69,108.67,394,108.67a101.23,101.23,0,0,0-22.35,2.51,2.51,2.51,0,0,1-3-1.79C353,50.42,299.13,9.23,237.72,9.23c-73.22,0-134,59.23-135.47,132a2.5,2.5,0,0,1-2.83,2.42A81.84,81.84,0,0,0,88.75,143Z" transform="translate(0 -4.23)"/>
</svg>