<svg xmlns="http://www.w3.org/2000/svg" viewBox="0 0 500 375.18">
    <path d="M215.81,201.27A76.91,76.91,0,0,1,74,242.49a76.06,76.06,0,0,1-12-41.22,76.94,76.94,0,0,1,119.69-64s0,0,0,0A76.89,76.89,0,0,1,215.81,201.27Z" transform="translate(0 -62.41)" style="fill:#fbb03b"/>
    <path d="M165.84,227.68C137.38,256,97.06,262.24,74,242.49a76.06,76.06,0,0,1-12-41.22,76.94,76.94,0,0,1,119.69-64s0,0,0,0C200.34,160.53,193.82,199.82,165.84,227.68Z" transform="translate(0 -62.41)" style="fill:#e6e6e6;opacity:0.2"/>
    <ellipse cx="104.48" cy="168.86" rx="32.07" ry="21.38" transform="translate(-88.53 59.8) rotate(-44.67)" style="fill:#f2f2f2;opacity:0.2"/>
    <path d="M86.86,269.13,42.21,298l28.85-44.66A90.52,90.52,0,0,0,86.86,269.13Z" transform="translate(0 -62.41)" style="fill:#f7931e"/>
    <path d="M86.93,133.47a82.05,82.05,0,0,0-15.8,15.79L42.21,104.54Z" transform="translate(0 -62.41)" style="fill:#f7931e"/>
    <path d="M235.57,298l-44.65-28.93a88.11,88.11,0,0,0,15.8-15.73Z" transform="translate(0 -62.41)" style="fill:#f7931e"/>
    <path d="M235.57,104.54l-28.85,44.72a91.16,91.16,0,0,0-15.8-15.79Z" transform="translate(0 -62.41)" style="fill:#f7931e"/>
    <path d="M53.42,201.3a85.18,85.18,0,0,0,.76,11.14l-52-11.14,52-11.22A86.53,86.53,0,0,0,53.42,201.3Z" transform="translate(0 -62.41)" style="fill:#f7931e"/>
    <path d="M150.1,286l-11.21,52-11.15-52a83.7,83.7,0,0,0,22.36,0Z" transform="translate(0 -62.41)" style="fill:#f7931e"/>
    <path d="M150.1,116.58a83.7,83.7,0,0,0-22.36,0l11.15-52Z" transform="translate(0 -62.41)" style="fill:#f7931e"/>
    <path d="M223.6,212.44a85.18,85.18,0,0,0,.76-11.14,86.53,86.53,0,0,0-.76-11.22l52,11.22Z" transform="translate(0 -62.41)" style="fill:#f7931e"/>
    <path d="M111.34,282.19,96.43,303.8,101.15,278A88.12,88.12,0,0,0,111.34,282.19Z" transform="translate(0 -62.41)" style="fill:#fbb03b"/>
    <path d="M62.24,163.49A79.46,79.46,0,0,0,58,173.67l-21.67-14.9Z" transform="translate(0 -62.41)" style="fill:#fbb03b"/>
    <path d="M241.45,243.69,215.6,239a77.38,77.38,0,0,0,4.24-10.19Z" transform="translate(0 -62.41)" style="fill:#fbb03b"/>
    <path d="M181.35,98.66l-4.72,25.92a83.62,83.62,0,0,0-10.19-4.24Z" transform="translate(0 -62.41)" style="fill:#fbb03b"/>
    <path d="M62.18,239l-25.85,4.78,21.61-15A77.38,77.38,0,0,0,62.18,239Z" transform="translate(0 -62.41)" style="fill:#fbb03b"/>
    <path d="M181.42,303.8l-14.91-21.61A77.61,77.61,0,0,0,176.7,278Z" transform="translate(0 -62.41)" style="fill:#fbb03b"/>
    <path d="M111.4,120.34a85.16,85.16,0,0,0-10.25,4.24L96.43,98.66Z" transform="translate(0 -62.41)" style="fill:#fbb03b"/>
    <path d="M241.45,158.77l-21.68,15a75.07,75.07,0,0,0-4.23-10.25Z" transform="translate(0 -62.41)" style="fill:#fbb03b"/>
    <path d="M138.89,280.35A79.06,79.06,0,1,1,218,201.29,79.15,79.15,0,0,1,138.89,280.35Zm0-153.85a74.79,74.79,0,1,0,74.78,74.79A74.87,74.87,0,0,0,138.89,126.5Z" transform="translate(0 -62.41)"/>
    <path d="M42.21,300.12a2.13,2.13,0,0,1-1.8-3.29l28.85-44.65a2.15,2.15,0,0,1,3.5-.15,88.6,88.6,0,0,0,15.42,15.42,2.13,2.13,0,0,1-.15,3.47L43.38,299.78A2.18,2.18,0,0,1,42.21,300.12Zm29-43.14L49.41,290.79l33.81-21.85A93.28,93.28,0,0,1,71.25,257Z" transform="translate(0 -62.41)"/>
    <path d="M71.13,151.4h-.08a2.14,2.14,0,0,1-1.72-1L40.41,105.7A2.12,2.12,0,0,1,40.7,103a2.16,2.16,0,0,1,2.68-.28L88.1,131.68a2.14,2.14,0,0,1,.13,3.49,79.79,79.79,0,0,0-15.39,15.38A2.16,2.16,0,0,1,71.13,151.4ZM49.42,111.75,71.3,145.59a83.91,83.91,0,0,1,12-12Z" transform="translate(0 -62.41)"/>
    <path d="M235.57,300.12a2.1,2.1,0,0,1-1.17-.35l-44.65-28.92a2.13,2.13,0,0,1-.14-3.48A85.72,85.72,0,0,0,205,252a2.23,2.23,0,0,1,1.79-.83,2.17,2.17,0,0,1,1.71,1l28.85,44.65a2.13,2.13,0,0,1-1.8,3.29Zm-41-31.24,33.78,21.89L206.53,257A90.16,90.16,0,0,1,194.58,268.88Z" transform="translate(0 -62.41)"/>
    <path d="M206.72,151.4a2.16,2.16,0,0,1-1.7-.83,88.6,88.6,0,0,0-15.42-15.42,2.16,2.16,0,0,1-.82-1.78,2.14,2.14,0,0,1,1-1.69l44.65-28.92a2.15,2.15,0,0,1,2.68.27,2.12,2.12,0,0,1,.29,2.67l-28.85,44.71a2.13,2.13,0,0,1-1.71,1Zm-12.16-17.74a92.49,92.49,0,0,1,12,12l21.85-33.86Z" transform="translate(0 -62.41)"/>
    <path d="M54.18,214.58a2.14,2.14,0,0,1-.45-.05l-52-11.15a2.13,2.13,0,0,1,0-4.17l52-11.21a2.13,2.13,0,0,1,2.58,2.36,84.79,84.79,0,0,0-.73,10.94,82.7,82.7,0,0,0,.73,10.87,2.14,2.14,0,0,1-2.12,2.41ZM12.3,201.29l39.41,8.44a83.37,83.37,0,0,1-.43-8.43,84.89,84.89,0,0,1,.43-8.5Z" transform="translate(0 -62.41)"/>
    <path d="M138.89,340.19h0a2.15,2.15,0,0,1-2.1-1.69l-11.14-52a2.11,2.11,0,0,1,.52-1.89,2.17,2.17,0,0,1,1.86-.67,80.78,80.78,0,0,0,21.8,0,2.14,2.14,0,0,1,2.37,2.57L141,338.5A2.14,2.14,0,0,1,138.89,340.19Zm-8.43-51.71,8.44,39.37,8.48-39.37A83.92,83.92,0,0,1,130.46,288.48Z" transform="translate(0 -62.41)"/>
    <path d="M150.1,118.71l-.27,0a80.85,80.85,0,0,0-21.81,0,2.13,2.13,0,0,1-2.37-2.56l11.14-52a2.14,2.14,0,0,1,2.1-1.69h0A2.13,2.13,0,0,1,141,64.09l11.22,52a2.14,2.14,0,0,1-2.1,2.58Zm-11.21-5c2.78,0,5.58.14,8.49.43L138.9,74.74l-8.44,39.38A83.81,83.81,0,0,1,138.89,113.69Z" transform="translate(0 -62.41)"/>
    <path d="M223.6,214.58a2.14,2.14,0,0,1-2.12-2.41,83.16,83.16,0,0,0,.73-10.87,85.26,85.26,0,0,0-.73-10.94,2.14,2.14,0,0,1,.67-1.85,2.21,2.21,0,0,1,1.91-.51l52,11.21a2.13,2.13,0,0,1,0,4.17l-52,11.15A2.14,2.14,0,0,1,223.6,214.58Zm2.47-21.78c.29,2.91.43,5.71.43,8.5a83.66,83.66,0,0,1-.43,8.43l39.41-8.44Z" transform="translate(0 -62.41)"/>
    <path d="M96.43,305.93a2.17,2.17,0,0,1-.82-.16,2.14,2.14,0,0,1-1.29-2.36L99,277.64a2.12,2.12,0,0,1,1.14-1.52,2.15,2.15,0,0,1,1.9,0,88,88,0,0,0,9.93,4.07,2.12,2.12,0,0,1,1.09,3.23L98.2,305A2.14,2.14,0,0,1,96.43,305.93Zm6.33-24.81-2.43,13.25,7.66-11.1Q105.43,282.31,102.76,281.12Z" transform="translate(0 -62.41)"/>
    <path d="M58,175.81a2.14,2.14,0,0,1-1.21-.38L35.11,160.52a2.13,2.13,0,0,1,1.61-3.85l25.91,4.72a2.13,2.13,0,0,1,1.53,3.05A75,75,0,0,0,60,174.35a2.15,2.15,0,0,1-1.36,1.35A2.25,2.25,0,0,1,58,175.81ZM45.75,162.65l11.17,7.68c.66-1.75,1.39-3.51,2.19-5.25Z" transform="translate(0 -62.41)"/>
    <path d="M241.45,245.83a1.72,1.72,0,0,1-.39,0l-25.84-4.72a2.12,2.12,0,0,1-1.53-3,76.27,76.27,0,0,0,4.12-9.92,2.17,2.17,0,0,1,1.36-1.35,2.12,2.12,0,0,1,1.89.27l21.61,14.91a2.12,2.12,0,0,1,.76,2.57A2.15,2.15,0,0,1,241.45,245.83Zm-22.71-8.45,13.32,2.43-11.13-7.68C220.27,233.88,219.54,235.64,218.74,237.38Z" transform="translate(0 -62.41)"/>
    <path d="M176.63,126.71a2.14,2.14,0,0,1-1-.22,82.2,82.2,0,0,0-9.93-4.14,2.12,2.12,0,0,1-1.06-3.21l14.9-21.68a2.15,2.15,0,0,1,2.58-.77,2.12,2.12,0,0,1,1.3,2.35L178.74,125a2.13,2.13,0,0,1-2.11,1.75Zm-6.86-7.44c1.84.7,3.58,1.42,5.25,2.18l2.43-13.34Z" transform="translate(0 -62.41)"/>
    <path d="M36.33,245.89A2.13,2.13,0,0,1,35.11,242l21.6-15a2.14,2.14,0,0,1,1.9-.28A2.17,2.17,0,0,1,60,228.11,76.27,76.27,0,0,0,64.09,238a2.12,2.12,0,0,1-1.52,3l-25.85,4.79Zm20.52-13.75-11.13,7.71L59,237.39C58.24,235.65,57.51,233.89,56.85,232.14Z" transform="translate(0 -62.41)"/>
    <path d="M181.42,305.93a2.14,2.14,0,0,1-1.77-.93l-14.9-21.6a2.15,2.15,0,0,1-.27-1.89,2.12,2.12,0,0,1,1.35-1.34,76.23,76.23,0,0,0,9.91-4.13,2.15,2.15,0,0,1,3.07,1.53l4.72,25.84a2.14,2.14,0,0,1-1.3,2.36A2.09,2.09,0,0,1,181.42,305.93Zm-11.56-22.66,7.66,11.11-2.42-13.29Q172.49,282.27,169.86,283.27Z" transform="translate(0 -62.41)"/>
    <path d="M101.15,126.71A2.13,2.13,0,0,1,99,125L94.32,99a2.13,2.13,0,0,1,1.29-2.35,2.16,2.16,0,0,1,2.59.76l15,21.68a2.13,2.13,0,0,1-1.06,3.22,81.37,81.37,0,0,0-10,4.14A2.14,2.14,0,0,1,101.15,126.71Zm-.83-18.65,2.44,13.39c1.66-.75,3.42-1.47,5.31-2.18Z" transform="translate(0 -62.41)"/>
    <path d="M219.78,175.87a2,2,0,0,1-.69-.11,2.13,2.13,0,0,1-1.35-1.36,73.08,73.08,0,0,0-4.12-10,2.13,2.13,0,0,1,1.53-3.05l25.91-4.72a2.13,2.13,0,0,1,1.61,3.85l-21.67,15A2.1,2.1,0,0,1,219.78,175.87Zm-1.11-10.79q1.22,2.65,2.2,5.31l11.21-7.75Z" transform="translate(0 -62.41)"/>
    <path d="M497.69,339.93c0,52.64-42.92,95.33-95.84,95.33H119.21c-44.07,0-79.86-35.56-79.86-79.45s35.79-79.44,79.86-79.44a81.87,81.87,0,0,1,10.19.65c1.39-69,58-124.49,127.73-124.49A127.78,127.78,0,0,1,380.65,247a94.7,94.7,0,0,1,21.2-2.41C454.77,244.56,497.69,287.25,497.69,339.93Z" transform="translate(0 -62.41)" style="fill:#e6e6e6"/>
    <path d="M497.69,339.93c0,52.64-42.92,95.33-95.84,95.33H119.21c95.79,0,195.47-192.83,195.47-269v-.09a127.53,127.53,0,0,1,66,80.83,94.7,94.7,0,0,1,21.2-2.41C454.77,244.56,497.69,287.25,497.69,339.93Z" transform="translate(0 -62.41)" style="fill:#666;opacity:0.25"/>
    <path d="M497.69,339.93c0,52.64-42.92,95.33-95.84,95.33h-188c30.05-1,297.37-21.34,272.64-116.67-17.17-66.18-82.25-69.72-105.93-64.12a43.47,43.47,0,0,0-19.77,11c0-4.08,16.48-18,19.82-18.52a94.7,94.7,0,0,1,21.2-2.41C454.77,244.56,497.69,287.25,497.69,339.93Z" transform="translate(0 -62.41)" style="fill:#333;opacity:0.5"/>
    <path d="M401.85,437.59H119.21C73.9,437.59,37,400.91,37,355.82s36.86-81.77,82.17-81.77c2.67,0,5.33.13,8,.39,2.77-68.74,60.55-124.25,130-124.25,58.22,0,109.36,38.56,125.14,94.05a98.12,98.12,0,0,1,19.56-2c54.12,0,98.15,43.82,98.15,97.67S456,437.59,401.85,437.59ZM119.21,278.68c-42.76,0-77.54,34.6-77.54,77.14S76.45,433,119.21,433H401.85c51.57,0,93.52-41.73,93.52-93s-41.95-93-93.52-93a93.49,93.49,0,0,0-20.69,2.33,2.34,2.34,0,0,1-2.76-1.66C363.88,193,314,154.82,257.15,154.82c-67.79,0-124.06,54.84-125.43,122.26a2.31,2.31,0,0,1-2.62,2.24A77,77,0,0,0,119.21,278.68Z" transform="translate(0 -62.41)"/>
</svg>