<svg xmlns="http://www.w3.org/2000/svg" viewBox="0 0 500 500">
    <circle cx="250" cy="250" r="242.64" style="fill:#adfffa"/>
    <path d="M409.43,310.43l-45.81,46.7a139.13,139.13,0,0,1-13.7,12.52,162.44,162.44,0,0,0,49.2-73.95l20.18-62.17c17.85-54.73-14.75-131.07-56.47-177.06-13.2-14.55-29.26-26.19-46.68-35.28L299.51,12.5C347.42,22.09,388.16,47.61,411.35,69l26.22,50.38A164.29,164.29,0,0,1,409.43,310.43Z" style="fill:#999;opacity:0.25"/>
    <path d="M492.67,250.47a242.2,242.2,0,0,1-128.29,213.8,244.93,244.93,0,0,1-186.87,17.5A242.51,242.51,0,0,1,41.65,374.52,242,242,0,0,1,31.57,145.73l-6.63,43.6a164.58,164.58,0,0,0,89.72,171.18l58.48,29A164.1,164.1,0,0,0,340.45,376.8a161.11,161.11,0,0,0,23.17-19.67l45.81-46.7a164.29,164.29,0,0,0,28.14-191.07L411.35,69c20.73,18,38.59,41.1,51.85,65.55a239.74,239.74,0,0,1,28.38,92.84Q492.68,238.89,492.67,250.47Z" style="fill:#999;opacity:0.5"/>
    <path d="M250,500C112.15,500,0,387.85,0,250S112.15,0,250,0,500,112.15,500,250,387.85,500,250,500Zm0-485.27C120.27,14.73,14.73,120.28,14.73,250S120.27,485.27,250,485.27,485.27,379.73,485.27,250,379.73,14.73,250,14.73Z"/>
</svg>