<svg xmlns="http://www.w3.org/2000/svg" viewBox="0 0 500 500">
    <path d="M495.52,291.1a8.87,8.87,0,0,0-10.8-6.35c-37.5,9.23-96,23.52-109.9,26.8-12.7-7.94-50.3-31-55.8-34.24l35.7-16.57a11.93,11.93,0,0,0,0-21.54l-36.2-16.67c18.8-11.51,37.4-23.12,55.7-34.53l109.4,27.19a8.93,8.93,0,0,0,11-6.16,8.83,8.83,0,0,0-5.9-11.11l-86.8-27.49c16.9-10.72,33.2-21.24,48.6-31.36a9.19,9.19,0,0,0-9.4-15.78c-19.3,10.82-34.8,19.75-48.8,28.09l20.9-92.69A9,9,0,0,0,395.82,54c-11,37.72-29.4,100.23-33.6,114-13.4,7.84-50.2,29.87-54.8,32.65l4.1-40.09a11.93,11.93,0,0,0-6-11.71,11.55,11.55,0,0,0-12.8,1l-30.5,23.82c-.2-22.63-.5-45.26-.9-67.59,5.1-5.65,21.8-24.31,77.4-86.33a8.89,8.89,0,0,0-.4-12.61,9,9,0,0,0-12.6.1L260.72,72c-.5-19.65-.9-39.2-1.5-58.35a9.1,9.1,0,0,0-18.2-.2c-.8,23.12-1.2,42.67-1.2,58.25l-65.9-65A9,9,0,0,0,160.72,19c32.4,35.93,69.5,77.41,78,87.13,0,0-.6,52.7-.3,67.69l-31.2-23.92a11.58,11.58,0,0,0-12.8-1,11.84,11.84,0,0,0-6.1,11.71L193,201q-28.05-16.68-55.9-32.75L104.52,54.92a8.82,8.82,0,0,0-10.8-6.35,8.7,8.7,0,0,0-6.6,10.62l21.2,92.39c-16.4-9.43-32.8-18.76-48.8-27.69a8.89,8.89,0,0,0-12.3,3,9,9,0,0,0,2.7,12.4c15.5,10.22,30.6,19.95,48,30.86l-87.5,27.59a9,9,0,0,0,4.7,17.37c37.6-9.23,96.1-23.52,110-26.7,3.1,1.79,44.3,26.8,56.3,34l-36.2,16.77a11.86,11.86,0,0,0,0,21.54l35.7,16.47c-18.5,11.51-37,23-55.2,34.54-7.7-2-32.1-7.94-109.6-27a8.93,8.93,0,0,0-11,6.16,9.1,9.1,0,0,0,6,11.11l86.8,27.29C81.72,339.63,65.62,350,50,360.07a8.89,8.89,0,0,0-2.9,12.41,9,9,0,0,0,12.1,3.27c17.6-9.72,34.8-19.55,48.4-27.58l-20.8,93a8.81,8.81,0,0,0,6.5,10.72,9,9,0,0,0,10.9-6.15c13.7-47.24,29.7-101.82,33.6-114.42,3-1.69,43.3-25.81,54.7-32.85l-4.2,41a11.78,11.78,0,0,0,6.1,11.61,11.58,11.58,0,0,0,12.8-1l30.7-24c.2,22.72.4,45.35.8,67.58-5.2,5.65-22,24.41-77.5,86a9,9,0,0,0,12.9,12.6l65.2-64.6c.4,20.44,1,40.39,1.6,59.24a9.2,9.2,0,0,0,18.4.2c.5-18.76,1-38.7,1-59l65.7,65a9,9,0,0,0,12.6.2,8.85,8.85,0,0,0,.5-12.5c-23.1-25.9-67.8-76-77.4-87,.2-16.68.3-33.84.4-51.11l-.3-16.38,30.9,23.72a11.55,11.55,0,0,0,12.8,1,11.93,11.93,0,0,0,6-11.71l-4.6-40.88s50.7,30.17,55.6,33.14l16.7,58.06c8.4,29.17,15.9,55.17,15.9,55.17a9,9,0,0,0,17.4-4.36l-21-92.39c17.7,10.22,34.4,19.65,49.6,28.08a9,9,0,0,0,12.4-3.08,9.13,9.13,0,0,0-2.8-12.6c-17.4-11.31-33.4-21.53-48.6-31l87.3-27.39A8.81,8.81,0,0,0,495.52,291.1Zm-279.7,21.44,3.1-29.57c6.6-4,12.8-7.74,18.8-11.51,0,7.93.1,16,.1,23.91Zm22.4-84.65-19.3-11.51-3.1-28.58,22.1,16.87Zm-57.1,22L206.72,238c6.3,3.87,12.7,7.74,19.1,11.61-5,3.08-19.4,12.11-19.4,12.11ZM284,187.4l-2.9,29-18.5,11.31c-.1-5.46-.2-23.22-.2-23.22Zm-21.6,84.35,18.5,11.12,3.2,29.27-21.7-16.57S262.52,278,262.42,271.75ZM318.82,250l-25,11.71s-15-9.23-19.7-12c6.3-3.87,12.7-7.84,18.8-11.71Z" transform="translate(0 0)" style="fill:aqua"/>
    <path d="M441.12,123.29c-19.3,10.82-34.8,19.75-48.8,28.09l20.9-92.69A9,9,0,0,0,395.82,54c-11,37.72-29.4,100.23-33.6,114-13.4,7.84-50.2,29.87-54.8,32.65l4.1-40.09a11.93,11.93,0,0,0-6-11.71,11.55,11.55,0,0,0-12.8,1l-30.5,23.82c-.2-22.63-.5-45.26-.9-67.59,5.1-5.65,21.8-24.31,77.4-86.33a8.89,8.89,0,0,0-.4-12.61,9,9,0,0,0-12.6.1L260.72,72c-.5-19.65-.9-39.2-1.5-58.35a9.1,9.1,0,0,0-18.2-.2c-.8,23.12-1.2,42.67-1.2,58.25l-65.9-65A9,9,0,0,0,160.72,19c32.4,35.93,69.5,77.41,78,87.13,0,0-.6,52.7-.3,67.69l-31.2-23.92a11.58,11.58,0,0,0-12.8-1,11.84,11.84,0,0,0-6.1,11.71L193,201q-28.05-16.68-55.9-32.75L104.52,54.92a8.82,8.82,0,0,0-10.8-6.35,8.7,8.7,0,0,0-6.6,10.62l21.2,92.39c-16.4-9.43-32.8-18.76-48.8-27.69a8.89,8.89,0,0,0-12.3,3,9,9,0,0,0,2.7,12.4c15.5,10.22,30.6,19.95,48,30.86l-87.5,27.59a9,9,0,0,0,4.7,17.37c37.6-9.23,96.1-23.52,110-26.7,3.1,1.79,44.3,26.8,56.3,34l-36.2,16.77a11.86,11.86,0,0,0,0,21.54l35.7,16.47c-18.5,11.51-37,23-55.2,34.54-7.7-2-32.1-7.94-109.6-27a8.93,8.93,0,0,0-11,6.16,9.1,9.1,0,0,0,6,11.11l86.8,27.29C81.72,339.63,65.62,350,50,360.07a8.89,8.89,0,0,0-2.9,12.41l3.4-2v-.09l399.4-241.85,3.5-2.08A9.06,9.06,0,0,0,441.12,123.29Zm-160,93.09-18.5,11.31c-.1-5.46-.2-23.22-.2-23.22L284,187.4Zm-42.9,11.51-19.3-11.51-3.1-28.58,22.1,16.87Z" transform="translate(0 0)" style="fill:#b3b3b3;opacity:0.5"/>
    <path d="M258.32,202.58l.3,32.36,26.3-16.18,4.1-40.29Zm19,11.42-10.7,6.55-.1-14.1,12.6-9.92Zm-35.4-11.22L210.82,179l4.3,39.89,27.3,16.27Zm-8,4,.2,14.09-11.4-6.74-1.9-17.37Zm-27,26.7L171.62,250l35.2,16.27,26.8-16.67Zm-16.3,16.47,15.8-7.34,11.7,7.14-12,7.45Zm102-16.37-26.2,16.17,27.2,16.57L328.32,250Zm16.7,16.57-15.2,7.14s-9.4-5.85-12.3-7.54c3.9-2.38,7.7-4.76,11.4-7Zm-24.6,30.47-26.6-16,.3,32.94,30.7,23.52ZM266.52,279l10.6,6.35,2,18-12.6-9.63S266.62,282.77,266.52,279Zm-24.7-14.79-26.7,16.38-4.2,41,31-24.21Zm-19.1,21.24c3.8-2.28,7.5-4.57,11-6.75.1,5,.1,9.82.1,14.79l-13,10.12Zm69.9-51.9-26.2,16.17,27.2,16.57L328.32,250Zm16.7,16.57-15.2,7.14s-9.4-5.85-12.3-7.54c3.9-2.38,7.7-4.76,11.4-7Zm-51.2,14.49.3,32.94,30.7,23.52-4.4-40.48Zm8.4,14.39,10.6,6.35,2,18-12.6-9.63S266.62,282.77,266.52,279Zm18.4-60.24,4.1-40.29-30.7,24.11.3,32.36Zm-7.6-4.76-10.7,6.55-.1-14.1,12.6-9.92Zm-66.5-35,4.3,39.89,27.3,16.27-.5-32.35Zm23.1,27.78.2,14.09-11.4-6.74-1.9-17.37Zm-18.8,73.84-4.2,41,31-24.21-.1-33.15Zm7.6,4.86c3.8-2.28,7.5-4.57,11-6.75.1,5,.1,9.82.1,14.79l-13,10.12Zm-15.8-52L171.62,250l35.2,16.27,26.8-16.67Zm-16.3,16.47,15.8-7.34,11.7,7.14-12,7.45Zm308.9,40.19a13.12,13.12,0,0,0-15.7-9.23c-42.3,10.42-93.1,22.83-108.3,26.4-12-7.54-24.5-15.18-37.1-22.92l-.8-.5c-3.4-2-6.7-4.07-10-6.05l28.8-13.4a15.61,15.61,0,0,0,9.2-14.39,15.86,15.86,0,0,0-9.2-14.49L327,222c16.1-9.92,32.2-19.84,47.9-29.67l107.7,26.7a13,13,0,0,0,15.9-8.93,12.78,12.78,0,0,0-8.5-16l-78.7-24.91c14.3-9.13,28.2-18.06,41.3-26.7a13.22,13.22,0,0,0-13.5-22.72c-15.7,8.93-29,16.47-40.8,23.42l18.9-83.66A13,13,0,0,0,392,52.93c-10.4,35.53-28.2,96.07-33.2,112.54-13,7.54-44.1,26.2-46.5,27.69l3.3-32.16a16.06,16.06,0,0,0-8.2-15.58,15.4,15.4,0,0,0-17.2,1.39l-24,18.76c-.2-19.45-.5-38.7-.8-58,6.2-6.84,24.1-26.79,76.3-85a13,13,0,0,0-18.8-18.06l-58.4,58.05c-.3-16.47-.8-32.95-1.2-48.92A13,13,0,0,0,250.12.73c-7.2,0-13.1,5.76-13.1,12.61-.7,18.65-1.1,35-1.2,48.82l-59-58.25a12.9,12.9,0,0,0-18.2-.3,12.68,12.68,0,0,0-.8,18.06c30.4,33.84,66.7,74.23,76.9,85.94l-.4,25.11c-.1,9.53-.2,21-.1,32.85l-24.5-18.86a15.57,15.57,0,0,0-17.2-1.29,15.87,15.87,0,0,0-8.1,15.68l3.7,32.35c-15.9-9.32-31.7-18.65-47.5-27.78L123.42,106c-7.8-27.29-11.7-41-14.2-48.13l.3-.1-1-3.87a12.93,12.93,0,0,0-15.8-9.23,12.76,12.76,0,0,0-9.5,15.48l19.2,83.46q-20.7-11.91-40.8-23.13a12.8,12.8,0,0,0-17.8,4.37c-3.8,6.15-2,14.19,3.9,17.76,13.4,8.84,26.5,17.27,40.8,26.3L9.32,194a13,13,0,0,0,6.8,25c30.5-7.44,91.1-22.23,108.3-26.3,2.6,1.49,38.8,23.32,48.5,29.28l-29.4,13.69a15.85,15.85,0,0,0,0,28.78l29,13.4c-15.9,9.82-31.8,19.74-47.5,29.67-9.3-2.28-35.3-8.73-107.9-26.6a13,13,0,0,0-15.8,9,12.73,12.73,0,0,0,8.6,15.88l78.6,24.81c-13.8,8.73-27.4,17.57-40.6,26.1a13,13,0,0,0-4.2,18c3.7,6.06,11.7,8.14,17.5,4.67,14.2-7.94,28.3-15.88,40.5-23l-18.8,84a12.79,12.79,0,0,0,9.5,15.58,13,13,0,0,0,15.7-8.93c12.9-44.56,28.5-97.75,33.2-112.84,2.5-1.58,5.2-3.17,8.3-5.06,3.7-2.28,7.4-4.46,11-6.65,8.8-5.16,17.9-10.61,27.1-16.17L184.42,339a15.81,15.81,0,0,0,8.1,15.58,15.39,15.39,0,0,0,17.2-1.39l24.3-19c.1,19.45.4,38.8.6,57.86-6.2,6.95-24.2,26.89-76.3,84.85a12.81,12.81,0,0,0,.5,18.26,13.08,13.08,0,0,0,18.2-.1l58.5-58c.4,17.17.9,33.84,1.4,49.82a13.06,13.06,0,0,0,13.2,13,13.22,13.22,0,0,0,13.3-12.7c.4-15.68.8-32.35.9-49.52l58.8,58.15a13,13,0,0,0,19.1-17.66c-21.9-24.51-65-72.84-76.4-85.84.2-16.18.3-32.85.4-49.72l-.2-8,24.3,18.66a15.54,15.54,0,0,0,17.2,1.29,16.21,16.21,0,0,0,8.1-15.68l-3.8-32.85,24.9,14.79c8.9,5.26,17.6,10.42,22.4,13.29l16.3,56.67c7,24.61,11.1,38.8,13.8,47.24h-.1l2.1,7.74a13,13,0,0,0,25.3-6.16l-19-83.55c14.8,8.53,28.7,16.37,41.5,23.51a13.22,13.22,0,0,0,14-22.42c-14.7-9.53-28.3-18.26-41.3-26.4L490.62,306A12.87,12.87,0,0,0,499.52,290.11Zm-11.2,8.24-95.6,30s38.4,24.31,55.9,35.62a5.15,5.15,0,0,1,1.5,7.05,5,5,0,0,1-7,1.69c-15.2-8.44-57.6-32.65-57.6-32.65l23.2,101.42a4.93,4.93,0,0,1-3.8,5.85,4.88,4.88,0,0,1-5.9-3.47L366,329l-64-38.1,5.5,48.92a7.67,7.67,0,0,1-4,7.74,7.47,7.47,0,0,1-8.3-.59l-37.5-28.88v77.2s55.9,63,78.5,88.33a5,5,0,0,1-7.3,6.74l-72.6-71.84v9.62c0,20.44-.5,40.39-1,59a5.09,5.09,0,0,1-5.2,4.86,5,5,0,0,1-5.1-5.16c-.7-18.85-1.2-38.7-1.6-59.14l-.2-9.43-71.9,71.25a4.91,4.91,0,0,1-6.9,0,5,5,0,0,1-.2-7.05c55.5-61.72,78.6-87.32,78.6-87.32L242,317.9,204.72,347a7.29,7.29,0,0,1-8.3.59,7.67,7.67,0,0,1-4-7.74l5-49-63,37.91s-20.6,69.86-34.1,116a5,5,0,0,1-6,3.38,4.9,4.9,0,0,1-3.6-6.06l22.9-102.11s-38.9,22.72-56.4,32.45a5.12,5.12,0,0,1-6.7-1.89v-.09a4.93,4.93,0,0,1,1.7-6.95c15.6-10.12,55.1-35.33,55.1-35.33l-95.1-30a5,5,0,0,1,2.9-9.53C92.72,307.78,126.42,316,126.42,316l63-39.3-42.5-19.54a7.93,7.93,0,0,1,0-14.3L190,222.93l-64.2-38.8s-80.1,19.35-111.7,27.09a4.89,4.89,0,0,1-5.9-3.48,5,5,0,0,1,3.4-6.15l95.8-30.27S67.72,146.22,52,135.9a5,5,0,0,1-1.3-6.85,4.86,4.86,0,0,1,6.9-1.69c16,9,56.7,32.35,56.7,32.35L91,58.29a4.92,4.92,0,0,1,3.7-5.85,5,5,0,0,1,3.8.59l1.6,3.67c2.2,5,6.1,18.56,15.6,51.51l18,62.72,64.2,37.71-5.5-48.43a7.9,7.9,0,0,1,4-7.84,7.48,7.48,0,0,1,8.3.69l37.9,29.08.2-77.5s-47.5-53.29-79.1-88.33a5,5,0,0,1,7.4-6.74l72.8,71.84s.3-44.75,1.2-68a5,5,0,0,1,5-4.67,4.9,4.9,0,0,1,5.1,5c.6,19.16,1.7,67.78,1.7,67.78l71.8-71.35a4.8,4.8,0,0,1,6.8,0,4.81,4.81,0,0,1,.2,7.05c-55.6,62-78.4,87.43-78.4,87.43l1,77.3,36.9-28.88a7.47,7.47,0,0,1,8.3-.59,7.67,7.67,0,0,1,4,7.74l-4.9,48.33,63-37.71s23.4-78.9,34.2-115.71a4.76,4.76,0,0,1,6-3.38,5,5,0,0,1,3.5,6.06l-23,101.81s37.4-21.93,56.9-32.84a4.88,4.88,0,0,1,6.7,1.78.1.1,0,0,1,.1.1,5,5,0,0,1-1.7,7.15c-15.4,10.12-55.7,35.92-55.7,35.92l95,30.07a5,5,0,0,1-3,9.53l-111.1-27.59-63.4,39.4L353,242.87a7.93,7.93,0,0,1,0,14.3l-42.5,19.64,63.5,39s80.1-19.35,111.7-27.09a5.85,5.85,0,0,1,1.3-.2,4.86,4.86,0,0,1,4.7,3.68A5,5,0,0,1,488.32,298.35Zm-195.7-64.8-26.2,16.17,27.2,16.57L328.32,250Zm16.7,16.57-15.2,7.14s-9.4-5.85-12.3-7.54c3.9-2.38,7.7-4.76,11.4-7Zm-51.2,14.49.3,32.94,30.7,23.52-4.4-40.48Zm8.4,14.39,10.6,6.35,2,18-12.6-9.63S266.62,282.77,266.52,279Zm18.4-60.24,4.1-40.29-30.7,24.11.3,32.36Zm-7.6-4.76-10.7,6.55-.1-14.1,12.6-9.92Zm-66.5-35,4.3,39.89,27.3,16.27-.5-32.35Zm23.1,27.78.2,14.09-11.4-6.74-1.9-17.37Zm-18.8,73.84-4.2,41,31-24.21-.1-33.15Zm7.6,4.86c3.8-2.28,7.5-4.57,11-6.75.1,5,.1,9.82.1,14.79l-13,10.12Zm-15.8-52L171.62,250l35.2,16.27,26.8-16.67Zm-16.3,16.47,15.8-7.34,11.7,7.14-12,7.45Z" transform="translate(0 0)"/>
</svg>